<svg width="84" height="85" viewBox="0 0 84 85" fill="none" xmlns="http://www.w3.org/2000/svg">
<mask id="path-1-inside-1_21_101" fill="white">
<path fill-rule="evenodd" clip-rule="evenodd" d="M15.2434 18.1958C19.679 7.5129 30.2121 0 42.5 0C54.9553 0 65.6078 7.71904 69.9345 18.6343C78.1819 21.9714 84 30.0562 84 39.5C84 48.5317 78.6786 56.3205 71 59.902V85H14V60.3391C5.78735 56.9858 0 48.9187 0 39.5C0 29.6126 6.37756 21.2148 15.2434 18.1958Z"/>
</mask>
<path fill-rule="evenodd" clip-rule="evenodd" d="M15.2434 18.1958C19.679 7.5129 30.2121 0 42.5 0C54.9553 0 65.6078 7.71904 69.9345 18.6343C78.1819 21.9714 84 30.0562 84 39.5C84 48.5317 78.6786 56.3205 71 59.902V85H14V60.3391C5.78735 56.9858 0 48.9187 0 39.5C0 29.6126 6.37756 21.2148 15.2434 18.1958Z" fill="#F1AA7C"/>
<path d="M15.2434 18.1958L15.5658 19.1425C15.8378 19.0498 16.0568 18.8447 16.167 18.5793L15.2434 18.1958ZM69.9345 18.6343L69.0049 19.0028C69.1056 19.2569 69.306 19.4588 69.5594 19.5613L69.9345 18.6343ZM71 59.902L70.5773 58.9957C70.2251 59.16 70 59.5134 70 59.902H71ZM71 85V86C71.5523 86 72 85.5523 72 85H71ZM14 85H13C13 85.5523 13.4477 86 14 86V85ZM14 60.3391H15C15 59.9328 14.7542 59.5669 14.378 59.4133L14 60.3391ZM16.167 18.5793C20.453 8.25656 30.6302 1 42.5 1V-1C29.794 -1 18.905 6.76923 14.3199 17.8124L16.167 18.5793ZM42.5 1C54.5315 1 64.8241 8.45578 69.0049 19.0028L70.8641 18.2658C66.3914 6.98231 55.3791 -1 42.5 -1V1ZM69.5594 19.5613C77.4421 22.7508 83 30.4775 83 39.5H85C85 29.6349 78.9217 21.1919 70.3096 17.7073L69.5594 19.5613ZM83 39.5C83 48.1288 77.9168 55.5723 70.5773 58.9957L71.4227 60.8083C79.4403 57.0686 85 48.9346 85 39.5H83ZM70 59.902V85H72V59.902H70ZM71 84H14V86H71V84ZM15 85V60.3391H13V85H15ZM14.378 59.4133C6.5285 56.2083 1 48.4986 1 39.5H-1C-1 49.3389 5.0462 57.7633 13.622 61.2649L14.378 59.4133ZM1 39.5C1 30.0536 7.09273 22.0277 15.5658 19.1425L14.9211 17.2492C5.66238 20.402 -1 29.1716 -1 39.5H1Z" fill="#091729" mask="url(#path-1-inside-1_21_101)"/>
<path d="M50.1439 58C58.3372 55.808 65.1247 50.1768 68.8649 42.7481M34.8557 58C26.6624 55.808 19.8749 50.1768 16.1348 42.7481M42.9998 58V41.5" stroke="#091729" stroke-linecap="round" stroke-linejoin="round"/>
<path d="M17.9561 14.0422C16.088 17.2241 14.865 20.6851 14.2908 24.2333" stroke="#091729" stroke-linecap="round" stroke-linejoin="round"/>
<path d="M68.6344 16.971C70.2436 20.2913 71.1875 23.8386 71.4778 27.4213" stroke="#091729" stroke-linecap="round" stroke-linejoin="round"/>
</svg>
