<svg width="145" height="145" viewBox="0 0 145 145" fill="none" xmlns="http://www.w3.org/2000/svg">
<path d="M124.122 122.629C124.911 121.8 125.7 120.971 126.45 120.143L122.622 112.922L130.476 115.132C131.068 114.303 131.66 113.514 132.212 112.686L127.121 105.11L135.883 106.57C136.356 105.741 136.79 104.873 137.185 104.005L130.792 97.3374H140.027C140.264 96.6666 140.461 96.0353 140.698 95.404L133.594 89.0122L142.671 88.302C142.908 87.2761 143.105 86.2503 143.302 85.2244L135.528 80.4108L144.171 78.1224C144.25 77.0176 144.329 75.8734 144.368 74.7687L136.356 71.5333L144.25 67.9428C144.171 66.8775 144.092 65.8122 143.973 64.7469L135.883 62.4979L142.947 58.2761C142.75 57.2897 142.553 56.3428 142.316 55.3564L133.317 53.8571L140.303 48.6095C139.987 47.6625 139.632 46.7156 139.237 45.8081H130.239L136.277 39.4163C135.843 38.5482 135.37 37.6802 134.857 36.8517L125.898 38.0353L131.028 30.9333C130.397 30.0258 129.726 29.1183 129.016 28.2503L120.57 30.9333L124.437 22.9632C124.082 22.6081 123.727 22.2136 123.372 21.8585C122.938 21.4244 122.464 20.9904 122.03 20.5564L114.374 24.5414L116.82 16.0585C115.992 15.3877 115.123 14.7564 114.255 14.1251L107.783 18.3469L109.164 10.7714C108.019 10.1006 106.835 9.42988 105.651 8.83805L99.9288 14.2435V6.1156C98.7448 5.60267 97.5608 5.16866 96.3373 4.73464L91.5619 11.087L90.1806 2.91968C89.0755 2.64349 87.9704 2.40675 86.8259 2.17002L82.6819 9.2326L80.3929 1.18362C79.4457 1.06526 78.4985 0.986345 77.5513 0.946889L73.6441 9.50879L70.1316 0.828522C69.1054 0.828522 68.0398 0.907433 67.0137 0.986345L64.922 8.91696L60.5017 1.77546C59.3967 1.97274 58.2916 2.17002 57.226 2.40675L55.8447 10.4163L51.0692 4.02444C49.8458 4.419 48.6223 4.81356 47.4383 5.24757L47.5173 13.336L41.5183 7.73328C40.3738 8.28566 39.2687 8.83805 38.1637 9.42988L39.1503 17.0448L32.9936 12.5469C31.8885 13.2965 30.7834 14.0462 29.6784 14.8748L32.0069 22.3319L24.824 18.8204C23.8373 19.6884 22.8901 20.5564 21.9824 21.5034L25.6133 28.5265L17.6411 26.1986C16.8912 27.0666 16.1808 27.9741 15.4704 28.8816L20.0091 35.7074L11.7211 34.2476C11.2081 35.0367 10.7345 35.8258 10.2609 36.6544L16.2992 43.9537L6.86674 43.3224C6.43261 44.2693 6.03794 45.2163 5.68274 46.1632L11.9974 51.5687L3.55155 52.4367C3.23582 53.502 2.95955 54.5278 2.72275 55.5932L9.43206 60.3673L1.49929 61.9061C1.30196 63.1292 1.14409 64.3918 1.02569 65.6544L8.4454 69.1659L0.709961 72.1646C0.709961 73.5061 0.709961 74.887 0.788894 76.2285L7.8534 78.6353L1.30196 82.068C1.49929 83.4489 1.69662 84.8299 1.97289 86.2108L9.43206 87.355L3.35422 92.0897C3.70942 93.3918 4.14355 94.7333 4.57768 95.9959L12.1553 95.8381L6.7878 101.678C7.30087 102.782 7.81393 103.887 8.36646 104.992L16.1414 103.966L11.4449 110.437C11.9974 111.305 12.5499 112.173 13.1419 113.041L21.9035 110.91L17.4043 118.683C18.1147 119.551 18.8646 120.38 19.6144 121.208L26.7579 118.131L23.9952 125.588C24.9029 126.416 25.8107 127.205 26.7579 127.995L33.5461 124.365L31.5728 131.664C32.7173 132.453 33.8618 133.203 35.0064 133.913L41.0053 129.139L40.3343 136.872C41.2026 137.306 42.1103 137.74 43.0181 138.135L49.2932 131.98L49.4511 140.66C50.5167 141.015 51.6218 141.37 52.6874 141.686L57.818 134.505L59.5545 143.303C60.6596 143.501 61.7252 143.698 62.8303 143.816L66.6585 135.886L69.8948 144.448C70.842 144.448 71.7892 144.487 72.7364 144.487L75.6963 136.004L79.8798 144.132C80.6691 144.053 81.419 143.974 82.2083 143.856L84.4974 133.992L90.0227 142.356C90.8909 142.12 91.7987 141.883 92.6669 141.646L93.18 132.848L99.2579 139.358C100.166 139.003 101.113 138.608 102.021 138.174L101.784 129.573L107.98 135.136C109.006 134.544 110.072 133.913 111.058 133.282L109.361 125.035L116.505 129.454C117.491 128.705 118.439 127.916 119.346 127.126L116.347 119.512L124.082 122.668L124.122 122.629ZM77.3934 67.7455C80.0377 70.3891 80.0377 74.7292 77.3934 77.3727C74.7491 80.0163 70.4078 80.0163 67.7636 77.3727C65.1193 74.7292 65.1193 70.3891 67.7636 67.7455C70.4078 65.102 74.7491 65.102 77.3934 67.7455ZM18.7067 51.6476C21.5088 44.3877 25.8501 37.5619 31.7306 31.6829C52.7663 10.653 85.9971 9.2326 108.69 27.4217L86.7075 49.3986C76.2883 43.0068 62.4751 44.3483 53.4372 53.3836C51.5428 55.2775 49.9642 57.4081 48.7407 59.6966L18.7462 51.6476H18.7067ZM31.7306 113.396C18.2331 99.902 12.7867 81.3578 15.4704 63.8394L45.5045 71.8884C45.3071 79.0693 47.9514 86.2503 53.4372 91.7346C58.8836 97.1795 66.0665 99.8231 73.1705 99.6653L81.2217 129.691C63.6985 132.335 45.2282 126.89 31.7306 113.435V113.396ZM93.3773 126.456L85.3262 96.4693C87.6152 95.2462 89.7859 93.668 91.7197 91.7346C100.797 82.6598 102.099 68.7714 95.5875 58.3156L117.531 36.3782C135.843 59.0653 134.462 92.3659 113.387 113.435C107.506 119.314 100.639 123.694 93.3379 126.495L93.3773 126.456Z" fill="#6F4528"/>
<path d="M19.4965 122.037L19.1807 121.682C18.4309 120.853 17.6415 119.985 16.9311 119.117L16.6154 118.762L20.5226 111.936L12.8266 113.79L12.5504 113.396C11.9189 112.488 11.3664 111.62 10.8533 110.792L10.6165 110.397L14.6421 104.834L7.97224 105.702L7.73544 105.268C7.18291 104.163 6.63037 103.019 6.15678 101.914L5.95944 101.52L10.5376 96.5089L4.02558 96.6272L3.86772 96.1537C3.43359 94.8517 2.99946 93.5102 2.64426 92.2082L2.52586 91.7742L7.69597 87.7497L1.34186 86.7633L1.26293 86.2898C1.02613 84.9483 0.78933 83.5673 0.591998 82.1075L0.513065 81.634L6.07784 78.7143L0.1184 76.6626V76.1891C0.0394665 74.8476 0 73.4667 0 72.0857V71.6122L6.70931 69.0476L0.276266 66.0095V65.5361C0.434132 64.3129 0.591998 63.0503 0.78933 61.7483L0.868263 61.2748L7.69597 59.9728L1.93386 55.8299L2.05226 55.3959C2.28906 54.3701 2.60479 53.2653 2.92052 52.2L3.03892 51.766L10.3797 51.0163L4.93331 46.3605L5.13065 45.8871C5.52531 44.9401 5.91998 43.9932 6.31464 43.0463L6.51197 42.6122L14.8394 43.1646L9.51143 36.7333L9.74823 36.3388C10.2218 35.5102 10.7349 34.6816 11.2085 33.932L11.4453 33.5374L18.6282 34.8L14.6815 28.8816L14.9973 28.4871C15.6682 27.5796 16.4181 26.6721 17.1679 25.8041L17.4442 25.449L24.3114 27.4612L21.1935 21.385L21.5487 21.0299C22.4564 20.1225 23.4431 19.215 24.4298 18.3075L24.785 17.9918L30.9417 20.9905L28.929 14.5986L29.3236 14.3224C30.4287 13.4939 31.5732 12.7048 32.6388 11.9946L33.0335 11.7184L38.2825 15.5456L37.4537 9.03537L37.8484 8.79864C38.9534 8.2068 40.098 7.61497 41.2425 7.06258L41.6766 6.86531L46.8468 11.6789V4.69524L47.2414 4.53742C48.4254 4.1034 49.6489 3.66939 50.9118 3.27483L51.3854 3.11701L55.4899 8.60136L56.6739 1.6966L57.108 1.61769C58.2131 1.38095 59.3182 1.14422 60.4232 0.986395L60.8574 0.907483L64.6856 7.06258L66.5011 0.197279H66.9747C68.0008 0.0789116 69.0664 0.0394558 70.132 0H70.6056L73.7234 7.65442L77.1176 0.157823H77.5912C78.4989 0.236735 79.4461 0.355102 80.4328 0.434014H80.9064L82.8797 7.45714L86.4711 1.3415L86.9447 1.42041C88.0893 1.65714 89.1943 1.89388 90.3389 2.17007L90.773 2.28844L91.957 9.35102L96.0615 3.86667L96.5351 4.02449C97.7191 4.4585 98.982 4.93197 100.205 5.40544L100.64 5.56327V12.468L105.533 7.81225L105.968 8.04898C107.191 8.68027 108.375 9.35102 109.48 10.0218L109.875 10.2585L108.691 16.7293L114.216 13.0993L114.611 13.3755C115.44 13.9673 116.308 14.5986 117.216 15.3088L117.571 15.585L115.44 23.0027L122.109 19.5306L122.78 20.2014C123.412 20.7932 124.004 21.385 124.596 22.0163L125.227 22.6476L121.873 29.5918L129.253 27.2245L129.529 27.5796C130.2 28.4082 130.871 29.3156 131.542 30.302L131.818 30.6966L127.319 36.8912L135.133 35.8653L135.37 36.2599C135.844 37.0884 136.317 37.917 136.791 38.8639L137.028 39.298L131.739 44.9007H139.633L139.79 45.2952C140.146 46.1633 140.501 47.1102 140.856 48.1361L141.014 48.6095L134.936 53.1864L142.79 54.4884L142.908 54.9225C143.145 55.8299 143.342 56.7769 143.579 57.8816L143.658 58.3551L137.541 62.0245L144.526 63.9973V64.4707C144.684 65.5755 144.803 66.6803 144.842 67.7061V68.1796L137.975 71.2966L144.961 74.1374V74.6109C144.921 75.7156 144.842 76.8599 144.763 78.0041V78.4776L137.146 80.4898L143.974 84.7116L143.895 85.185C143.737 86.132 143.54 87.1578 143.263 88.302L143.145 88.7755L135.133 89.4068L141.409 95.0095L141.251 95.4435C141.053 96.0748 140.817 96.7456 140.58 97.3769L140.422 97.8109H132.331L137.935 103.729L137.738 104.163C137.304 105.031 136.87 105.899 136.396 106.767L136.159 107.201L128.464 105.899L132.923 112.528L132.647 112.922C132.094 113.712 131.542 114.54 130.91 115.408L130.634 115.803L123.846 113.909L127.122 120.143L126.806 120.498C126.096 121.287 125.346 122.116 124.477 123.023L124.162 123.339L117.452 120.616L120.057 127.205L119.702 127.521C118.755 128.35 117.808 129.139 116.821 129.888L116.426 130.165L110.23 126.337L111.73 133.479L111.335 133.716C110.309 134.347 109.243 134.978 108.217 135.61L107.783 135.846L102.376 130.993L102.573 138.45L102.139 138.648C101.192 139.082 100.245 139.476 99.3767 139.831L98.9426 139.989L93.6146 134.307L93.141 142.001L92.6674 142.12C91.7596 142.396 90.8914 142.633 90.0231 142.83L89.5495 142.948L84.6557 135.491L82.6034 144.25L82.1298 144.329C81.3405 144.448 80.5906 144.527 79.8013 144.605H79.3277L75.6573 137.543L73.0525 145H72.5789C71.6712 145 70.724 145 69.6979 144.961H69.2637L66.4221 137.464L63.0675 144.408L62.5544 144.329C61.4494 144.171 60.3443 144.014 59.2392 143.816L58.7656 143.737L57.2659 136.044L52.8062 142.317L52.3326 142.199C51.2275 141.883 50.1619 141.528 49.0569 141.173L48.5833 141.015L48.4649 133.479L43.0185 138.845L42.5844 138.648C41.6372 138.214 40.7294 137.78 39.9006 137.385L39.4665 137.188L40.0585 130.559L34.9279 134.623L34.5332 134.386C33.3097 133.637 32.1652 132.887 31.0601 132.137L30.6655 131.861L32.3625 125.667L26.6004 128.784L26.2452 128.507C25.298 127.718 24.3508 126.929 23.4431 126.101L23.0879 125.785L25.4559 119.393L19.2991 122.037H19.4965ZM18.273 118.604C18.7861 119.196 19.2991 119.827 19.8517 120.38L28.0212 116.868L24.8639 125.39C25.5348 125.982 26.2058 126.574 26.9162 127.166L34.6911 122.984L32.402 131.348C33.2308 131.901 34.0991 132.493 35.0068 133.045L41.874 127.6L41.0846 136.438C41.6766 136.714 42.2686 137.03 42.9001 137.306L49.9646 130.362L50.1225 140.147C50.8723 140.384 51.6617 140.62 52.4115 140.857L58.1736 132.769L60.1075 142.672C60.8574 142.79 61.6467 142.948 62.3966 143.027L66.6984 134.11L70.3688 143.737C71.0397 143.737 71.6712 143.737 72.2632 143.737L75.5784 134.189L80.2749 143.303C80.709 143.264 81.1826 143.185 81.6168 143.146L84.1821 132.177L90.2994 141.488C90.8519 141.331 91.4044 141.212 91.957 141.054L92.549 131.151L99.4162 138.49C100.048 138.253 100.64 137.977 101.311 137.701L101.034 127.955L108.059 134.268C108.809 133.834 109.559 133.4 110.309 132.927L108.375 123.576L116.466 128.586C117.176 128.034 117.886 127.482 118.557 126.89L115.163 118.249L123.964 121.8C124.556 121.169 125.109 120.577 125.622 120.024L121.281 111.818L130.24 114.303C130.674 113.712 131.068 113.159 131.423 112.646L125.701 104.163L135.567 105.82C135.844 105.268 136.159 104.716 136.436 104.124L129.292 96.6272H139.633C139.751 96.2327 139.869 95.917 139.988 95.5619L132.015 88.4204L142.198 87.5918C142.356 86.8422 142.514 86.132 142.632 85.4612L133.91 80.0558L143.658 77.4912C143.698 76.702 143.737 75.9129 143.777 75.1238L134.739 71.4544L143.658 67.3905C143.619 66.6408 143.54 65.8912 143.461 65.1415L134.265 62.5769L142.277 57.7633C142.119 57.0531 142.001 56.4218 141.843 55.7905L131.7 54.0939L139.554 48.1755C139.317 47.5048 139.08 46.8735 138.843 46.2816H128.7L135.489 39.1007C135.173 38.5088 134.857 37.917 134.541 37.3646L124.477 38.7061L130.279 30.6966C129.805 30.0259 129.332 29.3946 128.858 28.8027L119.347 31.8408L123.688 22.8449C123.136 22.2531 122.544 21.7007 121.952 21.1483L113.308 25.6463L116.071 16.0585C115.44 15.585 114.848 15.1116 114.256 14.717L106.836 19.5701L108.415 10.9293C107.586 10.4558 106.678 9.94286 105.81 9.46939L99.2978 15.6245V6.54966C98.4295 6.19456 97.5218 5.83946 96.614 5.52381L91.1676 12.7442L89.589 3.43265C88.7997 3.23537 87.9709 3.0381 87.1815 2.88027L82.4455 10.8898L79.8408 1.73605C79.1698 1.65714 78.5778 1.61769 77.9858 1.57823L73.6445 11.166L69.6979 1.42041C68.9875 1.42041 68.2771 1.49932 67.5667 1.53878L65.1987 10.5347L60.1864 2.44626C59.3971 2.56463 58.6078 2.72245 57.8184 2.91973L56.2398 12.034L50.7934 4.77415C49.8857 5.05034 48.9779 5.36599 48.1097 5.68163L48.1886 14.8748L41.4004 8.52245C40.5716 8.91701 39.7428 9.35102 38.914 9.78503L40.019 18.5048L32.9545 13.3361C32.1257 13.8884 31.2969 14.4803 30.4681 15.0721L33.1519 23.5946L24.9428 19.5701C24.2324 20.2408 23.4826 20.9116 22.8116 21.5823L26.9162 29.5918L17.8389 26.9483C17.2863 27.5796 16.7733 28.2109 16.2997 28.8422L21.4698 36.5755L12.0373 34.9184C11.7216 35.4313 11.4058 35.9442 11.0901 36.4966L17.8389 44.6245L7.26184 43.9143C6.98557 44.5456 6.70931 45.1769 6.47251 45.8082L13.6159 51.9238L4.02558 52.9102C3.82825 53.6599 3.59145 54.4095 3.43359 55.1592L11.0506 60.6041L2.05226 62.3401C1.93386 63.2871 1.81546 64.1946 1.69706 65.102L10.1034 69.0871L1.30239 72.4803C1.30239 73.5456 1.30239 74.5714 1.38133 75.5973L9.51143 78.3592L1.97333 82.3048C2.13119 83.3701 2.28906 84.4354 2.48639 85.4612L11.0506 86.7633L4.06505 92.1687C4.34132 93.1551 4.65705 94.181 4.97278 95.1279L13.6554 94.9701L7.5381 101.678C7.8933 102.506 8.28797 103.295 8.68263 104.124L17.5626 102.98L12.1952 110.358C12.5504 110.95 12.945 111.541 13.3791 112.133L23.2458 109.766L18.1941 118.525L18.273 118.604ZM31.218 113.869C18.1151 100.77 11.9978 82.0286 14.7605 63.7211L14.8789 62.9714L46.1758 71.3361V71.8884C45.9785 79.1878 48.7017 86.0531 53.8718 91.2218C59.0024 96.351 65.8301 99.1129 73.1315 98.9551H73.684L82.0509 130.244L81.301 130.362C63.028 133.124 44.2814 126.969 31.218 113.909V113.869ZM16.0234 64.7075C13.5765 82.3442 19.6149 100.336 32.2047 112.922C44.7945 125.509 62.7123 131.506 80.3538 129.099L72.6579 100.336C65.1987 100.336 58.2131 97.4952 52.9641 92.2082C47.6755 86.9211 44.7945 79.898 44.834 72.4014L16.0629 64.7075H16.0234ZM92.9042 127.363L84.5373 96.1143L85.0109 95.8776C87.2999 94.6544 89.3917 93.1157 91.2466 91.2612C99.9687 82.5415 101.508 69.166 95.0354 58.6707L94.7591 58.1973L117.65 35.3129L118.123 35.9048C136.909 59.1837 135.094 92.6816 113.9 113.869C108.059 119.709 101.271 124.128 93.6146 127.087L92.9042 127.363ZM86.1159 96.8245L93.8119 125.548C100.995 122.668 107.388 118.446 112.914 112.922C133.436 92.4054 135.331 60.0912 117.492 37.3646L96.4562 58.3946C102.968 69.3238 101.232 83.1728 92.1938 92.2082C90.3783 94.0231 88.3261 95.5619 86.1159 96.8245ZM17.7994 52.1211L18.0757 51.4109C21.0357 43.7959 25.4559 37.0095 31.2575 31.2095C52.3721 10.1007 85.8397 8.24626 109.125 26.9088L109.717 27.3823L86.8263 50.2667L86.3527 49.9905C75.8941 43.5986 62.5544 45.2163 53.9113 53.8571C52.0958 55.6721 50.5566 57.7238 49.3331 60.0122L49.0569 60.4857L17.7994 52.1211ZM107.625 27.5007C84.9319 9.78504 52.6483 11.7578 32.2047 32.1959C26.7188 37.6803 22.4959 44.0721 19.6149 51.2136L48.3465 58.9075C49.5699 56.698 51.1091 54.6857 52.8851 52.9102C61.8835 43.9143 75.6178 42.1782 86.5501 48.5701L107.625 27.5007ZM67.2509 77.8463C64.3304 74.9265 64.3304 70.1524 67.2509 67.2327C70.1715 64.3129 74.9469 64.3129 77.8674 67.2327C80.788 70.1524 80.788 74.9265 77.8674 77.8463C74.9469 80.766 70.1715 80.766 67.2509 77.8463ZM76.9202 68.2191C74.5128 65.8122 70.6451 65.8122 68.2376 68.2191C65.8301 70.6259 65.8301 74.4925 68.2376 76.8993C70.6451 79.3061 74.5128 79.3061 76.9202 76.8993C79.3277 74.4925 79.3277 70.6259 76.9202 68.2191Z" fill="#6F4528"/>
<path d="M129.332 71.77C129.332 70.8625 129.292 69.9551 129.213 69.087L123.056 67.1932L128.7 64.0367C128.582 63.2476 128.463 62.4585 128.305 61.7088L121.241 60.3279L126.964 56.2639C126.727 55.5537 126.529 54.804 126.253 54.0938L118.952 53.936L124.083 48.7673C123.846 48.2938 123.609 47.8204 123.372 47.3074L115.834 47.702L120.491 42.2176C120.057 41.5074 119.583 40.8367 119.11 40.1265L112.085 41.7836L115.637 35.668C115.045 34.9972 114.453 34.3265 113.861 33.6952L107.546 36.3782L109.953 29.9469C109.322 29.3945 108.651 28.8421 108.02 28.3292L102.218 31.604L103.797 25.2911C103.126 24.8571 102.494 24.4231 101.823 24.0285L95.9429 28.2108L96.8901 21.385C96.1797 21.0299 95.4693 20.7142 94.7194 20.3986L89.7072 25.4489L89.5098 18.4653C88.76 18.2285 88.0101 18.0312 87.2602 17.7945L82.9189 23.4761L81.8139 16.6503C80.9456 16.4925 80.0773 16.3741 79.2091 16.2952L76.0123 22.5292L73.7232 15.9401C73.3286 15.9401 72.8944 15.9401 72.4998 15.9401C71.9867 15.9401 71.5131 15.9401 71.0395 15.9401L68.9872 22.4503L65.5931 16.3347C64.7643 16.453 63.8961 16.5714 63.0673 16.6898L61.8043 22.687L58.3707 17.6761C57.3446 17.9523 56.3185 18.2285 55.3318 18.5442L55.1345 24.7387L50.6748 20.2408C49.7276 20.6353 48.7804 21.0693 47.8726 21.5034L48.7409 27.6979L43.4129 23.9102C42.6236 24.3836 41.8737 24.8571 41.1239 25.37L42.742 31.6435L36.9404 28.4476C36.3484 28.921 35.7959 29.3945 35.2039 29.868L37.8087 36.8122L30.981 33.9319C30.4284 34.5238 29.8759 35.1551 29.3234 35.7864L32.5991 41.3891L26.1266 39.8898C25.6135 40.6 25.1399 41.3496 24.6269 42.0993L28.3367 47.3469L22.101 46.4394C21.6274 47.3469 21.1933 48.2544 20.7592 49.1619L25.3373 53.6598L18.8648 53.8966C18.549 54.8435 18.2333 55.7904 17.957 56.7374L22.7719 60.4462L16.8125 61.3537C16.6152 62.3796 16.4178 63.4449 16.26 64.5102L21.7458 67.351L15.7864 69.4027C15.7074 70.4285 15.7074 71.4544 15.668 72.4802L21.6274 74.3741L15.8653 77.5306C15.9442 78.4381 16.0232 79.3455 16.1416 80.2136L22.4957 81.4762L17.0493 85.3034C17.2072 86.0136 17.4045 86.7238 17.5624 87.434L25.0215 88.1047L19.3778 93.0367C19.6541 93.7864 19.9698 94.536 20.2856 95.2857L26.837 94.7728L22.6141 99.9809C23.0482 100.731 23.4429 101.48 23.9165 102.23L30.31 101.165L26.7186 106.452C27.3106 107.241 27.9026 108.03 28.5341 108.78L34.6514 106.609L32.0071 112.607C32.757 113.356 33.5463 114.106 34.3356 114.816L39.6241 112.212L37.8876 117.775C38.7559 118.446 39.6636 119.078 40.5713 119.709L45.3863 116.158L44.6364 122.195C45.5836 122.707 46.5308 123.22 47.5174 123.694L51.7009 119.354L51.9772 125.627C52.8849 125.982 53.7926 126.298 54.7004 126.614L58.4891 121.721L59.4758 127.955C60.2651 128.152 61.0545 128.31 61.8833 128.468L65.5931 122.392L67.448 129.257C68.3163 129.336 69.224 129.375 70.0923 129.415L72.3814 123.694L75.0256 129.415C76.0123 129.375 76.9595 129.297 77.9067 129.218L79.6432 123.418L82.6032 128.586C83.6688 128.389 84.7344 128.152 85.7605 127.916L86.4709 121.879L90.4176 126.574C91.1674 126.337 91.8778 126.061 92.6277 125.785L92.7066 118.841L97.6399 123.615C98.4293 123.22 99.2186 122.786 100.008 122.392L98.8634 115.526L104.744 119.472C105.454 118.959 106.165 118.446 106.875 117.933L104.586 111.384L111.177 114.343C111.729 113.83 112.282 113.317 112.795 112.765L109.717 106.373L116.584 108.582C116.979 108.109 117.334 107.635 117.728 107.122L113.505 100.336L121.28 101.954C121.636 101.322 121.991 100.731 122.346 100.099L117.728 94.8911L124.793 95.1279C125.109 94.4176 125.385 93.668 125.661 92.9578L120.728 88.302L127.319 87.9469C127.556 87.0394 127.792 86.0925 128.029 85.185L122.464 81.5156L128.937 79.9768C129.055 79.0299 129.174 78.0435 129.213 77.0571L123.293 74.4925L129.371 71.9278L129.332 71.77ZM72.5392 67.1932C75.4992 67.1932 77.9067 69.6 77.9067 72.5591C77.9067 75.5183 75.4992 77.9251 72.5392 77.9251C69.5792 77.9251 67.1718 75.5183 67.1718 72.5591C67.1718 69.6 69.5792 67.1932 72.5392 67.1932ZM30.7836 91.0245C28.2973 85.3823 26.9159 79.1483 26.9159 72.5986C26.9159 49.083 44.6759 29.7496 67.527 27.2639V51.8054C58.1339 54.0544 51.1484 62.5374 51.1484 72.5986C51.1484 74.7292 51.4641 76.7809 52.0561 78.7537L30.7836 91.0245ZM72.5392 118.209C57.463 118.209 44.0839 110.871 35.7564 99.5864L57.0289 87.3156C60.9361 91.419 66.4219 93.9836 72.5392 93.9836C78.6565 93.9836 84.1029 91.4585 88.0101 87.3945L109.283 99.6653C100.955 110.91 87.6154 118.209 72.5392 118.209ZM114.295 91.0639L93.0618 78.7932C93.6538 76.8204 93.9695 74.7292 93.9695 72.5591C93.9695 62.419 86.905 53.936 77.4725 51.7265V27.185C100.363 29.6313 118.202 49.004 118.202 72.5591C118.202 79.1483 116.821 85.3823 114.295 91.0639Z" fill="#9B6639"/>
<path d="M70.527 129.888H70.1323C69.2246 129.849 68.3563 129.77 67.4486 129.691H67.0539L65.4358 123.654L62.1995 128.981L61.8443 128.902C60.9761 128.744 60.1867 128.586 59.4369 128.389L59.0817 128.31L58.2529 122.944L55.0166 127.166L54.6614 127.048C53.7142 126.732 52.8065 126.416 51.8988 126.061L51.583 125.943L51.3462 120.577L47.7943 124.286L47.4391 124.128C46.4524 123.654 45.5052 123.141 44.558 122.589L44.2423 122.392L44.8737 117.263L40.7692 120.261L40.4535 120.064C39.5458 119.472 38.638 118.801 37.7303 118.091L37.4146 117.854L38.8748 113.12L34.3756 115.329L34.0994 115.092C33.31 114.382 32.5207 113.633 31.7708 112.843L31.4946 112.567L33.7836 107.399L28.4951 109.292L28.2583 109.016C27.6269 108.267 27.0349 107.478 26.4034 106.649L26.1666 106.333L29.245 101.796L23.7197 102.703L23.5223 102.388C23.0882 101.678 22.6541 100.888 22.2199 100.139L22.0621 99.8231L25.7325 95.3251L20.0888 95.7591L19.9309 95.404C19.6152 94.6544 19.2994 93.9047 19.0232 93.1551L18.9048 92.8L23.8775 88.4598L17.2866 87.868L17.2077 87.5129C17.0104 86.7632 16.813 86.053 16.6552 85.3428L16.5762 84.9877L21.2728 81.6734L15.7869 80.5687V80.1741C15.629 79.3061 15.5106 78.3986 15.4317 77.4517V77.0966L20.365 74.3741L15.2344 72.717V72.3224C15.2344 71.2966 15.2738 70.2312 15.3528 69.2054V68.8503L20.4834 67.0748L15.7869 64.6285V64.234C15.9842 63.1292 16.1816 62.0639 16.3789 61.0775L16.4578 60.7224L21.549 59.9333L17.4445 56.7768L17.5629 56.4217C17.8392 55.4748 18.1549 54.4884 18.4706 53.5809L18.589 53.2258L24.1538 53.0285L20.2072 49.1619L20.365 48.8068C20.7992 47.8993 21.2333 46.9918 21.7069 46.0449L21.8647 45.6897L27.2322 46.4789L24.0354 41.9809L24.2327 41.6653C24.7063 40.9156 25.2194 40.1659 25.7325 39.4557L25.9298 39.1401L31.534 40.4421L28.6925 35.5891L28.9293 35.3129C29.4423 34.6816 29.9949 34.0898 30.5869 33.4585L30.8631 33.1823L36.862 35.7469L34.573 29.6312L34.8492 29.3945C35.4018 28.921 35.9543 28.4476 36.5858 27.9346L36.862 27.6979L41.8743 30.4598L40.4929 25.0544L40.8087 24.8571C41.5585 24.3442 42.3479 23.8707 43.1372 23.3972L43.4529 23.2L48.0705 26.4748L47.3207 21.1088L47.6759 20.951C48.5836 20.517 49.5308 20.0829 50.5174 19.6884L50.8332 19.5306L54.6614 23.3972L54.8193 18.0707L55.1745 17.9523C56.2006 17.6367 57.2268 17.321 58.2529 17.0843L58.6081 17.0054L61.5681 21.2666L62.6337 16.1374L62.9889 16.0585C63.7782 15.9401 64.607 15.8217 65.5147 15.7034H65.8699L68.8299 20.9904L70.6059 15.3088H71.3558C72.0267 15.3088 72.6976 15.2693 73.408 15.3088H74.1184L76.1312 21.1088L78.9333 15.6639H79.2885C80.1173 15.8217 80.9856 15.9401 81.9328 16.0979L82.3275 16.1768L83.2747 22.1741L87.0634 17.2027L87.4186 17.2816C88.129 17.4789 88.8789 17.6761 89.6682 17.9523L90.0234 18.0707L90.2208 24.1469L94.6015 19.7278L94.9567 19.8857C95.6277 20.1619 96.3381 20.517 97.1274 20.8721L97.4826 21.0299L96.6538 26.9877L101.784 23.3183L102.1 23.5156C102.732 23.9102 103.403 24.3047 104.113 24.7782L104.429 24.9755L103.047 30.4598L108.06 27.6585L108.336 27.8952C109.007 28.4476 109.678 29 110.309 29.5523L110.585 29.7891L108.494 35.3918L113.98 33.0639L114.256 33.3401C114.848 33.9714 115.479 34.6421 116.071 35.3523L116.308 35.6285L113.19 40.9945L119.347 39.5346L119.544 39.8503C119.979 40.4816 120.452 41.1523 120.926 41.9415L121.123 42.2966L117.019 47.1102L123.649 46.7551L123.807 47.0707C124.044 47.5442 124.28 48.0176 124.517 48.5306L124.675 48.8857L120.176 53.4231L126.609 53.5809L126.727 53.936C126.964 54.6462 127.201 55.3959 127.438 56.1061L127.556 56.4612L122.544 60.0517L128.74 61.2748L128.819 61.6299C128.977 62.3795 129.095 63.1687 129.214 63.9972V64.3523L124.399 67.0748L129.727 68.7319V69.087C129.806 69.9156 129.845 70.8231 129.845 71.8095V72.1646L124.596 74.3741L129.727 76.6231V77.0176C129.608 78.004 129.529 78.9904 129.411 79.9374V80.2925L123.767 81.5945L128.582 84.751L128.503 85.1061C128.306 86.053 128.069 87 127.793 87.9074L127.674 88.2625L121.952 88.5782L126.254 92.6421L126.135 92.9972C125.859 93.7469 125.543 94.4966 125.228 95.2068L125.07 95.5619L118.913 95.3646L122.938 99.902L122.741 100.218C122.386 100.849 122.031 101.48 121.676 102.112L121.478 102.427L114.572 101.007L118.321 107.043L118.084 107.359C117.689 107.833 117.334 108.346 116.94 108.819L116.703 109.095L110.664 107.162L113.388 112.765L113.111 113.041C112.598 113.554 112.085 114.067 111.454 114.619L111.177 114.856L105.415 112.252L107.428 118.012L107.112 118.249C106.402 118.762 105.692 119.314 104.981 119.788L104.666 119.985L99.5349 116.513L100.561 122.51L100.245 122.707C99.4559 123.141 98.6666 123.575 97.8378 123.97L97.4826 124.128L93.1807 119.985L93.1018 126.022L92.7466 126.14C91.9967 126.416 91.2469 126.692 90.5365 126.929L90.1813 127.048L86.8266 123.023L86.2346 128.192L85.8794 128.271C84.7744 128.547 83.7088 128.744 82.6827 128.941L82.288 129.02L79.7621 124.601L78.2624 129.573H77.9072C76.96 129.691 75.9733 129.77 74.9867 129.809H74.6315L72.3819 124.917L70.448 129.809L70.527 129.888ZM67.9222 128.626C68.5536 128.665 69.1851 128.705 69.8166 128.744L72.4214 122.195L75.4208 128.705C76.1312 128.705 76.8416 128.626 77.552 128.547L79.5648 121.879L82.9589 127.797C83.7482 127.639 84.5376 127.482 85.3664 127.284L86.1557 120.38L90.6549 125.746C91.1285 125.588 91.6415 125.39 92.1546 125.233L92.2336 117.42L97.7983 122.786C98.3509 122.51 98.9034 122.195 99.4559 121.918L98.1535 114.185L104.784 118.643C105.297 118.288 105.771 117.933 106.284 117.578L103.679 110.2L111.099 113.514C111.493 113.159 111.848 112.804 112.164 112.488L108.691 105.307L116.427 107.793C116.663 107.517 116.861 107.241 117.097 106.925L112.401 99.3891L121.005 101.165C121.241 100.77 121.478 100.375 121.676 99.9809L116.466 94.102L124.399 94.3782C124.596 93.9047 124.793 93.3918 124.991 92.8789L119.387 87.5918L126.846 87.1972C127.043 86.5265 127.201 85.8557 127.359 85.185L121.044 81.0421L128.385 79.3061C128.464 78.5959 128.543 77.8857 128.582 77.1755L121.833 74.2557L128.74 71.336C128.74 70.6653 128.74 69.9945 128.661 69.4027L121.636 67.2326L128.03 63.6421C127.951 63.0898 127.832 62.5768 127.753 62.0639L119.821 60.5251L126.254 55.9483C126.096 55.4748 125.938 55.0013 125.78 54.5278L117.611 54.3306L123.373 48.5306C123.254 48.2544 123.136 48.0176 122.978 47.7415L114.532 48.2149L119.742 42.0993C119.426 41.5863 119.11 41.1129 118.795 40.6789L110.901 42.5333L114.927 35.668C114.532 35.1945 114.098 34.721 113.664 34.287L106.56 37.2857L109.283 30.0258C108.849 29.6312 108.375 29.2761 107.902 28.8816L101.35 32.5904L103.166 25.4095C102.692 25.0938 102.258 24.8176 101.824 24.5414L95.233 29.2367L96.2986 21.5428C95.7855 21.3061 95.3119 21.0693 94.8383 20.8721L89.1946 26.5537L88.9578 18.702C88.4448 18.5442 87.9317 18.3863 87.4581 18.268L82.5642 24.6598L81.3408 16.9659C80.7093 16.8476 80.0779 16.7687 79.4859 16.6897L75.8944 23.7129L73.2896 16.2952C72.6582 16.2952 72.0267 16.2952 71.3952 16.2952L69.0667 23.634L65.2385 16.7292C64.607 16.8081 64.015 16.887 63.4625 16.9659L62.0417 23.8312L58.095 18.1102C57.3451 18.3074 56.5953 18.5442 55.806 18.7809L55.6086 25.8829L50.5174 20.7537C49.807 21.0693 49.0966 21.385 48.4257 21.7006L49.4124 28.7632L43.3345 24.4231C42.782 24.7782 42.2295 25.0938 41.6769 25.4489L43.4924 32.551L36.941 28.921C36.5463 29.2367 36.1516 29.5523 35.7964 29.868L38.717 37.6408L31.0604 34.4054C30.6658 34.8394 30.3106 35.234 29.9554 35.668L33.6652 42.0204L26.3245 40.2843C25.9693 40.7972 25.6141 41.3102 25.2589 41.8625L29.4818 47.8204L22.3778 46.7945C22.0226 47.4653 21.7069 48.136 21.3912 48.8068L26.5613 53.8965L19.2205 54.1333C18.9837 54.8435 18.7469 55.5537 18.5496 56.2244L24.0354 60.4857L17.2077 61.551C17.0498 62.3006 16.9314 63.0898 16.813 63.9183L23.0487 67.1932L16.221 69.521C16.1816 70.3102 16.1421 71.0598 16.1421 71.8095L22.8909 73.9795L16.3394 77.57C16.3789 78.2408 16.4578 78.8721 16.5368 79.5034L23.7591 80.9632L17.5629 85.3034C17.6813 85.7768 17.7997 86.2503 17.9181 86.7238L26.2455 87.4734L19.9704 92.9972C20.1677 93.5102 20.365 94.0231 20.6018 94.4966L28.0215 93.9047L23.2461 99.8231C23.5618 100.375 23.8381 100.888 24.1538 101.401L31.4551 100.178L27.3901 106.175C27.8242 106.767 28.2978 107.359 28.7319 107.912L35.678 105.426L32.6391 112.252C33.2311 112.843 33.8231 113.396 34.4151 113.948L40.4929 110.95L38.4802 117.341C39.1511 117.854 39.8615 118.367 40.5324 118.801L46.0577 114.737L45.1895 121.642C45.8999 122.037 46.6497 122.431 47.3601 122.786L52.1356 117.854L52.4513 125.035C53.1222 125.272 53.7932 125.509 54.4641 125.746L58.7659 120.143L59.871 127.284C60.4235 127.403 60.9366 127.521 61.5286 127.639L65.7121 120.814L67.7643 128.507L67.9222 128.626ZM72.5398 118.762C57.9371 118.762 44.0055 111.739 35.3228 99.9415L34.9676 99.468L57.1084 86.6843L57.3846 87C61.3707 91.1823 66.7382 93.5102 72.5003 93.5102C78.2624 93.5102 83.5904 91.2217 87.5765 87.0789L87.8528 86.7632L110.033 99.5469L109.678 100.02C100.995 111.778 87.1029 118.801 72.5003 118.801L72.5398 118.762ZM36.5858 99.7836C45.0711 110.989 58.4897 117.697 72.5792 117.697C86.6688 117.697 100.008 111.029 108.533 99.8625L88.1685 88.1047C84.0245 92.287 78.4992 94.5755 72.6187 94.5755C66.7382 94.5755 61.1734 92.2476 56.9899 88.0653L36.6252 99.8231L36.5858 99.7836ZM114.532 91.853L92.3914 79.0693L92.5098 78.6748C93.1018 76.702 93.4175 74.6503 93.4175 72.5986C93.4175 62.853 86.7872 54.5278 77.3152 52.2789L76.8811 52.2V26.6326L77.4731 26.7115C100.956 29.2367 118.676 48.9646 118.676 72.5986C118.676 79.1088 117.334 85.3823 114.729 91.3006L114.493 91.853H114.532ZM93.6938 78.5564L114.059 90.3142C116.466 84.7115 117.689 78.7537 117.689 72.5986C117.689 49.6748 100.679 30.5387 78.0256 27.8163V51.3319C87.7738 53.8176 94.5226 62.4979 94.5226 72.5986C94.5226 74.6108 94.2463 76.6231 93.6938 78.5564ZM30.5474 91.7741L30.3106 91.2217C27.7058 85.3428 26.4034 79.0693 26.4034 72.5986C26.4034 49.004 44.0844 29.2761 67.488 26.7115L68.08 26.6326V52.2L67.6854 52.3183C58.2923 54.5673 51.7409 62.9319 51.7409 72.5986C51.7409 74.6108 52.0172 76.6625 52.6092 78.5959L52.7276 78.9904L30.5869 91.7741H30.5474ZM66.975 27.8557C44.4001 30.6176 27.469 49.7537 27.469 72.5986C27.469 78.7142 28.6925 84.6721 31.0604 90.2353L51.4252 78.4775C50.8726 76.5442 50.6358 74.5714 50.6358 72.5986C50.6358 62.5768 57.3451 53.8966 67.0144 51.3714V27.8557H66.975ZM72.5398 78.517C69.264 78.517 66.6198 75.8734 66.6198 72.5986C66.6198 69.3238 69.264 66.6802 72.5398 66.6802C75.8155 66.6802 78.4597 69.3238 78.4597 72.5986C78.4597 75.8734 75.8155 78.517 72.5398 78.517ZM72.5398 67.7455C69.856 67.7455 67.6854 69.9156 67.6854 72.5986C67.6854 75.2816 69.856 77.4517 72.5398 77.4517C75.2235 77.4517 77.3941 75.2816 77.3941 72.5986C77.3941 69.9156 75.2235 67.7455 72.5398 67.7455Z" fill="#9B6639"/>
<path d="M70.5263 129.494H70.1316C69.2633 129.454 68.3556 129.376 67.4479 129.297H67.0927L65.4745 123.299L62.2383 128.586L61.8831 128.507C61.0148 128.35 60.2255 128.192 59.4756 127.995L59.1204 127.916L58.2916 122.589L55.0949 126.771L54.7397 126.653C53.7925 126.337 52.8847 126.022 51.977 125.667L51.6613 125.548L51.4245 120.222L47.8725 123.891L47.5173 123.733C46.5701 123.26 45.5834 122.747 44.6362 122.234L44.3205 122.076L44.952 116.947L40.8869 119.946L40.5712 119.748C39.7029 119.156 38.7952 118.486 37.8875 117.815L37.5717 117.578L39.032 112.883L34.5723 115.093L34.296 114.856C33.5067 114.146 32.7173 113.396 31.9675 112.607L31.6912 112.331L33.9803 107.162L28.7312 109.016L28.4944 108.74C27.863 107.99 27.271 107.201 26.679 106.373L26.4422 106.057L29.5205 101.52L24.0347 102.427L23.8374 102.112C23.4032 101.401 22.9691 100.652 22.535 99.8626L22.3771 99.5469L26.008 95.049L20.3643 95.483L20.2064 95.1279C19.8907 94.3782 19.575 93.6286 19.2987 92.8789L19.1803 92.5238L24.1136 88.2231L17.6017 87.6313L17.5227 87.2762C17.3254 86.5265 17.1675 85.8163 17.0097 85.1061L16.9307 84.751L21.6272 81.4762L16.1414 80.3714V79.9769C15.9835 79.1088 15.8651 78.2014 15.7862 77.2939V76.9388L20.68 74.2558L15.5889 72.6381V72.2435C15.5889 71.2177 15.6283 70.1918 15.7073 69.1265V68.7714L20.8379 67.0354L16.1809 64.5891V64.1946C16.3782 63.0898 16.5755 62.0639 16.7729 61.0381L16.8518 60.683L21.9035 59.8939L17.8385 56.7374L17.9569 56.3823C18.2331 55.4354 18.5489 54.4884 18.8646 53.5415L18.983 53.1864L24.5083 52.9891L20.6011 49.1619L20.759 48.8068C21.1536 47.8993 21.6272 46.9918 22.1008 46.0844L22.2587 45.7293L27.5867 46.5184L24.4294 42.0204L24.6267 41.7048C25.1003 40.9551 25.6134 40.2054 26.1264 39.4952L26.3238 39.219L31.8885 40.5211L29.0864 35.7075L29.3232 35.4313C29.8363 34.8395 30.3888 34.2082 30.9808 33.5769L31.2176 33.3007L37.1771 35.8258L34.888 29.7497L35.1643 29.5129C35.7168 29.0395 36.2693 28.566 36.9008 28.0531L37.1771 27.8163L42.1498 30.5782L40.7685 25.2122L41.0842 25.015C41.8341 24.502 42.6234 24.0286 43.3733 23.5551L43.689 23.3578L48.2671 26.6327L47.5173 21.3061L47.8725 21.1483C48.7802 20.7143 49.7274 20.2803 50.6746 19.8857L50.9903 19.7279L54.8186 23.5551L54.9765 18.268L55.3317 18.1497C56.3578 17.834 57.3839 17.5184 58.3706 17.2816L58.7258 17.2027L61.6463 21.4245L62.7119 16.3347L63.0671 16.2558C63.8564 16.1374 64.6852 16.019 65.5929 15.9007H65.9481L68.8687 21.1483L70.6447 15.5061H71.3945C72.0655 15.5061 72.7364 15.4667 73.4073 15.5061H74.1177L76.1305 21.2667L78.9326 15.8612H79.2878C80.1166 16.019 80.9849 16.1374 81.9321 16.2952L82.3267 16.3741L83.2739 22.332L87.0233 17.4L87.3785 17.4789C88.0889 17.6762 88.8387 17.8735 89.628 18.1497L89.9832 18.268L90.1806 24.3048L94.5219 19.9252L94.8376 20.083C95.5086 20.3592 96.219 20.6748 97.0083 21.0694L97.3635 21.2272L96.5347 27.1456L101.626 23.5156L101.942 23.7129C102.573 24.1075 103.205 24.502 103.954 24.9755L104.27 25.1728L102.889 30.6177L107.862 27.8163L108.138 28.0531C108.809 28.6054 109.48 29.1578 110.111 29.7102L110.387 29.9469L108.296 35.5102L113.742 33.1823L113.979 33.4585C114.571 34.0898 115.202 34.7605 115.755 35.4313L115.992 35.7075L112.874 41.034L118.991 39.5742L119.188 39.8898C119.623 40.5211 120.057 41.1918 120.57 41.981L120.767 42.2966L116.702 47.0707L123.293 46.7156L123.451 47.0313C123.688 47.5048 123.924 47.9782 124.161 48.4912L124.319 48.8463L119.82 53.3442L126.214 53.502L126.332 53.8571C126.569 54.5673 126.806 55.317 127.042 56.0272L127.161 56.3823L122.188 59.9333L128.345 61.117L128.424 61.4721C128.582 62.2218 128.7 62.9714 128.818 63.8395V64.1946L124.043 66.917L129.331 68.5347V68.8898C129.41 69.7184 129.45 70.6258 129.45 71.6122V71.9673L124.24 74.1769L129.331 76.3864V76.781C129.213 77.7673 129.134 78.7143 129.016 79.7007V80.0558L123.372 81.3578L128.187 84.5143L128.108 84.8694C127.911 85.8163 127.674 86.7238 127.397 87.6313L127.279 87.9864L121.596 88.302L125.858 92.3265L125.74 92.6422C125.464 93.3918 125.148 94.1415 124.872 94.8517L124.714 95.2068L118.596 95.0095L122.622 99.5469L122.425 99.8626C122.07 100.494 121.714 101.125 121.359 101.717L121.162 102.033L114.295 100.612L118.044 106.61L117.807 106.886C117.452 107.359 117.057 107.872 116.663 108.346L116.426 108.622L110.427 106.688L113.111 112.252L112.834 112.528C112.321 113.041 111.808 113.554 111.216 114.106L110.94 114.343L105.217 111.778L107.23 117.499L106.914 117.736C106.204 118.249 105.494 118.801 104.783 119.275L104.467 119.472L99.3763 116.039L100.402 121.997L100.087 122.195C99.2973 122.629 98.508 123.063 97.7187 123.457L97.3635 123.615L93.1011 119.472V125.469L92.7064 125.588C91.9566 125.864 91.2067 126.14 90.4963 126.377L90.1411 126.495L86.7865 122.51L86.1945 127.639L85.8393 127.718C84.7737 127.995 83.6686 128.192 82.6425 128.389L82.2873 128.468L79.7614 124.088L78.3012 129.02H77.946C76.9988 129.139 76.0121 129.218 75.0649 129.257H74.7097L72.4601 124.404L70.5263 129.297V129.494ZM67.9609 128.271C68.5924 128.31 69.2239 128.35 69.8159 128.389L72.3812 121.918L75.3806 128.389C76.091 128.389 76.8014 128.31 77.5118 128.231L79.4852 121.603L82.8398 127.482C83.6291 127.324 84.4185 127.166 85.2078 126.969L85.9971 120.103L90.4963 125.469C90.9699 125.312 91.483 125.114 91.9566 124.956L92.0355 117.184L97.5608 122.51C98.1133 122.234 98.6659 121.918 99.2184 121.642L97.916 113.948L104.507 118.367C105.02 118.012 105.494 117.657 106.007 117.302L103.441 109.963L110.822 113.278C111.216 112.922 111.571 112.567 111.887 112.252L108.454 105.11L116.11 107.556C116.347 107.28 116.544 107.004 116.781 106.728L112.124 99.2313L120.688 101.007C120.925 100.612 121.162 100.218 121.359 99.8231L116.189 93.9837L124.082 94.2599C124.28 93.7864 124.477 93.2735 124.674 92.7605L119.11 87.5129L126.529 87.1184C126.687 86.4476 126.884 85.7769 127.042 85.1456L120.767 81.0422L128.068 79.3456C128.147 78.6354 128.226 77.9252 128.266 77.2544L121.556 74.3347L128.424 71.415C128.424 70.7442 128.424 70.1129 128.345 69.4816L121.399 67.351L127.753 63.7605C127.674 63.2082 127.555 62.6952 127.476 62.1823L119.583 60.6435L125.977 56.1061C125.819 55.6327 125.661 55.1592 125.503 54.6857L117.373 54.4884L123.096 48.7279C122.977 48.4517 122.859 48.215 122.74 47.9782L114.374 48.4122L119.583 42.3361C119.267 41.8231 118.952 41.3497 118.636 40.9156L110.782 42.7701L114.768 35.9442C114.374 35.4708 113.939 34.9973 113.505 34.5633L106.441 37.5619L109.125 30.3415C108.69 29.9469 108.217 29.5918 107.783 29.1973L101.271 32.8667L103.047 25.7646C102.573 25.449 102.139 25.1728 101.705 24.8966L95.1534 29.5918L96.219 21.9769C95.7059 21.7401 95.2323 21.5034 94.7587 21.3061L89.1544 26.9483L88.9177 19.1755C88.4046 19.0177 87.8915 18.8599 87.4179 18.7415L82.5635 25.0939L81.3401 17.4395C80.7086 17.3211 80.1166 17.2422 79.5246 17.1633L75.9332 24.1075L73.3679 16.7293C72.7364 16.7293 72.1049 16.7293 71.4735 16.7293L69.1844 24.0286L65.3956 17.2027C64.7641 17.2816 64.2116 17.3605 63.6591 17.4395L62.2383 24.2653L58.3311 18.5837C57.5812 18.781 56.8314 18.9782 56.0815 19.215L55.8842 26.2381L50.793 21.1483C50.0826 21.4639 49.3722 21.7796 48.7013 22.0952L49.6879 29.1184L43.6496 24.8177C43.097 25.1333 42.5445 25.4884 42.0314 25.8435L43.8469 32.9061L37.3349 29.2762C36.9403 29.5918 36.5456 29.9075 36.1904 30.2231L39.1109 37.9565L31.5333 34.7605C31.1387 35.1946 30.7835 35.5891 30.4283 35.9837L34.0987 42.2966L26.7974 40.6C26.4422 41.1129 26.087 41.6259 25.7318 42.1388L29.9152 48.0571L22.8507 47.0313C22.4955 47.702 22.1798 48.3728 21.864 49.0435L27.0342 54.0939L19.7329 54.3306C19.4961 55.0408 19.2593 55.7116 19.0619 56.4218L24.5083 60.6435L17.7201 61.7088C17.5622 62.4585 17.4438 63.2476 17.3254 64.0367L23.5216 67.2721L16.7334 69.6C16.6939 70.3497 16.6545 71.1388 16.6545 71.8884L23.3638 74.0585L16.8518 77.6095C16.8913 78.2408 16.9702 78.9116 17.0491 79.5429L24.232 81.0027L18.0753 85.3034C18.1937 85.7769 18.3121 86.2503 18.4305 86.7238L26.7184 87.4735L20.4827 92.9578C20.68 93.4707 20.8774 93.9837 21.1142 94.4571L28.455 93.8653L23.6795 99.7442C23.9952 100.297 24.2715 100.81 24.5872 101.322L31.8491 100.099L27.8235 106.057C28.2576 106.649 28.7312 107.241 29.1653 107.754L36.072 105.307L33.0725 112.094C33.6645 112.686 34.2565 113.238 34.8485 113.79L40.8869 110.831L38.9136 117.184C39.5845 117.697 40.2554 118.21 40.9264 118.644L46.4122 114.619L45.544 121.484C46.2544 121.879 46.9648 122.273 47.7146 122.629L52.4506 117.736L52.7663 124.838C53.4373 125.075 54.1082 125.312 54.7791 125.548L59.0415 119.985L60.1466 127.048C60.6596 127.166 61.2122 127.284 61.8042 127.403L65.9481 120.616L68.0004 128.271H67.9609ZM72.539 118.446C58.0154 118.446 44.2021 111.463 35.5589 99.7442L35.2037 99.2707L57.226 86.566L57.5023 86.8816C61.449 91.0245 66.7769 93.3524 72.539 93.3524C78.3012 93.3524 83.5502 91.0639 87.4969 86.9605L87.7731 86.6449L109.795 99.3497L109.44 99.8231C100.797 111.502 87.0233 118.486 72.4996 118.486L72.539 118.446ZM36.7824 99.5864C45.2282 110.752 58.5284 117.381 72.539 117.381C86.5497 117.381 99.8104 110.752 108.256 99.6653L88.0099 87.9864C83.8659 92.1293 78.4196 94.4177 72.539 94.4177C66.6585 94.4177 61.1727 92.1293 57.0287 87.9469L36.7824 99.6258V99.5864ZM114.255 91.7347L92.2723 79.0299L92.3907 78.6354C92.9827 76.702 93.2984 74.6503 93.2984 72.5986C93.2984 62.932 86.7075 54.6463 77.3145 52.4367L76.9198 52.3578V26.9483L77.5118 27.0272C100.876 29.5129 118.478 49.1224 118.478 72.6381C118.478 79.1088 117.176 85.3429 114.571 91.2218L114.334 91.7741L114.255 91.7347ZM93.5352 78.517L113.742 90.1959C116.11 84.6327 117.334 78.7143 117.334 72.5986C117.334 49.8326 100.442 30.815 77.946 28.132V51.4898C87.6153 53.9361 94.364 62.5769 94.364 72.5986C94.364 74.6109 94.0878 76.5837 93.5352 78.517ZM30.7835 91.6558L30.5467 91.1034C27.9814 85.2639 26.6395 79.0299 26.6395 72.5986C26.6395 49.1619 44.2021 29.5524 67.4479 27.0272L68.0399 26.9483V52.3578L67.6452 52.4762C58.2916 54.7252 51.7797 63.0109 51.7797 72.6381C51.7797 74.6503 52.0559 76.6626 52.6479 78.5959L52.7663 78.9905L30.744 91.6952L30.7835 91.6558ZM67.0137 28.132C44.5968 30.8939 27.7446 49.9116 27.7446 72.5986C27.7446 78.6748 28.9285 84.5932 31.2965 90.117L51.5429 78.4381C51.0298 76.5442 50.7535 74.5714 50.7535 72.5986C50.7535 62.6163 57.4234 54.015 67.0137 51.5293V28.1714V28.132ZM72.539 78.4775C69.3028 78.4775 66.6585 75.834 66.6585 72.5986C66.6585 69.3633 69.3028 66.7197 72.539 66.7197C75.7753 66.7197 78.4196 69.3633 78.4196 72.5986C78.4196 75.834 75.7753 78.4775 72.539 78.4775ZM72.539 67.785C69.8948 67.785 67.7241 69.9551 67.7241 72.5986C67.7241 75.2422 69.8948 77.4122 72.539 77.4122C75.1833 77.4122 77.354 75.2422 77.354 72.5986C77.354 69.9551 75.1833 67.785 72.539 67.785Z" fill="#FDE1BD"/>
<path d="M97.4028 72.204C97.4028 71.8095 97.4028 71.4149 97.3633 71.0203L94.6796 70.1918L97.1265 68.8108C97.0871 68.4557 97.0081 68.1401 96.9687 67.785L93.8903 67.1931L96.3767 65.4176C96.2977 65.102 96.1793 64.7863 96.0609 64.4707L92.8641 64.3918L95.1137 62.1428C94.9953 61.9455 94.9164 61.7088 94.798 61.5115L91.4828 61.6693L93.5351 59.2625C93.3377 58.9469 93.1404 58.6312 92.9431 58.355L89.8647 59.0652L91.4433 56.3822C91.2065 56.106 90.9303 55.7904 90.654 55.5142L87.8914 56.6979L88.957 53.8965C88.6807 53.6598 88.4044 53.4231 88.0887 53.1863L85.5628 54.6067L86.2732 51.8448C85.997 51.6475 85.6812 51.4503 85.405 51.2924L82.8396 53.1074L83.2738 50.1088C82.958 49.9509 82.6423 49.8326 82.3266 49.6748L80.1164 51.8843L80.0375 48.8462C79.7218 48.7278 79.4061 48.6489 79.0509 48.57L77.1565 51.0557L76.6829 48.0571C76.2882 47.9782 75.933 47.9387 75.5383 47.8992L74.1175 50.6217L73.0914 47.7414C73.0914 47.7414 72.7362 47.7414 72.5389 47.7414C72.3415 47.7414 72.1047 47.7414 71.9074 47.7414L70.9997 50.5822L69.5394 47.8992C69.1842 47.9387 68.7896 47.9782 68.4344 48.0571L67.8818 50.6612L66.3821 48.4911C65.948 48.6095 65.4744 48.7278 65.0402 48.8856L64.9613 51.6081L62.988 49.6353C62.5538 49.7931 62.1592 49.9904 61.7645 50.1877L62.1592 52.9101L59.8307 51.253C59.4755 51.4503 59.1597 51.6475 58.844 51.8843L59.5544 54.6067L57.0285 53.1863C56.7917 53.3836 56.5155 53.5809 56.2787 53.8176L57.4232 56.8557L54.4237 55.5931C54.1869 55.8693 53.9501 56.106 53.7133 56.3822L55.1341 58.8285L52.2926 58.1577C52.0558 58.4734 51.8584 58.789 51.6611 59.1047L53.2792 61.3931L50.556 60.9986C50.3587 61.3931 50.1614 61.7877 49.964 62.1822L51.9768 64.155L49.1352 64.2339C48.9774 64.6285 48.859 65.0625 48.7406 65.4571L50.8323 67.0748L48.2275 67.4693C48.1486 67.9033 48.0696 68.3768 47.9907 68.8503L50.3982 70.1129L47.7934 71.0203C47.7934 71.4543 47.7539 71.9278 47.7539 72.3618L50.3587 73.1904L47.8328 74.5714C47.8328 74.9659 47.9118 75.3605 47.9512 75.755L50.7534 76.3074L48.3854 77.9646C48.4643 78.2802 48.5432 78.5958 48.6222 78.9115L51.8979 79.2271L49.451 81.3972C49.5694 81.7129 49.7272 82.068 49.8456 82.3836L52.6872 82.1469L50.8323 84.4353C51.0296 84.7509 51.1875 85.106 51.3848 85.4217L54.1869 84.9482L52.6083 87.2761C52.8846 87.6312 53.1213 87.9863 53.3976 88.302L56.0813 87.355L54.9368 89.9986C55.2525 90.3142 55.6077 90.6693 55.9629 90.985L58.2915 89.8407L57.5416 92.287C57.9363 92.5632 58.3309 92.8788 58.7256 93.155L60.8173 91.6162L60.5016 94.2598C60.8963 94.4965 61.3304 94.6938 61.7645 94.9305L63.58 93.0367L63.6984 95.7591C64.093 95.9169 64.4877 96.0353 64.8824 96.1931L66.54 94.0625L66.9741 96.785C67.3293 96.8639 67.6845 96.9428 68.0397 97.0217L69.6578 94.3782L70.4472 97.3768C70.8418 97.3768 71.2365 97.4557 71.6311 97.4557L72.6178 94.97L73.7623 97.4557C74.1965 97.4557 74.5911 97.4163 75.0253 97.3768L75.7751 94.8122L77.0775 97.0611C77.5511 96.9822 78.0247 96.8639 78.4589 96.785L78.7746 94.1414L80.5111 96.1931C80.8268 96.0748 81.1426 95.9564 81.4583 95.838V92.7999L83.629 94.8911C83.9842 94.7333 84.3394 94.536 84.6551 94.3387L84.142 91.3401L86.7074 93.0761C87.0231 92.8394 87.3388 92.6421 87.6545 92.4054L86.6284 89.5251L89.5095 90.8271C89.7463 90.5904 89.9831 90.3931 90.2199 90.1564L88.878 87.355L91.8775 88.302C92.0353 88.1047 92.1932 87.868 92.3905 87.6707L90.5356 84.7115L93.9297 85.4217C94.0876 85.1455 94.2455 84.8693 94.4033 84.5931L92.3905 82.3047L95.4689 82.4231C95.5873 82.1074 95.7452 81.7918 95.8636 81.4761L93.6929 79.4244L96.574 79.2666C96.6924 78.872 96.7713 78.4775 96.8897 78.0435L94.4428 76.4652L97.2844 75.7945C97.3238 75.3605 97.3633 74.9659 97.4028 74.5319L94.798 73.3877L97.4423 72.2435L97.4028 72.204ZM72.5389 70.2312C73.8413 70.2312 74.9069 71.2965 74.9069 72.5986C74.9069 73.9006 73.8413 74.9659 72.5389 74.9659C71.2365 74.9659 70.1709 73.9006 70.1709 72.5986C70.1709 71.2965 71.2365 70.2312 72.5389 70.2312ZM54.2659 80.6475C53.1608 78.2013 52.5688 75.4394 52.5688 72.5986C52.5688 62.3006 60.3437 53.8571 70.3288 52.7523V63.4843C66.2242 64.4707 63.1458 68.1795 63.1458 72.5986C63.1458 73.5455 63.3037 74.453 63.5405 75.2816L54.2264 80.6475H54.2659ZM72.5389 92.5632C65.948 92.5632 60.0675 89.3673 56.4365 84.4353L65.7506 79.0693C67.4477 80.8448 69.8552 81.989 72.5389 81.989C75.2226 81.989 77.5906 80.8843 79.2877 79.1088L88.6018 84.4748C84.9708 89.4067 79.1298 92.6026 72.5389 92.6026V92.5632ZM90.8119 80.687L81.4978 75.321C81.774 74.453 81.8924 73.5455 81.8924 72.5986C81.8924 68.1795 78.8141 64.4312 74.6701 63.4843V52.7523C84.6946 53.8176 92.5089 62.3006 92.5089 72.5986C92.5089 75.4788 91.9169 78.2013 90.8119 80.687Z" fill="#DCA64F"/>
<path d="M71.6707 97.6531H71.5129C71.1182 97.6531 70.7236 97.6136 70.3289 97.5741H70.171L69.4606 94.9306L68.0398 97.2585H67.882C67.4873 97.1401 67.1716 97.1007 66.8164 97.0218H66.6585L66.3033 94.6544L64.8825 96.5088H64.7246C64.33 96.3116 63.8958 96.1932 63.5012 96.0354H63.3433L63.2249 93.6286L61.6463 95.2463L61.4884 95.1673C61.0543 94.9701 60.6201 94.7333 60.2255 94.4966L60.0676 94.4177L60.3439 92.1687L58.5679 93.4707L58.41 93.3918C58.0153 93.1156 57.6207 92.8395 57.226 92.5238L57.1076 92.4054L57.7391 90.3537L55.7657 91.3007L55.6473 91.1823C55.2921 90.8667 54.9764 90.551 54.6212 90.1959L54.5028 90.0775L55.4895 87.7891L53.161 88.6177L53.0426 88.4993C52.7663 88.1837 52.49 87.8286 52.2532 87.4735L52.1348 87.3551L53.4767 85.3429L51.0692 85.7374L50.9903 85.619C50.793 85.3034 50.5956 84.9878 50.4378 84.6327L50.3588 84.4748L51.977 82.502L49.4906 82.6993L49.4116 82.5415C49.2538 82.2258 49.1354 81.8707 49.017 81.5551V81.3973L51.1482 79.5034L48.2671 79.2272V79.0694C48.1487 78.7537 48.0698 78.4381 47.9908 78.1225V77.9646L50.0036 76.5048L47.5962 76.0313V75.8735C47.5172 75.4789 47.4778 75.0844 47.4383 74.6898V74.532L49.609 73.3483L47.3594 72.6381V72.4803C47.3594 72.0463 47.3594 71.5728 47.3988 71.0993V70.9415L49.6484 70.1524L47.5962 69.0871V68.9292C47.6751 68.4558 47.754 67.9823 47.8724 67.5483V67.3905L50.122 67.0354L48.346 65.6544V65.4966C48.5039 65.0626 48.6618 64.668 48.7802 64.234V64.0762L51.2666 63.9973L49.53 62.3007L49.609 62.1429C49.8063 61.7483 50.0036 61.3537 50.201 60.9592L50.2799 60.8014L52.6084 61.1565L51.2271 59.1837L51.306 59.0653C51.5034 58.7497 51.7402 58.3946 51.977 58.0789L52.0559 57.9605L54.5028 58.5524L53.2794 56.4218L53.3978 56.3034C53.6345 56.0272 53.8714 55.751 54.1081 55.4748L54.2265 55.3565L56.8708 56.4612L55.8447 53.7782L55.9631 53.6599C56.1999 53.4626 56.4367 53.2653 56.7129 53.0286L56.8313 52.9102L59.002 54.1333L58.3705 51.766L58.5284 51.6871C58.8441 51.4503 59.1993 51.2531 59.5545 51.0558L59.6729 50.9769L61.6857 52.3973L61.37 50.0694L61.5279 49.9905C61.9225 49.7932 62.3566 49.5959 62.7513 49.4381L62.9092 49.3592L64.6062 51.0558L64.6852 48.7279H64.843C65.2772 48.5306 65.7508 48.4122 66.1849 48.2939H66.3428L67.6452 50.1088L68.1188 47.8599H68.2766C68.6318 47.781 68.987 47.7415 69.3817 47.6626H69.5396L70.842 49.9905L71.6313 47.5048H71.947C72.2233 47.5048 72.539 47.5048 72.8547 47.5048H73.1705L74.0387 50.0299L75.2622 47.6626H75.4201C75.7753 47.7415 76.1699 47.781 76.5646 47.8599H76.7225L77.1566 50.5034L78.8142 48.3333H78.9721C79.2878 48.4517 79.6035 48.5701 79.9587 48.649H80.1166L80.1955 51.3714L82.1294 49.4381L82.2872 49.517C82.603 49.6354 82.8792 49.7932 83.2344 49.951L83.3923 50.0299L83.0371 52.634L85.2867 51.0163L85.4051 51.0952C85.6814 51.2531 85.9576 51.4503 86.2734 51.6476L86.4312 51.7265L85.8392 54.1333L88.0099 52.9102L88.1283 53.0286C88.444 53.2653 88.7203 53.502 88.9965 53.7388L89.1149 53.8571L88.2072 56.3034L90.6147 55.2776L90.7331 55.3959C91.0093 55.6721 91.2461 55.9878 91.5224 56.2639L91.6408 56.3823L90.2595 58.7102L92.9432 58.0789L93.0221 58.1973C93.2195 58.4735 93.4168 58.7891 93.6141 59.1048L93.6931 59.2626L91.8776 61.3932L94.7981 61.2354L94.8771 61.3932C94.9955 61.5905 95.0744 61.8272 95.1928 62.0245L95.2717 62.1823L93.2984 64.1551L96.1005 64.234V64.3918C96.2584 64.7075 96.3768 65.0231 96.4557 65.3388V65.4966L94.3245 67.0748L97.0477 67.5878V67.7456C97.1267 68.0612 97.2056 68.4163 97.245 68.7714V68.9292L95.1533 70.1129L97.4818 70.8231V70.9809C97.4818 71.3361 97.5213 71.7306 97.5213 72.1646V72.3224L95.2323 73.3088L97.4818 74.2952V74.4531C97.4424 74.8871 97.4029 75.3211 97.324 75.7156V75.8735L94.8376 76.4653L96.9688 77.8463V78.0041C96.8504 78.3986 96.732 78.8327 96.6136 79.2272V79.385L94.0483 79.5034L95.9427 81.2789V81.4367C95.7453 81.7524 95.6269 82.1075 95.5085 82.4231L95.4296 82.581L92.7459 82.502L94.5219 84.4748L94.4429 84.6327C94.2851 84.9088 94.1272 85.185 93.9693 85.4612L93.8904 85.619L90.8515 84.9878L92.5091 87.6313L92.3907 87.7497C92.2328 87.9469 92.0749 88.1837 91.8776 88.3809L91.7592 88.4993L89.1149 87.6707L90.2989 90.117L90.1805 90.2354C89.9437 90.4721 89.7069 90.6694 89.4701 90.9456L89.3517 91.0639L86.8259 89.9197L87.6941 92.4449L87.5758 92.5633C87.26 92.8 86.9443 93.0367 86.6286 93.234L86.5102 93.3129L84.2606 91.8136L84.6947 94.4571L84.5368 94.5361C84.1816 94.7333 83.8264 94.8912 83.4712 95.0884L83.3134 95.1673L81.419 93.3524V95.9959L81.2611 96.0354C80.9454 96.1537 80.5902 96.2721 80.2744 96.3905H80.1166L78.6563 94.6939L78.3801 96.9429H78.2222C77.7486 97.1007 77.275 97.1796 76.8409 97.2585H76.683L75.5779 95.3646L74.907 97.5347H74.7491C74.315 97.5741 73.8809 97.6136 73.4862 97.6531H73.3283L72.3417 95.5224L71.4734 97.6531H71.6707ZM70.5262 97.1007C70.8025 97.1007 71.0788 97.1401 71.355 97.1401L72.4995 94.2993L73.8019 97.1401C74.1177 97.1401 74.4334 97.1401 74.7491 97.0612L75.6174 94.1415L77.1171 96.7456C77.4723 96.6667 77.8275 96.6272 78.1827 96.5088L78.5379 93.5102L80.5112 95.8776C80.7086 95.7986 80.9454 95.7197 81.1427 95.6408V92.2082L83.5896 94.5755C83.8264 94.4571 84.0632 94.3388 84.3395 94.181L83.7475 90.7878L86.6286 92.7211C86.8654 92.5633 87.0627 92.4054 87.2995 92.2476L86.155 89.0122L89.3912 90.4721C89.3912 90.4721 89.7069 90.1565 89.8648 89.9986L88.3651 86.8422L91.7592 87.9075C91.7592 87.9075 91.9565 87.6707 92.0355 87.5524L89.9832 84.2381L93.772 85.0272C93.772 85.0272 93.9693 84.6721 94.0877 84.5143L91.7987 81.9497L95.2717 82.068C95.3507 81.8708 95.4296 81.634 95.548 81.3973L93.1011 79.0694L96.3768 78.9116C96.4557 78.6354 96.5346 78.3197 96.6136 78.0435L93.8509 76.2286L97.0477 75.4789C97.0477 75.1633 97.1267 74.8476 97.1267 74.532L94.1667 73.2299L97.2056 71.9673C97.2056 71.6517 97.2056 71.3755 97.2056 71.1388L94.1272 70.1918L96.9293 68.6136C96.9293 68.3769 96.8504 68.1401 96.8109 67.9034L93.3379 67.2327L96.14 65.2204C96.0611 65.0231 96.0216 64.7864 95.9427 64.5891L92.3512 64.5102L94.8771 61.985C94.8771 61.985 94.7587 61.7483 94.7192 61.6299L91.0093 61.8272L93.2984 59.1442C93.1405 58.9075 93.0221 58.7102 92.9037 58.5129L89.4307 59.3415L91.1672 56.3429C90.9699 56.1456 90.812 55.9483 90.6147 55.7116L87.4968 57.0136L88.6808 53.8571C88.6808 53.8571 88.2861 53.5415 88.0888 53.3442L85.2078 54.9619L85.9971 51.8449C85.7998 51.7265 85.6024 51.5687 85.4051 51.4503L82.524 53.502L82.9976 50.1483C82.7608 50.0299 82.5635 49.951 82.3662 49.8721L79.9193 52.3578L79.8008 48.9252C79.564 48.8463 79.3667 48.8068 79.1299 48.7279L76.9987 51.5293L76.4462 48.1755C76.1699 48.1361 75.8937 48.0966 75.6569 48.0571L74.0782 51.1347L72.9337 47.8993C72.6574 47.8993 72.3811 47.8993 72.1049 47.8993L71.0788 51.0952L69.4212 48.0966C69.1449 48.0966 68.9081 48.1755 68.6318 48.215L68.0004 51.2136L66.2638 48.7279C65.9481 48.8068 65.5929 48.9252 65.2772 49.0041L65.1982 52.1211L62.9486 49.8721C62.6329 49.9905 62.3172 50.1483 62.0409 50.2667L62.475 53.3442L59.8308 51.4503C59.594 51.6082 59.3572 51.766 59.1204 51.9238L59.9097 55.0408L57.0287 53.4626C57.0287 53.4626 56.6735 53.7388 56.5156 53.8966L57.7785 57.2898L54.4239 55.8694C54.4239 55.8694 54.1081 56.2245 53.9503 56.4218L55.5684 59.1837L52.3716 58.434C52.2138 58.6707 52.0559 58.9075 51.898 59.1048L53.7529 61.7088L50.6351 61.2748C50.4772 61.551 50.3194 61.8667 50.201 62.1429L52.49 64.3918L49.2932 64.5102C49.1748 64.8258 49.0959 65.1415 48.9775 65.4177L51.385 67.2721L48.3855 67.7456C48.3066 68.0612 48.2671 68.4163 48.1882 68.7714L50.9114 70.1918L47.9119 71.2177C47.9119 71.5728 47.9119 71.8884 47.9119 72.2435L50.8719 73.1905L47.9908 74.7687C47.9908 75.0449 48.0303 75.3211 48.0698 75.5973L51.2271 76.2286L48.5039 78.1225C48.5434 78.3197 48.5828 78.517 48.6618 78.7537L52.2927 79.1088L49.53 81.5156C49.609 81.7524 49.7274 81.9497 49.8063 82.1864L53.0426 81.9497L50.9508 84.5537C51.0692 84.7905 51.2271 85.0272 51.3455 85.2639L54.5423 84.751L52.7663 87.3946C52.9636 87.6707 53.161 87.9075 53.3583 88.1442L56.3972 87.0789L55.0948 90.0775C55.3316 90.3143 55.6079 90.5905 55.8841 90.8272L58.5679 89.5252L57.6996 92.3265C58.0153 92.5633 58.2916 92.7605 58.6073 92.9578L61.0148 91.1823L60.6201 94.2204C60.9359 94.3782 61.2516 94.5755 61.5673 94.7333L63.659 92.5633L63.8169 95.6803C64.0932 95.7986 64.4089 95.8775 64.6852 95.9959L66.5796 93.5497L67.0532 96.6667C67.29 96.7061 67.5268 96.785 67.7636 96.8245L69.579 93.8259L70.4868 97.1796L70.5262 97.1007ZM72.539 92.8C66.1454 92.8 60.0676 89.7224 56.2393 84.5537L56.0815 84.3565L65.7902 78.7537L65.9086 78.8721C67.6452 80.6871 70.0132 81.7129 72.539 81.7129C75.0649 81.7129 77.3934 80.7265 79.1299 78.9116L79.2483 78.7932L88.9571 84.3959L88.7992 84.5932C85.0104 89.7225 78.9326 92.8 72.539 92.8ZM56.7919 84.4748C60.5017 89.3673 66.3822 92.3265 72.539 92.3265C78.6958 92.3265 84.5368 89.4068 88.2467 84.5143L79.3273 79.385C77.5118 81.2 75.1043 82.2258 72.539 82.2258C69.9737 82.2258 67.5268 81.2 65.7113 79.385L56.7919 84.5143V84.4748ZM90.9304 81.0027L81.2611 75.4V75.2027C81.5768 74.3347 81.6952 73.4667 81.6952 72.5592C81.6952 68.298 78.8142 64.6286 74.6702 63.6816H74.4729V52.4367H74.7491C85.0499 53.581 92.7853 62.1823 92.7853 72.5592C92.7853 75.4 92.1933 78.1619 91.0488 80.7265L90.9304 80.9633V81.0027ZM81.8136 75.2027L90.7331 80.332C91.7987 77.8857 92.3117 75.2816 92.3117 72.5592C92.3117 62.5374 84.8526 54.1728 74.9465 52.9891V63.2871C79.2089 64.3918 82.1688 68.1796 82.1688 72.5986C82.1688 73.4667 82.0504 74.3741 81.8136 75.2027ZM54.1476 80.9633L54.0292 80.7265C52.8847 78.1619 52.3322 75.4 52.3322 72.5592C52.3322 62.2218 60.0676 53.6204 70.3289 52.4762H70.6052V63.6422H70.4078C66.3033 64.668 63.4222 68.3374 63.4222 72.5592C63.4222 73.4667 63.5406 74.3347 63.8169 75.1633V75.3605L54.1871 80.9633H54.1476ZM70.0921 52.9891C60.2255 54.2122 52.8058 62.5769 52.8058 72.5592C52.8058 75.2422 53.3188 77.8463 54.3844 80.2925L63.3039 75.1633C63.0671 74.3347 62.9486 73.4667 62.9486 72.5986C62.9486 68.219 65.8692 64.4313 70.1316 63.3265V53.0286L70.0921 52.9891ZM72.539 75.1633C71.1182 75.1633 69.9342 74.019 69.9342 72.5592C69.9342 71.0993 71.0787 69.9551 72.539 69.9551C73.9993 69.9551 75.1438 71.0993 75.1438 72.5592C75.1438 74.019 73.9993 75.1633 72.539 75.1633ZM72.539 70.468C71.355 70.468 70.4078 71.415 70.4078 72.5986C70.4078 73.7823 71.355 74.7293 72.539 74.7293C73.723 74.7293 74.6702 73.7823 74.6702 72.5986C74.6702 71.415 73.723 70.468 72.539 70.468Z" fill="#DCA64F"/>
<path d="M79.3673 72.4803C79.3673 72.4803 79.3673 72.2435 79.3673 72.1646L78.6175 71.9279L79.2884 71.5333C79.2884 71.5333 79.2884 71.3361 79.2489 71.2571L78.3807 71.0993L79.0516 70.6259C79.0516 70.6259 79.0121 70.468 78.9727 70.3497H78.1044L78.7359 69.7184C78.7359 69.6789 78.6964 69.6 78.6569 69.5606H77.7492L78.3017 68.9687C78.2623 68.8898 78.1833 68.8109 78.1439 68.732L77.3151 68.9293L77.7492 68.1796C77.7492 68.1796 77.5913 68.0218 77.5519 67.9429L76.802 68.2585L77.0783 67.4694C77.0783 67.4694 76.9204 67.351 76.8415 67.2721L76.1311 67.6667L76.3284 66.917C76.3284 66.917 76.1705 66.7986 76.0916 66.7592L75.3812 67.2721L75.4996 66.4435C75.4996 66.4435 75.3417 66.3646 75.2233 66.3252L74.6313 66.917V66.0884C74.6313 66.0884 74.434 66.049 74.3551 66.0095L73.842 66.6803L73.7236 65.8517C73.7236 65.8517 73.5263 65.8517 73.4079 65.8123L73.0132 66.5619L72.737 65.7728C72.737 65.7728 72.658 65.7728 72.5791 65.7728C72.5002 65.7728 72.4607 65.7728 72.3818 65.7728L72.145 66.5619L71.7503 65.8123C71.7503 65.8123 71.553 65.8123 71.4346 65.8517L71.2767 66.5619L70.8426 65.9701C70.8426 65.9701 70.6058 66.049 70.4874 66.0884V66.8381L69.9348 66.2857C69.8164 66.3252 69.698 66.3646 69.5796 66.4435L69.698 67.1932L69.0666 66.7197C69.0666 66.7197 68.8692 66.8381 68.7903 66.8776L68.9876 67.6272L68.2772 67.2327C68.2772 67.2327 68.1194 67.351 68.0799 67.3905L68.3956 68.2191L67.5668 67.864C67.5668 67.864 67.4484 68.0218 67.3695 68.1007L67.7642 68.7714L66.9748 68.5742C66.9748 68.5742 66.8564 68.732 66.7775 68.8504L67.2116 69.4816L66.4618 69.3633C66.4618 69.3633 66.3434 69.5606 66.3039 69.6789L66.8564 70.2313H66.0671C66.0671 70.2313 65.9882 70.468 65.9487 70.5864L66.5407 71.0204L65.8303 71.1388C65.8303 71.1388 65.7908 71.3755 65.7514 71.5333L66.4223 71.8884L65.7119 72.1252C65.7119 72.1252 65.7119 72.3619 65.7119 72.4803L66.4223 72.717L65.7119 73.1116C65.7119 73.1116 65.7119 73.3089 65.7119 73.4272L66.4618 73.585L65.7908 74.0585C65.7908 74.0585 65.8303 74.2163 65.8698 74.3347L66.7775 74.4136L66.1066 75.0055C66.1066 75.0055 66.1855 75.2027 66.225 75.2816L67.0143 75.2027L66.5012 75.834C66.5012 75.834 66.6196 76.0313 66.6591 76.1102L67.4484 75.9918L67.0143 76.6231C67.0143 76.6231 67.1722 76.8204 67.2511 76.8993L68.001 76.6231L67.6852 77.3333C67.6852 77.3333 67.8826 77.5306 67.9615 77.6095L68.593 77.2939L68.3956 77.9646C68.3956 77.9646 68.593 78.1225 68.7114 78.2014L69.3034 77.7674L69.2244 78.4776C69.2244 78.4776 69.4612 78.5959 69.5796 78.6748L70.0927 78.1619V78.9116C70.0927 78.9116 70.3295 78.9905 70.4479 79.0299L70.882 78.4381L71.0004 79.1878C71.0004 79.1878 71.1978 79.2272 71.2767 79.2667L71.7108 78.517L71.9476 79.3456C71.9476 79.3456 72.145 79.3456 72.2634 79.3456L72.5396 78.6748L72.8554 79.3456C72.8554 79.3456 73.0922 79.3456 73.2106 79.3456L73.4079 78.6354L73.7631 79.2667C73.7631 79.2667 73.9999 79.2272 74.1578 79.1878L74.2367 78.4776L74.7103 79.0299C74.7103 79.0299 74.8681 78.951 74.9865 78.951V78.1225L75.5785 78.7143C75.6575 78.6748 75.7759 78.6354 75.8548 78.5565L75.6969 77.7279L76.4073 78.2014C76.4073 78.2014 76.5652 78.083 76.6441 78.0041L76.3679 77.215L77.1572 77.5701C77.1572 77.5701 77.2756 77.4517 77.3545 77.3728L76.9993 76.5837L77.8281 76.8599C77.8281 76.8599 77.9071 76.7415 77.9465 76.7021L77.4335 75.8735L78.3807 76.0708C78.3807 76.0708 78.4596 75.9129 78.4991 75.834L77.9465 75.2027H78.7753C78.7753 75.2027 78.8543 75.0449 78.8937 74.966L78.3017 74.4136H79.0911C79.0911 74.4136 79.1305 74.1374 79.17 74.0191L78.4991 73.585L79.2884 73.3878C79.2884 73.3878 79.2884 73.151 79.2884 73.0327L78.578 72.717L79.3279 72.4014L79.3673 72.4803ZM72.5396 71.9279C72.8948 71.9279 73.1711 72.2041 73.1711 72.5592C73.1711 72.9143 72.8948 73.1905 72.5396 73.1905C72.1844 73.1905 71.9082 72.9143 71.9082 72.5592C71.9082 72.2041 72.1844 71.9279 72.5396 71.9279ZM67.5274 74.8082C67.2116 74.1374 67.0538 73.3878 67.0538 72.5986C67.0538 69.7578 69.185 67.4299 71.9476 67.1538V70.1129C70.8031 70.3891 69.9743 71.415 69.9743 72.5986C69.9743 72.8748 69.9743 73.1116 70.0927 73.3483L67.5274 74.8082ZM72.5396 78.083C70.7242 78.083 69.106 77.215 68.1194 75.834L70.6847 74.3742C71.1583 74.8871 71.8292 75.1633 72.5396 75.1633C73.25 75.1633 73.921 74.8476 74.3946 74.3742L76.9599 75.834C75.9732 77.1755 74.3551 78.083 72.5396 78.083ZM77.5913 74.8082L75.026 73.3483C75.1049 73.1116 75.1444 72.8748 75.1444 72.5986C75.1444 71.3755 74.3156 70.3497 73.1711 70.0735V67.1143C75.9337 67.3905 78.0649 69.7578 78.0649 72.5592C78.0649 73.3483 77.9071 74.098 77.5913 74.7687V74.8082Z" fill="#FDE1BD"/>
<path d="M72.3032 79.4639H72.2637C72.2637 79.4639 72.0664 79.4639 71.948 79.4639H71.9085L71.7112 78.7537L71.3165 79.385H71.277C71.277 79.385 71.0797 79.3455 71.0008 79.3061H70.9613L70.8429 78.6353L70.4482 79.1483H70.4088C70.4088 79.1483 70.172 79.0694 70.093 79.0299H70.0536V78.3591L69.6194 78.7932H69.58C69.58 78.7932 69.3432 78.6353 69.2248 78.5959L69.3037 77.9646L68.7906 78.3197C68.7906 78.3197 68.5933 78.1224 68.4749 78.0435L68.6722 77.4517L68.1197 77.7279C68.1197 77.7279 67.9224 77.5306 67.8434 77.4122L68.1197 76.7415L67.4882 76.9782C67.4882 76.9782 67.3304 76.7415 67.2514 76.6625L67.6066 76.0707L66.9357 76.1891C66.9357 76.1891 66.8173 75.9918 66.7778 75.8734L67.212 75.2816H66.541C66.541 75.2027 66.4621 75.0843 66.4226 75.0054L67.0146 74.453L66.2253 74.3741C66.2253 74.3741 66.1858 74.1374 66.1464 74.0585L66.6989 73.6244L66.028 73.5061C66.028 73.5061 66.028 73.2299 66.028 73.151L66.62 72.7959L65.9885 72.5986C65.9885 72.5986 65.9885 72.283 65.9885 72.1646L66.62 71.9278L66.0674 71.6517C66.0674 71.6517 66.1069 71.336 66.1464 71.2177L66.7384 71.0598L66.2648 70.6653C66.2648 70.6653 66.3437 70.3891 66.3832 70.2707L67.0541 70.1918L66.5805 69.7183C66.5805 69.7183 66.6989 69.4421 66.7384 69.3632L67.3698 69.4027L66.9752 68.8503C66.9752 68.8503 67.0936 68.653 67.1725 68.5347L67.8434 68.653L67.4882 68.0612C67.4882 68.0612 67.6066 67.8639 67.6856 67.785L68.396 68.0612L68.1197 67.3115C68.1197 67.3115 68.2381 67.1537 68.317 67.1142L68.909 67.4299L68.7512 66.7591C68.7512 66.7591 68.9485 66.6013 69.0274 66.5619L69.58 66.917L69.501 66.2857H69.5405C69.5405 66.2857 69.7773 66.1673 69.8957 66.1279H69.9352L70.4088 66.5619V65.9306H70.4877C70.6061 65.8911 70.7245 65.8517 70.8429 65.8122H70.8824L71.2376 66.3251L71.356 65.6938H71.3954C71.3954 65.6938 71.5928 65.6938 71.7112 65.6544H71.7506L72.1058 66.2857L72.3032 65.6149H72.3821C72.3821 65.6149 72.54 65.6149 72.6189 65.6149H72.6978L72.9346 66.3251L73.2898 65.6544H73.3293C73.3293 65.6544 73.5266 65.6544 73.645 65.6938H73.6845L73.8029 66.404L74.2765 65.8122H74.316C74.316 65.8122 74.4738 65.8911 74.5922 65.8911H74.6317V66.6408L75.1448 66.1279H75.1842C75.1842 66.1279 75.3421 66.2068 75.4605 66.2462H75.4999L75.3815 66.9959L76.013 66.5619C76.013 66.5619 76.1709 66.6802 76.2498 66.7197L76.0919 67.3904L76.6839 67.0353C76.6839 67.0353 76.8418 67.1932 76.9207 67.2721L76.6839 67.9823L77.3549 67.7061C77.3549 67.7061 77.5127 67.9034 77.5522 67.9823L77.1575 68.653L77.9074 68.4952C77.9074 68.4952 78.0258 68.6925 78.0653 68.7714L77.5522 69.4027H78.3415C78.3415 69.4421 78.381 69.5211 78.4205 69.5605L77.8679 70.1523H78.6573V70.2313C78.6573 70.3102 78.6967 70.3891 78.7362 70.5074L78.1442 70.9809L78.8941 71.1387C78.8941 71.1387 78.8941 71.3755 78.9335 71.4544L78.3415 71.8095L78.973 72.0068C78.973 72.0068 78.973 72.2435 78.973 72.3619L78.3415 72.6775L78.973 72.9537C78.973 72.9537 78.973 73.2299 78.973 73.3483L78.3021 73.5455L78.8941 73.9401C78.8941 73.9401 78.8546 74.2163 78.8151 74.3347L78.1442 74.4136L78.6573 74.887C78.6573 74.887 78.5783 75.1238 78.5389 75.2027H77.789L78.2626 75.7551C78.2626 75.7551 78.1837 75.9523 78.1442 76.0313L77.3154 75.9129L77.7495 76.6231C77.7495 76.6231 77.6706 76.7809 77.5917 76.8204L76.8813 76.6231L77.197 77.2938C77.197 77.2938 77.0786 77.4517 76.9997 77.5306L76.2893 77.2544L76.5261 77.9646C76.5261 77.9646 76.3682 78.1224 76.2498 78.1619L75.6183 77.7673L75.7367 78.4775H75.6973C75.6973 78.4775 75.4999 78.5959 75.421 78.6353H75.3815L74.8685 78.1619V78.8721H74.829C74.7501 78.8721 74.6317 78.951 74.5527 78.951H74.5133L74.1186 78.4775L74.0397 79.1088H74.0002C74.0002 79.1088 73.724 79.1877 73.6056 79.1877H73.5661L73.2504 78.6748L73.053 79.2666H73.0136C73.0136 79.2666 72.7768 79.2666 72.6584 79.2666H72.6189L72.3426 78.6748L72.1058 79.2666L72.3032 79.4639ZM71.9874 79.3061C71.9874 79.3061 72.1453 79.3061 72.2242 79.3061L72.54 78.517L72.8952 79.3061C72.8952 79.3061 73.053 79.3061 73.132 79.3061L73.3688 78.517L73.7634 79.2272C73.7634 79.2272 73.9608 79.2272 74.0397 79.1483L74.1186 78.3197L74.6711 78.951C74.6711 78.951 74.7895 78.9115 74.8685 78.8721V77.9251L75.5394 78.5564C75.6183 78.5564 75.6578 78.4775 75.7367 78.4381L75.5789 77.4911L76.3682 78.0435C76.3682 78.0435 76.4866 77.9646 76.5655 77.9251L76.2498 77.0176L77.1575 77.4122C77.1575 77.4122 77.2365 77.3333 77.2759 77.2938L76.8418 76.4258L77.789 76.7415C77.789 76.7415 77.8285 76.6625 77.8679 76.6231L77.3154 75.7156L78.3415 75.9129C78.3415 75.9129 78.381 75.834 78.4205 75.7551L77.789 75.0449H78.7362C78.7362 75.0449 78.7757 74.9659 78.8151 74.887L78.1442 74.2557H79.0519C79.0519 74.2557 79.0914 74.0585 79.1309 73.9796L78.381 73.4666L79.2493 73.2693C79.2493 73.2693 79.2493 73.1115 79.2493 73.0326L78.4205 72.6775L79.2493 72.3224C79.2493 72.3224 79.2493 72.1646 79.2493 72.0857L78.4205 71.8095L79.1703 71.3755C79.1703 71.3755 79.1703 71.2571 79.1703 71.1782L78.2231 70.9809L79.0125 70.4285C79.0125 70.4285 79.0125 70.3102 78.973 70.2707H77.9863L78.6967 69.5605C78.6967 69.5605 78.6967 69.4816 78.6573 69.4816H77.6311L78.2626 68.8108C78.2231 68.7319 78.1837 68.6925 78.1442 68.653L77.197 68.8898L77.6706 68.0612C77.6706 68.0612 77.5522 67.9428 77.5127 67.9034L76.6445 68.2585L76.9602 67.3904C76.9602 67.3904 76.8418 67.3115 76.8023 67.2721L76.013 67.7061L76.2103 66.8381C76.2103 66.8381 76.0919 66.7591 76.0525 66.7197L75.2631 67.2721L75.3815 66.3646C75.3815 66.3646 75.2631 66.3251 75.2237 66.2857L74.5527 66.9564V66.0095C74.5527 66.0095 74.3949 66.0095 74.3554 65.97L73.7634 66.7197L73.6056 65.8122C73.6056 65.8122 73.4477 65.8122 73.3688 65.8122L72.9346 66.6408L72.6189 65.7333C72.6189 65.7333 72.461 65.7333 72.3821 65.7333L72.1058 66.6013L71.6322 65.7727C71.6322 65.7727 71.4744 65.7727 71.4349 65.7727L71.277 66.6013L70.8034 65.9306C70.8034 65.9306 70.6061 65.97 70.5272 66.0095V66.8775L69.8957 66.2462C69.8168 66.2462 69.7378 66.3251 69.6589 66.3646L69.7773 67.2326L69.0274 66.7197C69.0274 66.7197 68.909 66.7986 68.8301 66.8381L69.0669 67.7061L68.2776 67.2721C68.2776 67.2721 68.1986 67.351 68.1592 67.3904L68.5144 68.3374L67.6066 67.9428C67.6066 67.9428 67.5277 68.0612 67.4882 68.1006L67.9224 68.8503L67.0541 68.653C67.0541 68.653 66.9752 68.7714 66.9357 68.8503L67.4488 69.5605L66.5805 69.4421C66.5805 69.4421 66.5016 69.6 66.4621 69.6789L67.0936 70.3102H66.2253C66.2253 70.3102 66.1858 70.5074 66.1464 70.5864L66.8173 71.0993L65.9885 71.2177C65.9885 71.2177 65.9885 71.4149 65.949 71.4938L66.6989 71.8884L65.8701 72.1646C65.8701 72.1646 65.8701 72.3619 65.8701 72.4408L66.6989 72.717L65.9096 73.151C65.9096 73.151 65.9096 73.3088 65.9096 73.3877L66.7778 73.5455L66.028 74.0585C66.028 74.0585 66.028 74.1768 66.0674 74.2163L67.0541 74.2952L66.3042 74.9659C66.3042 74.9659 66.3437 75.0843 66.3832 75.1632L67.2909 75.0843L66.6989 75.7945C66.6989 75.7945 66.7778 75.9129 66.8173 75.9918L67.6856 75.834L67.212 76.5442C67.212 76.5442 67.3304 76.702 67.3698 76.7415L68.1986 76.4258L67.8434 77.2544C67.8434 77.2544 68.0013 77.4122 68.0408 77.4517L68.7906 77.0966L68.5538 77.8857C68.5538 77.8857 68.7117 78.004 68.7906 78.083L69.4616 77.6095L69.3432 78.4381C69.3432 78.4381 69.501 78.517 69.6194 78.5564L70.2114 77.9646V78.8326C70.2114 78.8326 70.4088 78.9115 70.4877 78.9115L71.0008 78.2408L71.1192 79.1088C71.1192 79.1088 71.2376 79.1088 71.3165 79.1483L71.8296 78.3197L72.0664 79.2272L71.9874 79.3061ZM72.54 78.1224C70.764 78.1224 69.1064 77.2938 68.0802 75.8734H68.0408L70.7245 74.2952C71.1981 74.8476 71.869 75.1238 72.54 75.1238C73.2109 75.1238 73.8818 74.8476 74.3554 74.3347L77.0391 75.834H76.9997C75.9735 77.2938 74.2765 78.1619 72.54 78.1619V78.1224ZM68.2381 75.834C69.2642 77.1755 70.8824 78.004 72.5794 78.004C74.2765 78.004 75.8946 77.2149 76.9207 75.8734L74.4738 74.453C73.9608 74.9659 73.3293 75.2421 72.6189 75.2421C71.9085 75.2421 71.2376 74.9659 70.7245 74.453L68.2776 75.8734L68.2381 75.834ZM77.5917 74.887L74.9079 73.3483C74.9869 73.0721 75.0263 72.8353 75.0263 72.5591C75.0263 71.3755 74.237 70.3891 73.0925 70.1129H73.053V67.0353H73.132C75.9735 67.351 78.1047 69.7183 78.1047 72.5591C78.1047 73.3483 77.9469 74.0979 77.6311 74.8081V74.887H77.5917ZM75.1053 73.3088L77.5522 74.7292C77.8285 74.0585 77.9863 73.3483 77.9863 72.5986C77.9863 69.8367 75.9341 67.5483 73.2109 67.1932V70.034C74.3949 70.3496 75.1842 71.3755 75.1842 72.5986C75.1842 72.8353 75.1842 73.0721 75.0658 73.3088H75.1053ZM67.4882 74.887V74.8081C67.133 74.0979 66.9752 73.3483 66.9752 72.5591C66.9752 69.7183 69.1064 67.351 71.9085 67.0353H71.9874V70.1129H71.948C70.8034 70.3891 70.0141 71.4149 70.0141 72.5591C70.0141 72.7959 70.0141 73.0326 70.1325 73.2693L67.4488 74.8476L67.4882 74.887ZM71.869 67.1932C69.1458 67.5088 67.0936 69.8367 67.0936 72.5591C67.0936 73.3088 67.2514 74.019 67.5277 74.6898L69.9746 73.2693C69.8957 73.0326 69.8957 72.7959 69.8957 72.5591C69.8957 71.336 70.685 70.3102 71.869 69.9945V67.1537V67.1932ZM72.54 73.2693C72.1453 73.2693 71.8296 72.9537 71.8296 72.5591C71.8296 72.1646 72.1453 71.8489 72.54 71.8489C72.9346 71.8489 73.2504 72.1646 73.2504 72.5591C73.2504 72.9537 72.9346 73.2693 72.54 73.2693ZM72.54 72.0068C72.2242 72.0068 71.948 72.283 71.948 72.5986C71.948 72.9142 72.2242 73.1904 72.54 73.1904C72.8557 73.1904 73.132 72.9142 73.132 72.5986C73.132 72.283 72.8557 72.0068 72.54 72.0068Z" fill="#FDE1BD"/>
<path d="M72.7763 88.5783C73.0131 88.5783 73.2894 88.5783 73.5262 88.5783L74.0787 86.8422L74.9865 88.4204C75.2233 88.4204 75.4206 88.3415 75.6574 88.3021L76.0521 86.2898L77.1966 87.9075C77.3939 87.8286 77.5912 87.7891 77.7886 87.7102V85.6585L79.2883 87.1184C79.4067 87.0395 79.5646 87 79.683 86.9211L79.5646 84.7905L81.1038 86.0925C81.3011 85.9742 81.4984 85.8558 81.6958 85.698L81.2222 83.7252L82.9587 84.7116C82.9587 84.7116 83.3534 84.3959 83.5112 84.1987L82.7614 82.4231L84.5768 83.0939C84.5768 83.0939 84.8926 82.7388 85.0504 82.5415L84.1427 80.9238L85.9187 81.3578C85.9187 81.3578 86.1555 81.0027 86.2739 80.8055L85.0899 79.1483L87.0237 79.4245C87.1027 79.2272 87.2211 79.0299 87.3 78.8327L85.8792 77.4123H87.8525C87.9315 77.1361 87.9709 76.9388 88.0499 76.7415L86.4712 75.5184L88.4051 75.2027C88.4445 74.966 88.484 74.7293 88.5235 74.4531L86.7869 73.5456L88.6419 72.9143C88.6419 72.9143 88.6419 72.6776 88.6419 72.5592C88.6419 72.4014 88.6419 72.283 88.6419 72.1252L86.8264 71.5334L88.5629 70.5864C88.5629 70.3497 88.484 70.1129 88.4445 69.8762L86.7475 69.5211L88.1683 68.5347C88.0893 68.2585 88.0104 67.9429 87.9315 67.6667H86.195L87.4579 66.3646C87.3395 66.0885 87.2211 65.8517 87.1027 65.5755L85.3662 65.8123L86.4317 64.3129C86.3134 64.0762 86.1555 63.8789 86.0371 63.6816L84.2611 64.1551L85.1688 62.5374C85.1688 62.5374 84.8926 62.2218 84.7742 62.064L82.8008 62.8136L83.6296 60.8803C83.6296 60.8803 83.2744 60.5646 83.1166 60.4068L81.5379 61.3143L81.972 59.4993C81.7747 59.3415 81.5774 59.2231 81.3406 59.0653L79.8803 60.0912L80.1171 58.3551C79.8803 58.2368 79.604 58.0789 79.3672 57.9606L78.1043 59.2626L78.0254 57.4476C77.7491 57.3687 77.5123 57.2504 77.2361 57.1714L76.2099 58.5129L75.9337 56.8163C75.6574 56.7374 75.3417 56.698 75.0654 56.6585L74.2761 58.1973L73.6841 56.5007C73.4078 56.5007 73.0921 56.5007 72.8158 56.5007L72.2633 58.1578L71.395 56.5402C71.1582 56.5402 70.8819 56.5796 70.6451 56.6191L70.2899 58.3946L69.2244 56.8558C69.027 56.8953 68.8297 56.9347 68.6323 57.0136L68.435 59.1048L67.0537 57.5265C66.8564 57.6055 66.6196 57.6844 66.4222 57.8027L66.5801 59.6572L65.1198 58.4735C64.9225 58.5919 64.6857 58.7102 64.4884 58.8286L64.8041 60.6436L63.3044 59.6177C63.0676 59.7755 62.8702 59.9728 62.6334 60.1306L63.2649 61.8667L61.5678 61.117C61.3705 61.3143 61.1337 61.551 60.9364 61.7878L61.6862 63.2871L60.1076 62.8136C59.9102 63.0504 59.7524 63.3266 59.5551 63.5633L60.5417 64.9048L58.8447 64.7075C58.6868 64.9837 58.5684 65.2599 58.4105 65.5361L59.634 66.7197L57.858 66.7987C57.7791 67.0354 57.6607 67.3116 57.5817 67.5878L58.9631 68.6531L57.1871 68.9293C57.1476 69.166 57.0687 69.3633 57.0292 69.6L58.7263 70.6653L56.7924 71.1783C56.7924 71.415 56.7924 71.6912 56.7529 71.9279L58.3711 72.5592L56.7529 73.3089C56.7529 73.5851 56.7529 73.8612 56.7924 74.1374L58.45 74.6109L56.9897 75.4395C57.0292 75.7551 57.1081 76.0313 57.1871 76.347L58.8841 76.5442L57.5423 77.649C57.6212 77.8463 57.7001 78.083 57.7791 78.2803H59.7524L58.4105 79.7007C58.5289 79.9374 58.6473 80.1347 58.7657 80.3715L60.6996 80.0558L59.5945 81.7129C59.7524 81.9102 59.8708 82.1075 60.0287 82.3048L61.8836 81.6735L61.0548 83.5279C61.0548 83.5279 61.331 83.8436 61.4889 84.0014L63.3044 83.1334L62.6729 85.0667C62.6729 85.0667 62.9492 85.264 63.0676 85.3823L65.0014 84.1987L64.5673 86.3687C64.5673 86.3687 64.9225 86.566 65.0804 86.6844L66.5406 85.3823L66.4617 87.3551C66.659 87.434 66.8564 87.5129 67.0932 87.5919L68.3956 86.2109L68.514 88.0653C68.7902 88.1442 69.027 88.1837 69.3033 88.2626L70.3294 86.6844L70.7635 88.4993C71.0398 88.4993 71.3161 88.5783 71.5923 88.5783L72.3027 86.9211L73.0131 88.6177L72.7763 88.5783ZM74.0787 72.5592C74.0787 73.3878 73.4078 74.0585 72.579 74.0585C71.7502 74.0585 71.0793 73.3878 71.0793 72.5592C71.0793 71.7306 71.7502 71.0599 72.579 71.0599C73.4078 71.0599 74.0787 71.7306 74.0787 72.5592ZM67.3694 60.8014C68.9481 60.0912 70.7241 59.6966 72.579 59.6966C79.2094 59.6966 84.6558 64.7075 85.3662 71.1388H78.4595C77.828 68.4953 75.4206 66.5225 72.579 66.5225C71.987 66.5225 71.395 66.6014 70.8425 66.7592L67.3694 60.7619V60.8014ZM59.6735 72.5592C59.6735 68.298 61.7257 64.5497 64.9225 62.1823L68.3956 68.1796C67.251 69.2844 66.5012 70.8231 66.5012 72.5592C66.5012 74.2953 67.2116 75.834 68.3561 76.8993L64.883 82.8966C61.7257 80.5687 59.6735 76.781 59.6735 72.5592ZM67.33 84.317L70.803 78.3197C71.3555 78.4776 71.9475 78.5959 72.5395 78.5959C75.3811 78.5959 77.7886 76.6231 78.4201 73.9402H85.3267C84.6558 80.4109 79.1699 85.4218 72.5395 85.4218C70.6846 85.4218 68.9086 85.0272 67.33 84.317Z" fill="#DCA64F"/>
<path d="M56.3975 72.0068V71.8884C56.3975 71.6517 56.3975 71.3755 56.4369 71.1388V71.0204L58.134 70.5469L56.6343 69.6394V69.5211C56.7132 69.2843 56.7527 69.0476 56.7921 68.8503V68.7319L58.3313 68.4952L57.1473 67.5877V67.4694C57.2657 67.1932 57.3447 66.9564 57.4631 66.6802V66.6013L59.0023 66.5224L57.9761 65.536V65.4177C58.1735 65.1415 58.2919 64.8653 58.4497 64.5891V64.5102L59.9494 64.7075L59.0812 63.5632L59.1601 63.4843C59.318 63.2476 59.5153 62.9714 59.7126 62.7347L59.7916 62.6558L61.1334 63.0898L60.502 61.8272L60.5809 61.7483C60.7782 61.5115 60.9756 61.3143 61.2124 61.0775L61.2913 60.9986L62.7516 61.6299L62.2385 60.1306L62.3174 60.0517C62.5148 59.8939 62.7516 59.6966 62.9884 59.5387L63.0673 59.4598L64.3697 60.3279L64.0934 58.7496H64.1724C64.3697 58.5918 64.6065 58.434 64.8038 58.3156H64.8828L66.1457 59.302L66.0273 57.7238H66.1457C66.343 57.6054 66.5798 57.487 66.7772 57.4081H66.8956L68.119 58.7496L68.2769 56.8952H68.3953C68.5926 56.8163 68.7899 56.7768 68.9873 56.6979H69.1057L70.0529 58L70.3686 56.4612H70.487C70.7238 56.4217 71.0001 56.3823 71.2369 56.3823H71.3553L72.1051 57.7632L72.5787 56.3034H72.6971C72.9734 56.3034 73.2891 56.3034 73.5654 56.3034H73.6838L74.1969 57.7632L74.8678 56.4217H74.9862C75.3019 56.5007 75.5782 56.5401 75.8939 56.5796H76.0123L76.2491 58.0394L77.1568 56.8952H77.2752C77.5515 57.0136 77.8278 57.0925 78.0646 57.1714H78.1435L78.183 58.7891L79.288 57.6843H79.367C79.6038 57.8421 79.88 57.9605 80.1563 58.1183H80.2352L79.9984 59.6966L81.2614 58.7891H81.3403C81.5376 58.9864 81.7744 59.1047 81.9718 59.2626L82.0507 59.3415L81.6955 60.9197L83.0768 60.1306L83.1558 60.2095C83.1558 60.2095 83.511 60.5251 83.6688 60.683L83.7478 60.7619L83.0374 62.4585L84.7739 61.8272L84.8528 61.9061C84.8528 61.9061 85.1291 62.2217 85.2475 62.3796L85.3264 62.4585L84.5371 63.8789L86.0763 63.4843L86.1552 63.5632C86.3131 63.7605 86.4315 63.9973 86.5499 64.234V64.3129L85.6816 65.6149L87.1813 65.4177V65.536C87.3392 65.7728 87.4576 66.0489 87.576 66.3251V66.4041L86.5104 67.4694H88.0101V67.6272C88.0891 67.9034 88.168 68.219 88.2469 68.4952V68.6136L87.0629 69.4422L88.5232 69.7578V69.8762C88.5627 70.1129 88.6021 70.3496 88.6416 70.5864V70.7047L87.1419 71.5333L88.7205 72.0462V72.2435C88.7205 72.2435 88.7205 72.6381 88.7205 72.8354V73.0326L87.1024 73.585L88.6416 74.3741V74.4925C88.6021 74.7292 88.5627 74.966 88.5232 75.2421V75.3605L86.8261 75.6367L88.2075 76.702V76.7809C88.1285 76.9782 88.0496 77.1755 88.0101 77.4122V77.5306L86.2736 77.57L87.5365 78.7932V78.8721C87.5365 78.8721 87.3392 79.2666 87.2208 79.5034V79.6217L85.4843 79.385L86.5104 80.8449V80.9238C86.5104 80.9238 86.2341 81.2789 86.1157 81.4762L86.0368 81.5551L84.4976 81.1605L85.287 82.5809L85.208 82.6598C85.208 82.6598 84.8923 83.0544 84.7344 83.2122L84.6555 83.2911L83.0768 82.6993L83.7478 84.2381L83.6688 84.317C83.6688 84.317 83.3136 84.6721 83.1163 84.8299L83.0374 84.9088L81.5376 84.0408L81.9323 85.7768L81.8534 85.8558C81.8534 85.8558 81.4982 86.0925 81.2614 86.2503L81.1824 86.3292L79.8406 85.185L79.959 87.0394H79.88C79.88 87.0394 79.6038 87.2367 79.4854 87.2762H79.4064L78.1435 86.053V87.868H77.9856C77.7883 87.9469 77.591 87.9864 77.3542 88.0653H77.2358L76.2097 86.6843L75.8545 88.4204H75.7361C75.5387 88.4993 75.3019 88.4993 75.0651 88.5387H74.9467L74.1574 87.1973L73.6838 88.6966H73.5654C73.3286 88.6966 73.0918 88.6966 72.8155 88.6966H72.6971L72.0657 87.1973L71.4342 88.6571H71.3158C71.0395 88.6571 70.7633 88.6177 70.487 88.5782H70.3686L70.0134 87L69.1057 88.3415H68.9873C68.711 88.2626 68.4742 88.1836 68.198 88.1047H68.0795L68.0006 86.4476L66.8561 87.6707H66.7772C66.5798 87.5523 66.343 87.4734 66.1457 87.3945H66.0668L66.1062 85.619L64.8038 86.7632H64.7249C64.7249 86.7632 64.3697 86.5265 64.2118 86.4081H64.1329L64.5276 84.3959L62.8305 85.4612L62.7516 85.3823C62.7516 85.3823 62.4753 85.185 62.3569 85.0666L62.278 84.9877L62.8305 83.2911L61.2518 84.0408L61.1729 83.9619C61.1729 83.9619 60.8966 83.6857 60.7388 83.4884L60.6598 83.4095L61.4097 81.7918L59.7916 82.3442L59.7126 82.2653C59.7126 82.2653 59.3969 81.8707 59.2785 81.6734V81.5945L60.1862 80.1347L58.4892 80.4109V80.3319C58.3313 80.0952 58.2129 79.8979 58.0945 79.6612V79.5823L59.1996 78.3592H57.5025V78.2408C57.4236 78.0435 57.3447 77.8068 57.2657 77.6095V77.5306L58.3708 76.5836L56.9105 76.4258V76.3075C56.8316 75.9918 56.7527 75.7156 56.7132 75.4V75.2816L57.9367 74.5714L56.5553 74.1374V74.019C56.5553 73.7428 56.5159 73.4666 56.4764 73.1905V73.0721L57.8577 72.4408L56.4764 71.8884L56.3975 72.0068ZM56.7527 71.2571C56.7527 71.2571 56.7527 71.6122 56.7527 71.77L58.6076 72.5197L56.7527 73.3877C56.7527 73.585 56.7527 73.7823 56.7921 73.9796L58.6865 74.5319L57.0289 75.4789C57.0684 75.7156 57.1079 75.9129 57.1868 76.1496L59.1206 76.3864L57.6209 77.649C57.6209 77.649 57.6999 77.9251 57.7788 78.083H59.9889L58.4892 79.6612C58.5681 79.819 58.6471 79.9768 58.726 80.1347L60.8966 79.7796L59.6337 81.634C59.6337 81.634 59.831 81.9102 59.9494 82.068L62.0412 81.3578L61.094 83.4489C61.094 83.4489 61.2913 83.6462 61.3702 83.7646L63.383 82.7782L62.6726 84.9483C62.6726 84.9483 62.8305 85.0666 62.9094 85.1455L65.0406 83.8041L64.5276 86.2503C64.5276 86.2503 64.7644 86.3687 64.8433 86.4476L66.5009 84.9877L66.422 87.2367C66.422 87.2367 66.6982 87.3551 66.8561 87.3945L68.3558 85.8163L68.4742 87.9075C68.4742 87.9075 68.8689 87.9864 69.0267 88.0653L70.2107 86.2898L70.6843 88.3415C70.8817 88.3415 71.079 88.3809 71.2763 88.4204L72.1051 86.5265L72.9339 88.4598C72.9339 88.4598 73.2891 88.4598 73.4865 88.4598L74.0785 86.487L75.1046 88.302C75.1046 88.302 75.4203 88.2626 75.5387 88.2231L75.9729 85.9741L77.2752 87.7891C77.2752 87.7891 77.5515 87.7102 77.6699 87.6707V85.3823L79.367 87C79.4459 87 79.5248 86.9211 79.6038 86.8816L79.4854 84.5143L81.2219 85.9741C81.2219 85.9741 81.4982 85.7768 81.6166 85.6979L81.1035 83.4884L83.0374 84.6326C83.0374 84.6326 83.3136 84.3959 83.432 84.2775L82.5638 82.2653L84.616 83.0149C84.616 83.0149 84.8134 82.7782 84.9318 82.6204L83.9056 80.766L85.9184 81.2789C85.9184 81.2789 86.0763 81.0027 86.1552 80.8843L84.8134 79.0299L86.984 79.3456C86.984 79.3456 87.1024 79.0694 87.1813 78.951L85.5632 77.3728L87.7733 77.2938C87.7733 77.2938 87.8523 77.0177 87.8917 76.8598L86.0763 75.4789L88.2469 75.1238C88.2469 75.1238 88.2864 74.7687 88.3259 74.6109L86.3525 73.585L88.4443 72.8354C88.4443 72.8354 88.4443 72.4802 88.4443 72.283L86.392 71.6122L88.3259 70.5469C88.3259 70.5469 88.2864 70.1918 88.2469 70.034L86.3131 69.6394L87.9312 68.5347C87.8917 68.3374 87.8128 68.1007 87.7339 67.9034H85.7211L87.1813 66.4041C87.1024 66.2068 87.0235 66.0095 86.9051 65.8122L84.9318 66.0884L86.1552 64.3918C86.1552 64.3918 85.9579 64.0762 85.8789 63.9183L83.8662 64.4313L84.8923 62.5768C84.8923 62.5768 84.695 62.3401 84.616 62.2612L82.4059 63.0898L83.3136 60.9197C83.3136 60.9197 83.0768 60.7224 82.9584 60.6041L81.1824 61.6694L81.656 59.6177C81.656 59.6177 81.3798 59.4204 81.2219 59.302L79.5248 60.4857L79.8011 58.4734C79.8011 58.4734 79.4064 58.2762 79.2486 58.1973L77.8278 59.6571L77.7488 57.6054C77.7488 57.6054 77.3542 57.487 77.1568 57.4081L75.9729 58.9469L75.6571 57.0136C75.4598 56.9741 75.223 56.9347 74.9862 56.8952L74.0785 58.6707L73.4075 56.7374C73.1707 56.7374 72.9734 56.7374 72.7761 56.7374L72.1446 58.6313L71.1185 56.7768C71.1185 56.7768 70.7633 56.7768 70.5659 56.8163L70.1713 58.868L68.9478 57.1319C68.9478 57.1319 68.6716 57.2109 68.5532 57.2109L68.3558 59.5387L66.8166 57.7632C66.8166 57.7632 66.5404 57.8816 66.3825 57.9211L66.5404 60.0122L64.8828 58.6707C64.8828 58.6707 64.567 58.8285 64.4486 58.9469L64.8038 60.9986L63.1068 59.8544C63.1068 59.8544 62.791 60.0911 62.6332 60.249L63.3436 62.2217L61.4097 61.3537C61.4097 61.3537 61.094 61.6694 60.9361 61.8666L61.7649 63.6027L59.9494 63.0503C59.9494 63.0503 59.6732 63.4449 59.5153 63.6422L60.6598 65.1809L58.726 64.9442C58.6076 65.1415 58.4892 65.3388 58.4103 65.5755L59.7916 66.917L57.7788 66.9959C57.7788 66.9959 57.6209 67.3905 57.5815 67.5483L59.1601 68.7714L57.1473 69.087C57.1473 69.087 57.0684 69.4027 57.0684 69.5605L59.0023 70.7442L56.8316 71.336L56.7527 71.2571ZM59.5153 72.5592C59.5153 68.4558 61.4886 64.5102 64.8433 62.0639L64.9617 61.9455L68.5532 68.1796L68.4742 68.2585C67.2902 69.3632 66.6588 70.902 66.6588 72.5197C66.6588 74.1374 67.2902 75.6367 68.4742 76.7809L68.5532 76.8598L64.9617 83.0938L64.8433 82.9755C61.5281 80.5292 59.5548 76.6231 59.5548 72.5197L59.5153 72.5592ZM64.8828 62.419C61.7254 64.8258 59.831 68.5741 59.831 72.5592C59.831 76.5442 61.7254 80.2925 64.8433 82.6993L68.1585 76.9387C66.9745 75.7551 66.343 74.2163 66.343 72.5592C66.343 70.902 67.014 69.3238 68.198 68.1796L64.8828 62.419ZM67.1324 84.3959L70.7238 78.1619H70.8422C71.3947 78.3592 71.9867 78.4381 72.5393 78.4381C75.3019 78.4381 77.6304 76.5836 78.2619 73.9007V73.7823H85.4843V73.9401C84.7739 80.5687 79.2091 85.5401 72.5393 85.5401C70.7238 85.5401 68.9478 85.185 67.2508 84.4353L67.0929 84.3564L67.1324 84.3959ZM70.8422 78.517L67.527 84.2381C69.1057 84.9088 70.8027 85.2639 72.5393 85.2639C79.0118 85.2639 84.3792 80.4898 85.1686 74.0979H78.5382C77.8278 76.8598 75.3809 78.7537 72.5393 78.7537C71.9867 78.7537 71.3947 78.6748 70.8422 78.517ZM67.1324 60.7224L67.2902 60.6435C68.9478 59.8938 70.7238 59.5387 72.5393 59.5387C79.1696 59.5387 84.7344 64.5102 85.4843 71.0993V71.2571H78.3014V71.1388C77.6304 68.4952 75.3019 66.6408 72.5393 66.6408C71.9473 66.6408 71.3947 66.7197 70.8422 66.8775H70.7238L67.1324 60.683V60.7224ZM85.1686 71.0204C84.3792 64.668 78.9723 59.8939 72.5393 59.8939C70.8027 59.8939 69.1451 60.249 67.5665 60.9197L70.8817 66.6408C71.4342 66.483 71.9867 66.4041 72.5393 66.4041C75.3809 66.4041 77.8278 68.2979 78.5382 71.0204H85.1686ZM70.8817 72.5592C70.8817 71.6517 71.6315 70.902 72.5393 70.902C73.447 70.902 74.1969 71.6517 74.1969 72.5592C74.1969 73.4666 73.447 74.2163 72.5393 74.2163C71.6315 74.2163 70.8817 73.4666 70.8817 72.5592ZM73.9206 72.5592C73.9206 71.8095 73.2891 71.1782 72.5393 71.1782C71.7894 71.1782 71.1579 71.8095 71.1579 72.5592C71.1579 73.3088 71.7894 73.9401 72.5393 73.9401C73.2891 73.9401 73.9206 73.3088 73.9206 72.5592Z" fill="#DCA64F"/>
<path d="M71.869 91.8925H71.7506C71.4349 91.8925 71.1586 91.8925 70.8429 91.8136H70.7245L70.1719 89.7619L69.0669 91.5769H68.9485C68.6722 91.498 68.396 91.4585 68.1197 91.3796H68.0013L67.725 89.5252L66.62 90.9456H66.5016C66.1858 90.7878 65.8701 90.7089 65.5544 90.5905H65.436L65.357 88.7361L64.173 89.9987H64.0546C63.7389 89.7619 63.3837 89.6041 63.068 89.4068L62.9496 89.3279L63.1864 87.5919L61.805 88.6177L61.6866 88.5388C61.3709 88.3415 61.0946 88.1048 60.7789 87.868L60.6605 87.7891L61.1736 86.2109L59.6738 86.9606L59.5949 86.8817C59.3187 86.6449 59.0819 86.3687 58.8056 86.132L58.7267 86.0531L59.516 84.317L57.74 84.9483L57.6611 84.83C57.4637 84.5932 57.2269 84.317 57.0296 84.0408L56.9507 83.9225L57.9768 82.3837L56.1219 82.6993L56.0429 82.581C55.8851 82.3442 55.7272 82.068 55.6088 81.8313V81.7129L56.7928 80.1742L54.8984 80.332V80.2136C54.7405 79.9769 54.6221 79.7007 54.5432 79.464V79.3456L56.1613 77.8857L53.9512 77.6885V77.5701C53.8328 77.3334 53.7933 77.0572 53.7539 76.8204V76.7021L55.3325 75.5973L53.4776 75.2422V75.1238C53.4381 74.8082 53.3987 74.532 53.3592 74.2163V74.098L55.0168 73.1905L53.2803 72.6381V72.5198C53.2803 72.1646 53.2803 71.8095 53.2803 71.4544V71.3361L55.0168 70.7442L53.4381 69.9157V69.7973C53.5171 69.4422 53.5565 69.0871 53.6355 68.732V68.6136L55.372 68.3374L53.9907 67.2721V67.1538C54.1091 66.8381 54.2275 66.5225 54.3459 66.2068V66.0885L56.2797 66.0095L54.9379 64.7075V64.5891C55.1352 64.2735 55.2931 63.9578 55.4509 63.6817L55.5299 63.5633L57.3453 63.8395L56.2797 62.3007L56.3587 62.1823C56.5165 61.9456 56.6744 61.6694 56.8717 61.4327L56.9507 61.3143L58.8451 61.7483L57.8979 60.1306L57.9768 60.0517C58.1347 59.8544 58.332 59.6177 58.5293 59.4204L58.6083 59.3415L60.621 60.2095L59.8317 58.1578L59.9106 58.0789C59.9106 58.0789 60.2658 57.7633 60.5026 57.6055L60.5816 57.5266L62.2786 58.4735L61.805 56.6585L61.9234 56.5796C62.1602 56.4218 62.4365 56.264 62.7128 56.1061L62.8312 56.0272L64.3704 57.132L64.1336 55.317H64.252C64.5677 55.1198 64.8834 54.9619 65.1992 54.8436H65.3176L66.62 56.1061V54.2912H66.7778C67.133 54.1728 67.4882 54.0939 67.804 53.9755H67.9223L68.909 55.3959L69.2642 53.6599H69.3826C69.6589 53.581 69.9351 53.5415 70.2509 53.5021H70.3693L71.3559 55.2776L71.9479 53.3837H72.1847C72.4215 53.3837 72.6583 53.3837 72.8557 53.3837H73.0925L73.7634 55.317L74.7106 53.5021H74.829C75.1053 53.5415 75.421 53.581 75.7367 53.6599H75.8551L76.1709 55.7116L77.4338 54.0544H77.5522C77.789 54.1334 78.0258 54.2123 78.302 54.2912H78.4205L78.4994 56.3823L79.9596 54.883H80.078C80.3148 55.0408 80.5516 55.1198 80.8279 55.2776H80.9463L80.67 57.3293L82.4066 56.1061L82.525 56.1851C82.7223 56.3034 82.9591 56.4612 83.1959 56.6191L83.3143 56.698L82.8407 58.5524L84.5378 57.6055L84.6167 57.6844C84.8535 57.8817 85.0903 58.0395 85.2876 58.2368L85.3666 58.3157L84.6562 60.2095L86.5111 59.4204L86.59 59.4993C86.7873 59.7361 86.9847 59.9334 87.182 60.1701L87.2609 60.249L86.1954 62.064L88.2871 61.5905L88.366 61.7089C88.5239 61.9061 88.6817 62.1429 88.8396 62.4191L88.9185 62.5374L87.5372 64.1551L89.7868 64.0368V64.1551C89.7868 64.1551 89.9841 64.4708 90.0631 64.6286V64.747L88.6028 66.2857H90.7735L90.8129 66.4436C90.8919 66.6803 90.9708 66.917 91.0497 67.1932V67.3116L89.3921 68.5347L91.4839 68.9293V69.0476C91.5628 69.2844 91.6023 69.5606 91.6417 69.8368V69.9551L90.0236 70.8626L91.7996 71.415V71.5334C91.7996 71.8095 91.7996 72.1252 91.8391 72.4408V72.5592L90.0631 73.3089L91.7996 74.0585V74.1769C91.7996 74.4925 91.7207 74.8476 91.6812 75.1633V75.2817L89.7868 75.7157L91.4049 76.781V76.8993C91.326 77.215 91.2471 77.5306 91.1287 77.8463V77.9646L89.1553 78.083L90.6156 79.464V79.5823C90.4577 79.8585 90.3788 80.0953 90.2604 80.332V80.4504L88.1292 80.3715L89.5105 81.9102L89.4316 82.0286C89.3132 82.2653 89.1948 82.4626 89.0764 82.6599L88.9975 82.7782L86.6689 82.3048L87.9319 84.3565L87.8529 84.4748C87.8529 84.4748 87.6161 84.7905 87.4583 84.9483L87.3793 85.0272L85.3666 84.3959L86.2743 86.2898L86.1954 86.3687C86.1954 86.3687 85.8402 86.7238 85.6428 86.9211L85.5639 87L83.63 86.132L84.301 88.0653L84.1826 88.1442C83.9458 88.3415 83.709 88.4993 83.4722 88.6572L83.3538 88.7361L81.6172 87.5524L81.9724 89.5646L81.854 89.6436C81.5778 89.8014 81.3015 89.9197 81.0647 90.0776H80.9463L79.486 88.7361V90.7878L79.3676 90.8272C79.1308 90.9061 78.8546 91.0245 78.6178 91.1034H78.4994L77.3549 89.8014L77.1575 91.5374H77.0391C76.6839 91.6558 76.2893 91.7347 75.9735 91.8136H75.8551L74.9869 90.3538L74.4738 92.0109H74.3554C74.0397 92.0504 73.6845 92.0898 73.3687 92.0898H73.2503L72.5005 90.4327L71.8295 92.0898L71.869 91.8925ZM71.0007 91.4585C71.1981 91.4585 71.4349 91.4585 71.6322 91.498L72.5005 89.2885L73.5266 91.498C73.7634 91.498 74.0002 91.498 74.237 91.4585L74.9079 89.2095L76.0525 91.2218C76.3287 91.1823 76.605 91.1034 76.8418 91.064L77.1181 88.7361L78.6572 90.551C78.6572 90.551 78.973 90.4327 79.1703 90.3538V87.7102L81.0647 89.5252C81.262 89.4463 81.4594 89.3279 81.6172 89.249L81.1831 86.6449L83.4327 88.1442C83.4327 88.1442 83.7879 87.9075 83.9458 87.7891L83.0775 85.3034L85.5639 86.4082C85.5639 86.4082 85.8007 86.1714 85.9191 86.0531L84.7351 83.6463L87.3399 84.4748C87.3399 84.4748 87.4977 84.2776 87.5767 84.1987L85.998 81.634L88.9185 82.2259C88.9185 82.2259 89.0764 81.9497 89.1553 81.8313L87.4188 79.8585L90.1025 79.9374C90.1025 79.9374 90.2209 79.6218 90.2999 79.4245L88.4055 77.649L90.9313 77.5306C91.0103 77.2939 91.0497 77.0966 91.0892 76.8599L88.958 75.4789L91.4444 74.8871C91.4444 74.6504 91.4839 74.4136 91.5233 74.1769L89.2343 73.1905L91.5628 72.2041C91.5628 71.9674 91.5628 71.7701 91.5628 71.5334L89.1948 70.8232L91.3655 69.6C91.3655 69.6 91.2865 69.2449 91.2865 69.0476L88.6028 68.5347L90.7735 66.9959C90.7735 66.9959 90.6551 66.6803 90.6156 66.5225L87.8529 66.4436L89.7868 64.4708C89.7868 64.4708 89.7079 64.3129 89.6684 64.1946L86.8268 64.3524L88.6028 62.3007C88.6028 62.3007 88.4055 61.9851 88.2871 61.8272L85.6428 62.4585L86.9847 60.1306C86.9847 60.1306 86.7084 59.815 86.5505 59.6572L84.1431 60.683L85.0508 58.2368C85.0508 58.2368 84.7351 57.9606 84.5772 57.8422L82.3671 59.1048L82.9591 56.698C82.9591 56.698 82.6434 56.5007 82.4855 56.4218L80.2754 58L80.6306 55.3959C80.6306 55.3959 80.3148 55.2381 80.157 55.1592L78.2626 57.0925L78.1836 54.449C78.1836 54.449 77.8284 54.3306 77.6706 54.2912L76.013 56.4612L75.6183 53.8572C75.421 53.8572 75.1842 53.7783 74.9869 53.7783L73.7634 56.1456L72.8951 53.6204C72.6978 53.6204 72.461 53.6204 72.2637 53.6204L71.4743 56.1061L70.1719 53.7783C69.9746 53.7783 69.7773 53.8177 69.5799 53.8572L69.1063 56.1851L67.7645 54.2517C67.5277 54.3306 67.2514 54.4095 67.0146 54.4885L66.9357 56.8953L65.1992 55.1592C64.9624 55.2776 64.7256 55.3565 64.4888 55.4749L64.844 57.8422L62.7917 56.3823C62.7917 56.3823 62.4365 56.6191 62.2392 56.7374L62.8706 59.1442L60.6605 57.9211C60.6605 57.9211 60.3842 58.1184 60.2658 58.2368L61.2525 60.8803L58.6872 59.7755C58.6872 59.7755 58.4109 60.0517 58.2925 60.2095L59.5555 62.3402L57.0691 61.7483C57.0691 61.7483 56.8323 62.1034 56.7139 62.2612L58.1347 64.2735L55.7272 63.9184C55.6088 64.1551 55.4904 64.3524 55.4115 64.5891L57.148 66.3252L54.6616 66.4041C54.5827 66.6408 54.5037 66.8776 54.4248 67.1143L56.2797 68.5347L53.9907 68.8898C53.9512 69.1266 53.9117 69.4027 53.8328 69.6789L55.9245 70.7837L53.6355 71.5728C53.6355 71.849 53.6355 72.0857 53.6355 72.3619L55.9245 73.1116L53.7144 74.3347C53.7144 74.5714 53.7539 74.7687 53.7933 75.0055L56.2403 75.4789L54.1485 76.9388C54.1485 76.9388 54.2275 77.2544 54.2669 77.4123L57.0691 77.6885L54.9379 79.5429C54.9379 79.5429 55.0563 79.898 55.1352 80.0558L57.6216 79.8585L56.0035 81.8313C56.0035 81.8313 56.2008 82.1864 56.3192 82.3837L58.7661 81.9891L57.3848 84.0014C57.5427 84.1987 57.7005 84.3959 57.8189 84.5932L60.1474 83.7646L59.1213 86.0531C59.1213 86.0531 59.516 86.4476 59.7133 86.6449L61.7656 85.6191L61.0946 87.7891C61.3314 87.947 61.5682 88.1442 61.7656 88.3021L63.6205 86.9211L63.3442 89.249C63.581 89.3674 63.8178 89.5252 64.0941 89.6436L65.7122 87.9864L65.8306 90.3932C66.0674 90.4721 66.2648 90.551 66.5016 90.6299L67.9618 88.7361L68.3565 91.1429C68.3565 91.1429 68.7117 91.2218 68.909 91.2612L70.3298 88.9728L71.0402 91.5769L71.0007 91.4585ZM72.5399 88.1442C67.6066 88.1442 62.9101 85.7769 59.9896 81.7919L59.8712 81.634L67.3304 77.3334L67.4488 77.4517C68.7906 78.8721 70.6061 79.6218 72.5399 79.6218C74.4738 79.6218 76.2893 78.8327 77.6311 77.4517L77.7495 77.3334L85.2087 81.634L85.0903 81.7919C82.1698 85.7374 77.4732 88.1048 72.5399 88.1048V88.1442ZM60.4237 81.7524C63.3048 85.5402 67.8039 87.7891 72.5399 87.7891C77.2759 87.7891 81.7751 85.5402 84.6562 81.7919L77.789 77.8068C76.4076 79.2272 74.5133 79.9769 72.5399 79.9769C70.5666 79.9769 68.6722 79.1878 67.2909 77.7674L60.4237 81.7129V81.7524ZM86.7084 79.0694L79.2492 74.7687V74.6109C79.486 73.9402 79.6044 73.2694 79.6044 72.5592C79.6044 69.2844 77.3548 66.4436 74.1975 65.6939H74.0397V57.0531H74.237C82.1698 57.9211 88.1292 64.5891 88.1292 72.5592C88.1292 74.7687 87.6951 76.8599 86.7873 78.8721L86.7084 79.0694ZM79.6834 74.5714L86.5505 78.517C87.3793 76.6231 87.774 74.6109 87.774 72.5592C87.774 64.8259 82.0514 58.3946 74.3949 57.4476V65.3783C77.6706 66.2068 79.9596 69.1265 79.9596 72.5592C79.9596 73.2299 79.8807 73.9007 79.6834 74.5714ZM58.3715 79.03L58.2925 78.8327C57.4243 76.8599 56.9901 74.7293 56.9901 72.5592C56.9901 64.5891 62.9496 57.9606 70.8429 57.0925H71.0402V65.6939H70.8823C67.725 66.483 65.5149 69.3238 65.5149 72.5592C65.5149 73.2299 65.6333 73.9402 65.7912 74.5714V74.6898L58.3715 78.9905V79.03ZM70.685 57.4871C63.068 58.434 57.3453 64.8653 57.3453 72.5592C57.3453 74.6109 57.74 76.6231 58.5688 78.517L65.436 74.5714C65.2386 73.9402 65.1597 73.2694 65.1597 72.5987C65.1597 69.2055 67.4093 66.2857 70.685 65.4572V57.5266V57.4871ZM72.5399 74.5714C71.4349 74.5714 70.5271 73.664 70.5271 72.5592C70.5271 71.4544 71.4349 70.547 72.5399 70.547C73.645 70.547 74.5527 71.4544 74.5527 72.5592C74.5527 73.664 73.645 74.5714 72.5399 74.5714ZM72.5399 70.9415C71.6322 70.9415 70.9218 71.6912 70.9218 72.5592C70.9218 73.4272 71.6717 74.1769 72.5399 74.1769C73.4082 74.1769 74.1581 73.4272 74.1581 72.5592C74.1581 71.6912 73.4082 70.9415 72.5399 70.9415Z" fill="#FDE1BD"/>
</svg>
