<svg width="148" height="147" viewBox="0 0 148 147" fill="none" xmlns="http://www.w3.org/2000/svg">
<path d="M71.1152 146.132H70.6043C69.4804 146.081 68.3053 145.98 67.1303 145.879H66.6705L64.5759 138.191L60.3866 144.968L59.9268 144.867C58.8029 144.665 57.7811 144.463 56.8104 144.21L56.3506 144.109L55.2778 137.281L51.1396 142.642L50.6798 142.49C49.4537 142.086 48.2786 141.681 47.1036 141.226L46.6949 141.074L46.3884 134.247L41.7904 138.95L41.3306 138.748C40.1045 138.141 38.8273 137.483 37.6011 136.826L37.1924 136.624L38.0098 130.049L32.7477 133.893L32.339 133.64C31.2151 132.881 30.04 132.021 28.865 131.162L28.4563 130.858L30.3466 124.84L24.5736 127.672L24.2159 127.369C23.1942 126.458 22.1724 125.497 21.2017 124.486L20.8441 124.132L23.8072 117.507L17.0125 119.884L16.7059 119.53C15.8885 118.569 15.1222 117.557 14.3559 116.495L14.0493 116.091L18.0342 110.274L10.9329 111.438L10.6775 111.033C10.1155 110.123 9.55355 109.162 8.99158 108.15L8.78722 107.746L13.4874 101.98L6.18171 102.537L5.97735 102.081C5.56865 101.121 5.15994 100.16 4.80232 99.1987L4.64905 98.7435L11.0351 93.2309L2.60551 92.4723L2.50334 92.0172C2.24789 91.0562 2.04354 90.1459 1.83919 89.2356L1.73701 88.7804L7.81654 84.5827L0.715239 83.1666V82.6609C0.510885 81.5483 0.357619 80.3851 0.255442 79.2218V78.7667L6.59041 75.3276L0 73.2541V72.7483C0 71.4334 0.0510884 70.1185 0.153265 68.753V68.2978L6.79477 66.0725L0.766327 62.9369V62.4312C1.02177 61.0151 1.27721 59.7002 1.53265 58.3852L1.63483 57.9301L8.17416 56.9186L2.91204 52.8726L3.06531 52.4175C3.42293 51.2037 3.83164 49.9899 4.24035 48.7761L4.39361 48.3209L11.546 48.0681L6.48824 43.1624L6.69259 42.7072C7.20348 41.544 7.81654 40.3808 8.4296 39.2176L8.63396 38.7624L15.5309 39.7739L11.4438 34.0084L11.6993 33.6038C12.3123 32.6429 12.9765 31.682 13.6406 30.7717L13.8961 30.4176L21.0995 32.0866L17.4723 25.9165L17.7788 25.5625C18.4429 24.8039 19.1582 23.9947 19.9245 23.1855L20.231 22.8315L27.9454 26.0682L24.9823 18.2798L25.3399 17.9764C26.0551 17.3695 26.7704 16.7626 27.5878 16.1051L27.9454 15.8017L34.3826 19.3419L32.5945 12.4638L33.0032 12.2109C33.9739 11.5534 34.9956 10.9465 35.9663 10.3396L36.375 10.0868L42.3013 14.2844L41.3306 7.4569L41.7904 7.2546C42.9654 6.69829 44.1916 6.14197 45.4177 5.63623L45.8264 5.43393L50.782 10.3396L50.9863 3.56268L51.4461 3.41096C52.7744 3.00636 54.1027 2.60177 55.3799 2.29832L55.8397 2.19717L59.6203 7.60862L60.9997 1.08454L61.4595 0.98339C62.4812 0.831667 63.5541 0.679943 64.7291 0.52822H65.1889L68.9695 7.2546L71.2684 0.0224775H72.2391C73.1076 0.0224775 73.9761 -0.0280968 74.8447 0.0224775H75.7642L78.3698 7.40633L81.997 0.477647H82.4568C83.5297 0.679944 84.6536 0.831666 85.8798 1.03396L86.3906 1.13511L87.6168 8.77183L92.4702 2.45004L92.93 2.55119C93.8496 2.80406 94.8202 3.05694 95.842 3.41096L96.3018 3.56268L96.5573 11.3005L102.177 5.6868L102.586 5.8891C103.454 6.24312 104.374 6.64771 105.396 7.15345L105.855 7.35575L104.782 14.9419L111.373 10.2891L111.782 10.5419C112.599 11.0477 113.416 11.5534 114.387 12.1603L114.796 12.4132L113.008 19.3924L119.445 15.8017L119.803 16.1051C120.671 16.8131 121.54 17.5212 122.357 18.2292L122.715 18.5327L120.007 25.6637L127.057 22.6798L127.364 23.0338C128.13 23.843 128.947 24.7027 129.663 25.5625L129.969 25.9165L125.933 32.7441L133.852 30.8728L134.107 31.2774C134.669 32.0866 135.231 32.9464 135.895 33.9578L136.151 34.3624L130.889 40.4819L139.421 40.0268L139.625 40.4314C139.931 41.0382 140.238 41.6451 140.544 42.3026L140.749 42.7578L134.925 48.5232L143.201 48.7255L143.354 49.1807C143.661 50.091 143.967 51.052 144.274 51.9623L144.427 52.4175L137.99 56.9692L145.96 58.4864L146.062 58.9415C146.266 59.9025 146.42 60.8634 146.573 61.976V62.4312L140.391 65.9208L147.237 67.9944V68.4495C147.339 69.5116 147.39 70.6748 147.39 71.9391V72.3943L140.647 75.2265L147.237 78.0586V78.5644C147.084 79.8287 146.982 81.0425 146.828 82.3069V82.7621L139.523 84.431L145.755 88.4769L145.653 88.9321C145.398 90.1459 145.091 91.3091 144.734 92.4723L144.58 92.9275L137.224 93.3321L142.741 98.4907L142.588 98.8953C142.23 99.8562 141.822 100.817 141.464 101.727L141.26 102.183L133.341 101.93L138.552 107.746L138.297 108.15C137.837 108.96 137.377 109.769 136.917 110.527L136.662 110.932L127.772 109.111L132.626 116.799L132.319 117.153C131.859 117.759 131.349 118.417 130.838 119.024L130.531 119.378L122.766 116.9L126.24 124.031L125.882 124.385C125.218 125.042 124.554 125.7 123.787 126.408L123.43 126.711L116.022 123.424L118.627 130.757L118.219 131.061C117.299 131.718 116.38 132.426 115.46 133.033L115.051 133.286L108.461 128.886L109.789 136.523L109.38 136.775C108.359 137.332 107.337 137.888 106.315 138.394L105.855 138.596L100.338 133.286V140.973L99.8269 141.125C98.8562 141.479 97.8856 141.833 96.966 142.136L96.5062 142.288L92.1636 137.18L91.3973 143.755L90.9375 143.856C89.5581 144.21 88.1277 144.463 86.7994 144.716L86.3396 144.817L83.0699 139.203L81.1796 145.525H80.7198C79.4937 145.676 78.2165 145.778 76.9904 145.828H76.5306L73.6185 139.608L71.1152 145.879V146.132ZM67.7944 144.564C68.6118 144.614 69.4293 144.665 70.1956 144.716L73.5163 136.421L77.3991 144.716C78.3187 144.716 79.2383 144.614 80.1578 144.513L82.7123 136.017L87.0548 143.552C88.0766 143.35 89.0983 143.148 90.1201 142.895L91.1419 134.095L96.966 140.973C97.579 140.771 98.2432 140.518 98.8562 140.316L98.9584 130.352L106.111 137.18C106.826 136.826 107.541 136.421 108.257 136.067L106.571 126.205L115.102 131.87C115.767 131.415 116.38 130.959 117.044 130.504L113.723 121.097L123.277 125.346C123.787 124.89 124.247 124.435 124.656 124.031L120.211 114.877L130.122 118.012C130.429 117.658 130.684 117.304 130.991 116.95L124.962 107.341L136.049 109.617C136.355 109.111 136.662 108.606 136.917 108.1L130.225 100.615L140.442 100.969C140.698 100.362 140.953 99.7044 141.209 99.047L134.005 92.3206L143.61 91.8148C143.814 90.9551 144.07 90.0953 144.274 89.2861L136.151 84.0264L145.602 81.8517C145.704 80.9414 145.807 80.031 145.858 79.1713L137.173 75.4288L146.062 71.6863C146.062 70.8265 146.062 70.0173 145.96 69.2081L136.968 66.4771L145.193 61.8749C145.091 61.1668 144.938 60.5094 144.836 59.8519L134.618 57.8795L142.895 52.0634C142.69 51.4566 142.486 50.8497 142.281 50.2428L131.757 49.9899L139.165 42.606C139.012 42.252 138.859 41.9486 138.705 41.6451L127.874 42.2015L134.618 34.413C134.209 33.7555 133.801 33.1487 133.392 32.5923L123.225 34.9693L128.385 26.22C127.874 25.6131 127.313 25.0062 126.751 24.4499L117.606 28.2935L121.08 19.0384C120.518 18.5327 119.905 18.0775 119.343 17.5718L110.913 22.2752L113.212 13.1718C112.599 12.7672 112.037 12.4132 111.475 12.0592L102.994 18.0775L104.374 8.31666C103.71 8.01322 103.097 7.70977 102.484 7.4569L95.229 14.689L94.9224 4.72589C94.2583 4.52359 93.5941 4.32129 92.9811 4.16957L86.6972 12.312L85.1134 2.50062C84.296 2.34889 83.5297 2.24775 82.7634 2.1466L78.1143 11.0477L74.7936 1.59028C73.9761 1.59028 73.1587 1.59028 72.3413 1.59028L69.3782 10.9465L64.4737 2.19717C63.6563 2.29832 62.941 2.39947 62.2258 2.50062L60.3866 11.25L55.3288 3.96727C54.3582 4.22014 53.3875 4.47302 52.4168 4.77646L52.1614 13.7787L45.5709 7.2546C44.6513 7.6592 43.7318 8.06379 42.8633 8.46839L44.1405 17.4706L36.3239 11.958C35.6087 12.3626 34.8934 12.8178 34.2293 13.2729L36.5794 22.3257L28.1498 17.6729C27.6389 18.0775 27.128 18.4821 26.6682 18.8867L30.4487 28.7993L20.6398 24.7027C20.1289 25.2591 19.6691 25.7648 19.2093 26.2705L23.9605 34.3624L14.5091 32.1877C14.0493 32.8452 13.5895 33.5027 13.1297 34.1601L18.5451 41.7463L9.40028 40.4314C8.94049 41.2911 8.53178 42.1509 8.12307 43.0106L14.8157 49.4841L5.36429 49.7876C5.05776 50.6979 4.75123 51.5577 4.49579 52.468L11.546 57.8795L2.75878 59.245C2.55442 60.2059 2.40116 61.2174 2.24789 62.2289L10.2688 66.376L1.48156 69.3599C1.43048 70.3208 1.37939 71.3323 1.37939 72.2932L10.0644 75.0748L1.63483 79.6264C1.68592 80.4356 1.7881 81.2954 1.89028 82.1046L11.1884 83.9758L3.21857 89.4884C3.37184 90.0953 3.52511 90.7022 3.67837 91.3091L14.407 92.27L6.33497 99.2998C6.59042 99.9573 6.84586 100.615 7.15239 101.222L16.6549 100.463L10.4731 107.999C10.8818 108.707 11.2395 109.364 11.6482 110.022L21.0485 108.454L15.8374 116.091C16.3994 116.849 17.0125 117.608 17.5744 118.265L26.5149 115.13L22.6322 123.828C23.3985 124.587 24.1649 125.295 24.9312 126.003L32.7477 122.21L30.1933 130.352C31.0618 131.01 31.9303 131.667 32.7988 132.224L39.9001 127.065L38.7762 135.865C39.6958 136.371 40.6154 136.877 41.586 137.332L47.7167 131.061L48.1254 140.164C48.9939 140.467 49.8624 140.771 50.7309 141.074L56.2484 133.943L57.6789 142.996C58.3431 143.148 59.0583 143.299 59.8246 143.451L65.1889 134.752L67.8455 144.564H67.7944ZM73.7207 131.971C54.9201 131.971 37.0392 123.019 25.8508 107.999L25.391 107.392L53.8984 91.1068L54.256 91.5114C59.3648 96.8217 66.2618 99.8056 73.7207 99.8056C81.1796 99.8056 87.9744 96.8723 93.0832 91.6126L93.4408 91.208L121.948 107.493L121.488 108.1C110.3 123.07 92.4702 132.021 73.6696 132.021L73.7207 131.971ZM27.4345 107.796C38.3675 122.109 55.5843 130.605 73.7207 130.605C91.8571 130.605 109.023 122.109 119.956 107.897L93.7474 92.9275C88.3831 98.2378 81.3329 101.171 73.7207 101.171C66.1085 101.171 59.0072 98.2378 53.6429 92.8769L27.4345 107.847V107.796ZM127.721 97.732L99.2649 81.4471L99.4182 80.9414C100.185 78.4632 100.593 75.8334 100.593 73.2035C100.593 60.8128 92.0615 50.1922 79.9024 47.36L79.3915 47.2589V14.689L80.1578 14.7902C110.402 17.9764 133.188 43.1118 133.188 73.2541C133.188 81.5483 131.502 89.539 128.13 97.0746L127.823 97.7826L127.721 97.732ZM100.9 80.7896L127.057 95.7597C130.122 88.6287 131.706 81.0425 131.706 73.2035C131.706 44.0221 109.84 19.6453 80.7198 16.2063V46.1462C93.2365 49.2819 101.973 60.3576 101.973 73.2035C101.973 75.7828 101.615 78.3115 100.9 80.7896ZM19.6691 97.6309L19.3625 96.9229C16.0418 89.4379 14.3048 81.4471 14.3048 73.2035C14.3048 43.1624 37.0392 18.0269 67.1303 14.7902L67.8966 14.689V47.2589L67.3857 47.4106C55.2778 50.2933 46.8482 60.9139 46.8482 73.2541C46.8482 75.8334 47.2058 78.4127 47.9721 80.8908L48.1254 81.3965L19.618 97.6815L19.6691 97.6309ZM66.5683 16.2063C37.55 19.7465 15.7353 44.1233 15.7353 73.2035C15.7353 80.9919 17.2679 88.5781 20.3332 95.6585L46.5416 80.6885C45.8775 78.2609 45.5198 75.7322 45.5198 73.2035C45.5198 60.4082 54.1538 49.383 66.5683 46.1968V16.2568V16.2063ZM73.7207 80.7391C69.5314 80.7391 66.1085 77.3506 66.1085 73.2035C66.1085 69.0564 69.5314 65.6679 73.7207 65.6679C77.91 65.6679 81.3329 69.0564 81.3329 73.2035C81.3329 77.3506 77.91 80.7391 73.7207 80.7391ZM73.7207 67.0334C70.2978 67.0334 67.4879 69.815 67.4879 73.2035C67.4879 76.592 70.2978 79.3736 73.7207 79.3736C77.1436 79.3736 79.9535 76.592 79.9535 73.2035C79.9535 69.815 77.1436 67.0334 73.7207 67.0334Z" fill="#FDE1BD"/>
</svg>
