<svg width="69" height="81" viewBox="0 0 69 81" fill="none" xmlns="http://www.w3.org/2000/svg">
<path d="M46.4626 32.0804C48.4026 33.9311 50.4187 37.3703 52.126 41.5439C53.8274 45.7032 55.199 50.535 55.8788 55.1229C56.5605 59.7232 56.5378 64.0214 55.5022 67.1442C54.9864 68.6995 54.2285 69.9357 53.2083 70.7822C52.1951 71.6228 50.8886 72.1083 49.2137 72.1083C34.997 72.1083 18.632 69.1543 10.8162 55.7565C6.04823 47.5834 2.62741 35.9695 1.2161 25.2331C0.510912 19.8685 0.309962 14.7411 0.687354 10.3891C1.04152 6.30485 1.90063 2.95926 3.28284 0.734454C8.79517 5.15916 18.0196 11.5898 26.5925 17.5663L26.893 17.7758C31.3394 20.8756 35.5987 23.8467 39.0685 26.35C42.5488 28.8609 45.2035 30.8793 46.4626 32.0804Z" fill="#F1AA7C" stroke="#091729" stroke-linejoin="round"/>
<path d="M7.29199 16.4933C16.9131 41.9204 44.4019 68.0348 68.111 80.4048" stroke="#091729" stroke-linecap="round"/>
</svg>
