<svg width="400" height="400" viewBox="0 0 400 400" fill="none" xmlns="http://www.w3.org/2000/svg">
<path d="M212.5 50.0504C151.094 50.0504 99.1406 90.278 81.4844 145.737C107.734 132.458 137.344 125.038 168.75 125.038H237.5C244.375 125.038 250 130.662 250 137.536C250 144.41 244.375 150.034 237.5 150.034H225H168.75C155.781 150.034 143.203 151.518 131.016 154.252C110.781 158.86 92.0313 167.062 75.2344 178.232C29.9219 208.461 0 260.093 0 318.755V331.253C0 341.642 8.35937 350 18.75 350C29.1406 350 37.5 341.642 37.5 331.253V318.755C37.5 280.715 53.6719 246.502 79.5313 222.521C95 281.496 148.672 325.004 212.5 325.004H213.281C316.484 324.457 400 222.756 400 97.3862C400 64.1105 394.141 32.4752 383.516 3.9644C381.484 -1.42532 373.594 -1.19099 370.859 3.88629C356.172 31.3817 327.109 50.0504 293.75 50.0504H212.5Z" fill="black"/>
</svg>
