<svg width="71" height="70" viewBox="0 0 71 70" fill="none" xmlns="http://www.w3.org/2000/svg">
<ellipse cx="35.5" cy="35" rx="35.5" ry="35" fill="#FDE1BD"/>
<path d="M24.3573 21.3203C26.8244 18.3824 30.3446 16.3013 34.8525 16.3013C39.2962 16.3013 42.9368 18.107 45.5649 20.8038C48.3921 23.7048 49.036 27.4521 48.3444 31.3737C47.6508 35.306 45.6176 39.3679 43.1597 42.7851C41.5249 45.0579 39.2974 47.8953 37.5036 50.134C36.1361 51.8406 33.5671 51.84 32.208 50.1308C30.4349 47.9007 28.2494 45.0763 26.6774 42.7935C24.3867 39.4669 22.5381 35.5804 21.9033 31.7783C21.2699 27.9846 21.8475 24.3091 24.3573 21.3203Z" fill="#F1AA7C" stroke="#091729"/>
<circle cx="35.1058" cy="28.1763" r="7.83428" fill="#F1AA7C" stroke="#091729"/>
</svg>
