<svg width="400" height="400" viewBox="0 0 400 400" fill="none" xmlns="http://www.w3.org/2000/svg">
<path d="M364.507 49.3972C375.801 38.1038 375.801 19.7634 364.507 8.47002C353.214 -2.82334 334.874 -2.82334 323.58 8.47002L34.47 297.58C23.1767 308.874 23.1767 327.214 34.47 338.507C45.7634 349.801 64.1038 349.801 75.3972 338.507L364.507 49.3972ZM141.712 57.8898C141.712 42.5544 135.62 27.8472 124.776 17.0034C113.932 6.1597 99.2252 0.0677574 83.8898 0.0677574C68.5544 0.0677574 53.8472 6.1597 43.0034 17.0034C32.1597 27.8472 26.0678 42.5544 26.0678 57.8898C26.0678 73.2252 32.1597 87.9324 43.0034 98.7762C53.8472 109.62 68.5544 115.712 83.8898 115.712C99.2252 115.712 113.932 109.62 124.776 98.7762C135.62 87.9324 141.712 73.2252 141.712 57.8898ZM373 289.178C373 273.843 366.908 259.135 356.064 248.292C345.221 237.448 330.513 231.356 315.178 231.356C299.843 231.356 285.135 237.448 274.292 248.292C263.448 259.135 257.356 273.843 257.356 289.178C257.356 304.513 263.448 319.221 274.292 330.064C285.135 340.908 299.843 347 315.178 347C330.513 347 345.221 340.908 356.064 330.064C366.908 319.221 373 304.513 373 289.178Z" fill="black"/>
</svg>
