<svg width="85" height="78" viewBox="0 0 85 78" fill="none" xmlns="http://www.w3.org/2000/svg">
<path d="M35.5 29.5C35.5 34.2685 34.4289 39.1722 32.1965 42.8657C29.9737 46.5432 26.6197 49 22 49C17.3803 49 14.0263 46.5432 11.8035 42.8657C9.57113 39.1722 8.5 34.2685 8.5 29.5C8.5 24.7312 9.57129 19.6993 11.8072 15.8781C14.0353 12.0703 17.391 9.5 22 9.5C26.609 9.5 29.9647 12.0703 32.1928 15.8781C34.4287 19.6993 35.5 24.7312 35.5 29.5Z" fill="#F1AA7C" stroke="#091729"/>
<path d="M84.5 53.5C84.5 58.2685 83.4289 63.1722 81.1965 66.8657C78.9737 70.5432 75.6197 73 71 73C66.3803 73 63.0263 70.5432 60.8035 66.8657C58.5711 63.1722 57.5 58.2685 57.5 53.5C57.5 48.7312 58.5713 43.6993 60.8072 39.8781C63.0353 36.0703 66.391 33.5 71 33.5C75.609 33.5 78.9647 36.0703 81.1928 39.8781C83.4287 43.6993 84.5 48.7312 84.5 53.5Z" fill="#F1AA7C" stroke="#091729"/>
<path d="M76 1C64.1356 31.2366 30.2373 62.2903 0.999998 77" stroke="#091729" stroke-linecap="round"/>
</svg>
