<svg width="68" height="68" viewBox="0 0 68 68" fill="none" xmlns="http://www.w3.org/2000/svg">
<circle cx="34" cy="34" r="34" fill="#FDE1BD"/>
<mask id="path-2-inside-1_43_90" fill="white">
<path fill-rule="evenodd" clip-rule="evenodd" d="M37.3051 12.6885C37.4702 12.4109 37.7694 12.2407 38.0925 12.2407H42.4217C44.0786 12.2407 45.4217 13.5839 45.4217 15.2407V22.3518C45.4217 24.0086 44.0786 25.3518 42.4217 25.3518H39.3034C38.6974 25.3518 38.1307 25.0518 37.7899 24.5507C36.9289 23.2847 35.0167 23.583 34.6895 25.0788C33.3729 31.0989 33.3591 37.3404 34.6544 43.3729C34.936 44.6841 36.5925 45.0097 37.4175 43.9524C37.7296 43.5525 38.2085 43.3187 38.7158 43.3187H41.9366C43.5935 43.3187 44.9366 44.6618 44.9366 46.3187V53.4297C44.9366 55.0866 43.5935 56.4297 41.9366 56.4297H37.5843C37.2445 56.4297 36.9278 56.2574 36.7432 55.9721C36.5585 55.6868 36.2418 55.5145 35.902 55.5145H34.7382C31.8622 55.5145 29.2136 53.9511 27.824 51.4331L27.3912 50.6488C21.5628 40.0879 21.7506 27.2329 27.885 16.8467C29.2431 14.5472 31.715 13.1363 34.3856 13.1363H36.5177C36.8408 13.1363 37.14 12.9662 37.3051 12.6885Z"/>
</mask>
<path fill-rule="evenodd" clip-rule="evenodd" d="M37.3051 12.6885C37.4702 12.4109 37.7694 12.2407 38.0925 12.2407H42.4217C44.0786 12.2407 45.4217 13.5839 45.4217 15.2407V22.3518C45.4217 24.0086 44.0786 25.3518 42.4217 25.3518H39.3034C38.6974 25.3518 38.1307 25.0518 37.7899 24.5507C36.9289 23.2847 35.0167 23.583 34.6895 25.0788C33.3729 31.0989 33.3591 37.3404 34.6544 43.3729C34.936 44.6841 36.5925 45.0097 37.4175 43.9524C37.7296 43.5525 38.2085 43.3187 38.7158 43.3187H41.9366C43.5935 43.3187 44.9366 44.6618 44.9366 46.3187V53.4297C44.9366 55.0866 43.5935 56.4297 41.9366 56.4297H37.5843C37.2445 56.4297 36.9278 56.2574 36.7432 55.9721C36.5585 55.6868 36.2418 55.5145 35.902 55.5145H34.7382C31.8622 55.5145 29.2136 53.9511 27.824 51.4331L27.3912 50.6488C21.5628 40.0879 21.7506 27.2329 27.885 16.8467C29.2431 14.5472 31.715 13.1363 34.3856 13.1363H36.5177C36.8408 13.1363 37.14 12.9662 37.3051 12.6885Z" fill="#F1AA7C"/>
<path d="M27.824 51.4331L26.9484 51.9162H26.9484L27.824 51.4331ZM27.3912 50.6488L28.2667 50.1657L28.2667 50.1657L27.3912 50.6488ZM27.885 16.8467L28.746 17.3553L27.885 16.8467ZM34.6544 43.3729L33.6767 43.5828L34.6544 43.3729ZM42.4217 11.2407H38.0925V13.2407H42.4217V11.2407ZM46.4217 22.3518V15.2407H44.4217V22.3518H46.4217ZM39.3034 26.3518H42.4217V24.3518H39.3034V26.3518ZM33.7126 24.8651C32.3655 31.0246 32.3514 37.4106 33.6767 43.5828L35.6321 43.163C34.3669 37.2702 34.3803 31.1731 35.6664 25.2924L33.7126 24.8651ZM41.9366 42.3187H38.7158V44.3187H41.9366V42.3187ZM45.9366 53.4297V46.3187H43.9366V53.4297H45.9366ZM37.5843 57.4297H41.9366V55.4297H37.5843V57.4297ZM35.902 54.5145H34.7382V56.5145H35.902V54.5145ZM34.7382 54.5145C32.2264 54.5145 29.9131 53.149 28.6995 50.9499L26.9484 51.9162C28.514 54.7531 31.498 56.5145 34.7382 56.5145V54.5145ZM28.6995 50.9499L28.2667 50.1657L26.5157 51.132L26.9484 51.9162L28.6995 50.9499ZM28.2667 50.1657C22.6094 39.9146 22.7917 27.4367 28.746 17.3553L27.0239 16.3382C20.7096 27.0291 20.5163 40.2612 26.5157 51.132L28.2667 50.1657ZM28.746 17.3553C29.9243 15.3603 32.0688 14.1363 34.3856 14.1363V12.1363C31.3613 12.1363 28.562 13.7341 27.0239 16.3382L28.746 17.3553ZM34.3856 14.1363H36.5177V12.1363H34.3856V14.1363ZM36.5177 14.1363C37.1934 14.1363 37.8192 13.7804 38.1646 13.1997L36.4456 12.1773C36.4607 12.1519 36.4881 12.1363 36.5177 12.1363V14.1363ZM37.5827 55.4288C37.2138 54.8587 36.581 54.5145 35.902 54.5145V56.5145C35.9026 56.5145 35.9033 56.5149 35.9036 56.5154L37.5827 55.4288ZM37.5843 55.4297C37.5837 55.4297 37.583 55.4294 37.5827 55.4288L35.9036 56.5154C36.2726 57.0855 36.9053 57.4297 37.5843 57.4297V55.4297ZM43.9366 53.4297C43.9366 54.5343 43.0412 55.4297 41.9366 55.4297V57.4297C44.1458 57.4297 45.9366 55.6388 45.9366 53.4297H43.9366ZM41.9366 44.3187C43.0412 44.3187 43.9366 45.2141 43.9366 46.3187H45.9366C45.9366 44.1095 44.1458 42.3187 41.9366 42.3187V44.3187ZM38.2059 44.5676C38.3285 44.4105 38.5166 44.3187 38.7158 44.3187V42.3187C37.9005 42.3187 37.1307 42.6944 36.6291 43.3372L38.2059 44.5676ZM33.6767 43.5828C34.1519 45.7959 36.9047 46.2352 38.2059 44.5676L36.6291 43.3372C36.4624 43.5509 36.2328 43.6121 36.0328 43.5711C35.8401 43.5317 35.6835 43.4023 35.6321 43.163L33.6767 43.5828ZM38.6168 23.9884C37.3147 22.0738 34.2471 22.4215 33.7126 24.8651L35.6664 25.2924C35.7363 24.9729 35.9504 24.8073 36.2022 24.7658C36.4632 24.7227 36.7621 24.8176 36.963 25.1131L38.6168 23.9884ZM39.3034 24.3518C39.0285 24.3518 38.7714 24.2157 38.6168 23.9884L36.963 25.1131C37.49 25.888 38.3664 26.3518 39.3034 26.3518V24.3518ZM44.4217 22.3518C44.4217 23.4563 43.5263 24.3518 42.4217 24.3518V26.3518C44.6308 26.3518 46.4217 24.5609 46.4217 22.3518H44.4217ZM38.0925 11.2407C37.4168 11.2407 36.791 11.5966 36.4456 12.1773L38.1646 13.1997C38.1494 13.2251 38.122 13.2407 38.0925 13.2407V11.2407ZM42.4217 13.2407C43.5263 13.2407 44.4217 14.1362 44.4217 15.2407H46.4217C46.4217 13.0316 44.6308 11.2407 42.4217 11.2407V13.2407Z" fill="#091729" mask="url(#path-2-inside-1_43_90)"/>
</svg>
