<svg width="384" height="512" viewBox="0 0 384 512" fill="none" xmlns="http://www.w3.org/2000/svg">
<path d="M342.601 150.6C355.101 138.1 355.101 117.8 342.601 105.3C330.101 92.8 309.801 92.8 297.301 105.3L192.001 210.7L86.6008 105.4C74.1008 92.9 53.8008 92.9 41.3008 105.4C28.8008 117.9 28.8008 138.2 41.3008 150.7L146.701 256L41.4008 361.4C28.9008 373.9 28.9008 394.2 41.4008 406.7C53.9008 419.2 74.2008 419.2 86.7008 406.7L192.001 301.3L297.401 406.6C309.901 419.1 330.201 419.1 342.701 406.6C355.201 394.1 355.201 373.8 342.701 361.3L237.301 256L342.601 150.6Z" fill="white"/>
</svg>
