<?xml version="1.0" encoding="UTF-8"?>
<svg id="Calque_2" xmlns="http://www.w3.org/2000/svg" viewBox="0 0 386.6 165.21">
  <defs>
    <style>
      .cls-1 {
        stroke: #fff;
        stroke-miterlimit: 10;
        stroke-width: .5px;
      }

      .cls-1, .cls-2 {
        fill: #fff;
      }
    </style>
  </defs>
  <g id="Calque_1-2" data-name="Calque_1">
    <g>
      <path class="cls-1" d="M341.96,85.99h-.29c-.67-.04-1.34-.08-2.01-.14l-.28-.02-1.21-4.49-2.44,3.99-.27-.05c-.64-.12-1.23-.25-1.81-.38l-.26-.06-.63-4.01-2.42,3.15-.27-.09c-.7-.23-1.4-.48-2.07-.74l-.25-.1-.18-4.01-2.67,2.77-.26-.13c-.73-.36-1.46-.74-2.17-1.14l-.24-.13.49-3.85-3.07,2.26-.24-.16c-.67-.45-1.35-.94-2.03-1.47l-.22-.17,1.1-3.53-3.36,1.65-.2-.18c-.59-.53-1.18-1.1-1.75-1.68l-.19-.2,1.72-3.88-3.95,1.41-.18-.22c-.46-.56-.93-1.16-1.38-1.77l-.17-.23,2.31-3.41-4.14.69-.14-.23c-.33-.54-.66-1.11-.98-1.69l-.13-.24,2.74-3.38-4.24.33-.11-.26c-.24-.56-.47-1.13-.69-1.69l-.1-.26,3.71-3.25-4.92-.45-.07-.27c-.15-.55-.28-1.1-.4-1.62l-.06-.26,3.53-2.48-4.12-.83-.04-.29c-.09-.66-.16-1.34-.22-2.03l-.02-.26,3.71-2.03-3.83-1.23v-.3c0-.77.03-1.55.08-2.34l.02-.27,3.84-1.32-3.51-1.83.04-.28c.12-.82.26-1.62.41-2.37l.06-.28,3.8-.59-3.06-2.37.08-.27c.21-.71.44-1.43.69-2.14l.09-.26,4.17-.14-2.94-2.9.12-.26c.31-.68.65-1.37,1.01-2.05l.13-.25,4.01.58-2.39-3.37.15-.23c.36-.56.74-1.12,1.12-1.66l.16-.22,4.18.98-2.12-3.62.19-.22c.39-.46.81-.92,1.24-1.39l.19-.21,4.5,1.9-1.72-4.59.21-.18c.4-.35.83-.71,1.3-1.09l.21-.17,3.74,2.08-1.05-4.06.24-.16c.57-.38,1.15-.74,1.73-1.09l.23-.14,3.44,2.45-.57-4.01.27-.13c.67-.32,1.39-.64,2.12-.95l.25-.1,2.88,2.9.12-3.99.27-.09c.77-.25,1.55-.47,2.29-.66l.27-.07,2.21,3.19.8-3.83.27-.05c.6-.1,1.22-.19,1.9-.27l.27-.03,2.2,3.98,1.34-4.24h.56c.51-.03,1.02-.03,1.52-.02h.52s1.51,4.33,1.51,4.33l2.1-4.07.28.03c.63.07,1.28.17,1.98.28l.29.05.71,4.48,2.84-3.71.26.07c.54.14,1.09.31,1.69.49l.27.09.14,4.56,3.28-3.3.25.11c.51.22,1.04.46,1.64.74l.27.13-.63,4.47,3.84-2.74.23.14c.47.28.96.6,1.5.96l.24.16-1.03,4.09,3.74-2.11.21.17c.51.41,1.01.83,1.47,1.24l.21.18-1.57,4.19,4.1-1.74.19.2c.46.48.91.99,1.35,1.5l.19.22-2.34,4.01,4.61-1.08.16.22c.32.47.67.98,1.04,1.57l.16.25-3.08,3.61,4.96-.27.12.24c.18.36.36.72.53,1.09l.12.26-3.38,3.4,4.8.11.09.27c.19.54.36,1.09.53,1.64l.08.28-3.75,2.67,4.63.9.05.27c.11.56.21,1.14.31,1.77l.04.28-3.63,2.04,3.98,1.23.02.28c.04.63.06,1.29.08,2.04v.27s-3.93,1.67-3.93,1.67l3.84,1.67-.02.29c-.06.73-.13,1.47-.22,2.19l-.04.28-4.2.99,3.61,2.37-.06.27c-.16.7-.33,1.4-.52,2.09l-.08.28-4.28.23,3.21,3.04-.1.25c-.22.57-.44,1.13-.67,1.65l-.11.25-4.61-.16,3.02,3.4-.14.25c-.27.48-.54.96-.81,1.41l-.15.25-5.16-1.07,2.81,4.52-.17.22c-.28.37-.57.73-.86,1.09l-.17.21-4.51-1.44,2.03,4.2-.2.2c-.38.38-.78.77-1.23,1.18l-.2.18-4.32-1.94,1.51,4.3-.23.18c-.52.4-1.06.79-1.61,1.16l-.23.16-3.84-2.58.76,4.5-.25.14c-.59.32-1.19.64-1.79.94l-.26.13-3.21-3.11-.04,4.52-.26.1c-.56.21-1.12.41-1.66.59l-.26.09-2.52-3.01-.44,3.85-.27.07c-.82.2-1.62.37-2.39.5l-.28.05-1.89-3.3-1.11,3.71-.27.03c-.72.07-1.45.12-2.18.15h-.27s-1.69-3.65-1.69-3.65l-1.46,3.67ZM340.01,85.07c.47.04.94.07,1.41.09l1.94-4.89,2.25,4.88c.53-.03,1.06-.06,1.59-.11l1.5-4.99,2.54,4.44c.58-.11,1.18-.24,1.79-.38l.59-5.16,3.37,4.03c.36-.12.74-.26,1.11-.4l.06-5.85,4.15,4.02c.42-.21.84-.43,1.25-.66l-.98-5.79,4.95,3.33c.38-.26.75-.53,1.12-.81l-1.94-5.52,5.55,2.49c.29-.27.55-.53.81-.78l-2.59-5.38,5.77,1.85c.17-.21.34-.42.5-.64l-3.51-5.65,6.44,1.33c.17-.29.34-.59.51-.89l-3.89-4.38,5.94.2c.15-.36.3-.74.45-1.12l-4.18-3.96,5.58-.3c.13-.5.26-1,.37-1.5l-4.72-3.09,5.49-1.29c.06-.52.12-1.06.16-1.59l-5.04-2.19,5.17-2.19c-.01-.52-.03-.99-.05-1.45l-5.24-1.61,4.78-2.69c-.07-.42-.13-.81-.21-1.19l-5.95-1.16,4.81-3.43c-.11-.36-.22-.71-.34-1.06l-6.12-.14,4.3-4.34c-.09-.19-.19-.39-.28-.58l-6.31.34,3.91-4.59c-.25-.39-.48-.74-.7-1.06l-5.9,1.39,3-5.14c-.31-.35-.62-.71-.94-1.05l-5.32,2.25,2.03-5.43c-.33-.29-.67-.57-1.02-.86l-4.91,2.76,1.35-5.36c-.36-.23-.69-.45-1.01-.64l-4.94,3.52.81-5.74c-.38-.18-.74-.34-1.09-.49l-4.22,4.25-.18-5.87c-.39-.12-.76-.23-1.12-.33l-3.65,4.77-.92-5.76c-.48-.08-.93-.14-1.37-.2l-2.7,5.24-1.94-5.56c-.48-.01-.95,0-1.43,0l-1.73,5.49-2.85-5.15c-.46.06-.9.12-1.32.19l-1.07,5.13-2.96-4.28c-.56.15-1.13.31-1.7.49l-.15,5.3-3.82-3.85c-.54.23-1.06.46-1.56.7l.75,5.29-4.55-3.24c-.41.25-.83.51-1.23.78l1.37,5.32-4.91-2.73c-.3.24-.58.48-.85.71l2.19,5.82-5.71-2.42c-.29.31-.57.63-.84.94l2.78,4.75-5.48-1.29c-.27.38-.53.78-.79,1.17l3.16,4.46-5.31-.77c-.26.5-.51,1.01-.74,1.51l3.88,3.82-5.5.19c-.18.52-.35,1.05-.51,1.57l4.11,3.18-5.11.79c-.11.57-.21,1.16-.31,1.77l4.67,2.44-5.1,1.75c-.03.58-.05,1.16-.06,1.73l5.06,1.63-4.9,2.68c.04.49.09.97.15,1.45l5.4,1.09-4.62,3.25c.08.35.17.7.26,1.06l6.23.58-4.71,4.12c.15.38.3.76.46,1.13l5.54-.43-3.59,4.42c.23.41.46.81.69,1.19l5.45-.91-3.04,4.49c.33.44.67.88,1.01,1.29l5.19-1.85-2.26,5.1c.44.44.88.86,1.32,1.27l4.56-2.24-1.5,4.79c.51.39,1.02.76,1.53,1.11l4.12-3.03-.65,5.18c.54.3,1.08.58,1.63.86l3.57-3.7.24,5.36c.49.19,1,.37,1.51.54l3.22-4.19.84,5.33c.4.09.81.18,1.24.26l3.13-5.11,1.55,5.76ZM343.47,77.68c-10.94,0-21.35-5.27-27.84-14.09l-.27-.36,16.57-9.57.22.23c2.98,3.13,7,4.86,11.31,4.86s8.3-1.71,11.27-4.82l.22-.23,16.58,9.57-.27.36c-6.5,8.79-16.89,14.04-27.81,14.04ZM316.55,63.48c6.36,8.4,16.39,13.4,26.92,13.4s20.52-4.98,26.88-13.35l-15.25-8.8c-3.11,3.12-7.22,4.84-11.64,4.84s-8.57-1.73-11.68-4.88l-15.24,8.8ZM374.88,57.54l-16.56-9.56.09-.31c.45-1.47.67-3,.67-4.54,0-7.29-4.95-13.54-12.04-15.2l-.31-.07V8.74l.45.05c17.58,1.88,30.84,16.65,30.84,34.35,0,4.87-.99,9.58-2.96,14l-.18.41ZM359.27,47.6l15.23,8.79c1.8-4.2,2.71-8.65,2.71-13.26,0-17.14-12.72-31.46-29.67-33.49v17.59c7.29,1.86,12.35,8.35,12.35,15.91,0,1.51-.21,3.01-.62,4.47ZM312.03,57.49l-.18-.41c-1.95-4.4-2.93-9.1-2.93-13.94,0-17.65,13.21-32.41,30.73-34.34l.45-.05v19.14l-.31.07c-7.03,1.7-11.94,7.94-11.94,15.17,0,1.52.22,3.03.66,4.48l.09.31-16.57,9.57ZM339.29,9.65c-16.89,2.08-29.56,16.39-29.56,33.48,0,4.58.9,9.02,2.68,13.2l15.23-8.8c-.4-1.44-.6-2.92-.6-4.41,0-7.51,5.02-13.99,12.25-15.88V9.65ZM343.47,47.57c-2.44,0-4.43-1.99-4.43-4.43s1.99-4.43,4.43-4.43,4.43,1.99,4.43,4.43-1.99,4.43-4.43,4.43ZM343.47,39.51c-2,0-3.63,1.63-3.63,3.63s1.63,3.63,3.63,3.63,3.63-1.63,3.63-3.63-1.63-3.63-3.63-3.63Z"/>
      <path class="cls-1" d="M41.63,85.99h-.29c-.67-.04-1.34-.08-2.01-.14l-.28-.02-1.21-4.49-2.44,3.99-.27-.05c-.64-.12-1.23-.25-1.81-.38l-.26-.06-.63-4.01-2.42,3.15-.27-.09c-.7-.23-1.4-.48-2.07-.74l-.25-.1-.18-4.01-2.67,2.77-.26-.13c-.73-.36-1.46-.74-2.17-1.14l-.24-.13.49-3.85-3.07,2.26-.24-.16c-.67-.45-1.35-.94-2.03-1.47l-.22-.17,1.1-3.53-3.36,1.65-.2-.18c-.59-.53-1.18-1.1-1.75-1.68l-.19-.2,1.72-3.88-3.95,1.41-.18-.22c-.46-.56-.93-1.16-1.38-1.77l-.17-.23,2.31-3.41-4.14.69-.14-.23c-.33-.54-.66-1.11-.98-1.69l-.13-.24,2.74-3.38-4.24.33-.11-.26c-.24-.56-.47-1.13-.69-1.69l-.1-.26,3.71-3.25-4.92-.45-.07-.27c-.15-.55-.28-1.1-.4-1.62l-.06-.26,3.53-2.48-4.12-.83-.04-.29c-.09-.66-.16-1.34-.22-2.03l-.02-.26,3.71-2.03-3.83-1.23v-.3c0-.77.03-1.55.08-2.34l.02-.27,3.84-1.32-3.51-1.83.04-.28c.12-.82.26-1.62.41-2.37l.06-.28,3.8-.59-3.06-2.37.08-.27c.21-.71.44-1.43.69-2.14l.09-.26,4.17-.14-2.94-2.9.12-.26c.31-.68.65-1.37,1.01-2.05l.13-.25,4.01.58-2.39-3.37.15-.23c.36-.56.74-1.12,1.12-1.66l.16-.22,4.18.98-2.12-3.62.19-.22c.39-.46.81-.92,1.24-1.39l.19-.21,4.5,1.9-1.72-4.59.21-.18c.4-.35.83-.71,1.3-1.09l.21-.17,3.74,2.08-1.05-4.06.24-.16c.57-.38,1.15-.74,1.73-1.09l.23-.14,3.44,2.45-.57-4.01.27-.13c.67-.32,1.39-.64,2.12-.95l.25-.1,2.88,2.9.12-3.99.27-.09c.77-.25,1.55-.47,2.29-.66l.27-.07,2.21,3.19.8-3.83.27-.05c.6-.1,1.22-.19,1.9-.27l.27-.03,2.2,3.98,1.34-4.24h.56c.51-.03,1.02-.03,1.52-.02h.52s1.51,4.33,1.51,4.33l2.1-4.07.28.03c.63.07,1.28.17,1.98.28l.29.05.71,4.48,2.84-3.71.26.07c.54.14,1.09.31,1.69.49l.27.09.14,4.56,3.28-3.3.25.11c.51.22,1.04.46,1.64.74l.27.13-.63,4.47,3.84-2.74.23.14c.47.28.96.6,1.5.96l.24.16-1.03,4.09,3.74-2.11.21.17c.51.41,1.01.83,1.47,1.24l.21.18-1.57,4.19,4.1-1.74.19.2c.46.48.91.99,1.35,1.5l.19.22-2.34,4.01,4.61-1.08.16.22c.32.47.67.98,1.04,1.57l.16.25-3.08,3.61,4.96-.27.12.24c.18.36.36.72.53,1.09l.12.26-3.38,3.4,4.8.11.09.27c.19.54.36,1.09.53,1.64l.08.28-3.75,2.67,4.63.9.05.27c.11.56.21,1.14.31,1.77l.04.28-3.63,2.04,3.98,1.23.02.28c.04.63.06,1.29.08,2.04v.27s-3.93,1.67-3.93,1.67l3.84,1.67-.02.29c-.06.73-.13,1.47-.22,2.19l-.04.28-4.2.99,3.61,2.37-.06.27c-.16.7-.33,1.4-.52,2.09l-.08.28-4.28.23,3.21,3.04-.1.25c-.22.57-.44,1.13-.67,1.65l-.11.25-4.61-.16,3.02,3.4-.14.25c-.27.48-.54.96-.81,1.41l-.15.25-5.16-1.07,2.81,4.52-.17.22c-.28.37-.57.73-.86,1.09l-.17.21-4.51-1.44,2.03,4.2-.2.2c-.38.38-.78.77-1.23,1.18l-.2.18-4.32-1.94,1.51,4.3-.23.18c-.52.4-1.06.79-1.61,1.16l-.23.16-3.84-2.58.76,4.5-.25.14c-.59.32-1.19.64-1.79.94l-.26.13-3.21-3.11-.04,4.52-.26.1c-.56.21-1.12.41-1.66.59l-.26.09-2.52-3.01-.44,3.85-.27.07c-.82.2-1.62.37-2.39.5l-.28.05-1.89-3.3-1.11,3.71-.27.03c-.72.07-1.45.12-2.18.15h-.27s-1.69-3.65-1.69-3.65l-1.46,3.67ZM39.68,85.07c.47.04.94.07,1.41.09l1.94-4.89,2.25,4.88c.53-.03,1.06-.06,1.59-.11l1.5-4.99,2.54,4.44c.58-.11,1.18-.24,1.79-.38l.59-5.16,3.37,4.03c.36-.12.74-.26,1.11-.4l.06-5.85,4.15,4.02c.42-.21.84-.43,1.25-.66l-.98-5.79,4.95,3.33c.38-.26.75-.53,1.12-.81l-1.94-5.52,5.55,2.49c.29-.27.55-.53.81-.78l-2.59-5.38,5.77,1.85c.17-.21.34-.42.5-.64l-3.51-5.65,6.44,1.33c.17-.29.34-.59.51-.89l-3.89-4.38,5.94.2c.15-.36.3-.74.45-1.12l-4.18-3.96,5.58-.3c.13-.5.26-1,.37-1.5l-4.72-3.09,5.49-1.29c.06-.52.12-1.06.16-1.59l-5.04-2.19,5.17-2.19c-.01-.52-.03-.99-.05-1.45l-5.24-1.61,4.78-2.69c-.07-.42-.13-.81-.21-1.19l-5.95-1.16,4.81-3.43c-.11-.36-.22-.71-.34-1.06l-6.12-.14,4.3-4.34c-.09-.19-.19-.39-.28-.58l-6.31.34,3.91-4.59c-.25-.39-.48-.74-.7-1.06l-5.9,1.39,3-5.14c-.31-.35-.62-.71-.94-1.05l-5.32,2.25,2.03-5.43c-.33-.29-.67-.57-1.02-.86l-4.91,2.76,1.35-5.36c-.36-.23-.69-.45-1.01-.64l-4.94,3.52.81-5.74c-.38-.18-.74-.34-1.09-.49l-4.22,4.25-.18-5.87c-.39-.12-.76-.23-1.12-.33l-3.65,4.77-.92-5.76c-.48-.08-.93-.14-1.37-.2l-2.7,5.24-1.94-5.56c-.48-.01-.95,0-1.43,0l-1.73,5.49-2.85-5.15c-.46.06-.9.12-1.32.19l-1.07,5.13-2.96-4.28c-.56.15-1.13.31-1.7.49l-.15,5.3-3.82-3.85c-.54.23-1.06.46-1.56.7l.75,5.29-4.55-3.24c-.41.25-.83.51-1.23.78l1.37,5.32-4.91-2.73c-.3.24-.58.48-.85.71l2.19,5.82-5.71-2.42c-.29.31-.57.63-.84.94l2.78,4.75-5.48-1.29c-.27.38-.53.78-.79,1.17l3.16,4.46-5.31-.77c-.26.5-.51,1.01-.74,1.51l3.88,3.82-5.5.19c-.18.52-.35,1.05-.51,1.57l4.11,3.18-5.11.79c-.11.57-.21,1.16-.31,1.77l4.67,2.44-5.1,1.75c-.03.58-.05,1.16-.06,1.73l5.06,1.63-4.9,2.68c.04.49.09.97.15,1.45l5.4,1.09-4.62,3.25c.08.35.17.7.26,1.06l6.23.58-4.71,4.12c.15.38.3.76.46,1.13l5.54-.43-3.59,4.42c.23.41.46.81.69,1.19l5.45-.91-3.04,4.49c.33.44.67.88,1.01,1.29l5.19-1.85-2.26,5.1c.44.44.88.86,1.32,1.27l4.56-2.24-1.5,4.79c.51.39,1.02.76,1.53,1.11l4.12-3.03-.65,5.18c.54.3,1.08.58,1.63.86l3.57-3.7.24,5.36c.49.19,1,.37,1.51.54l3.22-4.19.84,5.33c.4.09.81.18,1.24.26l3.13-5.11,1.55,5.76ZM43.14,77.68c-10.94,0-21.35-5.27-27.84-14.09l-.27-.36,16.57-9.57.22.23c2.98,3.13,7,4.86,11.31,4.86s8.3-1.71,11.27-4.82l.22-.23,16.58,9.57-.27.36c-6.5,8.79-16.89,14.04-27.81,14.04ZM16.22,63.48c6.36,8.4,16.39,13.4,26.92,13.4s20.52-4.98,26.88-13.35l-15.25-8.8c-3.11,3.12-7.22,4.84-11.64,4.84s-8.57-1.73-11.68-4.88l-15.24,8.8ZM74.55,57.54l-16.56-9.56.09-.31c.45-1.47.67-3,.67-4.54,0-7.29-4.95-13.54-12.04-15.2l-.31-.07V8.74l.45.05c17.58,1.88,30.84,16.65,30.84,34.35,0,4.87-.99,9.58-2.96,14l-.18.41ZM58.94,47.6l15.23,8.79c1.8-4.2,2.71-8.65,2.71-13.26,0-17.14-12.72-31.46-29.67-33.49v17.59c7.29,1.86,12.35,8.35,12.35,15.91,0,1.51-.21,3.01-.62,4.47ZM11.7,57.49l-.18-.41c-1.95-4.4-2.93-9.1-2.93-13.94,0-17.65,13.21-32.41,30.73-34.34l.45-.05v19.14l-.31.07c-7.03,1.7-11.94,7.94-11.94,15.17,0,1.52.22,3.03.66,4.48l.09.31-16.57,9.57ZM38.96,9.65c-16.89,2.08-29.56,16.39-29.56,33.48,0,4.58.9,9.02,2.68,13.2l15.23-8.8c-.4-1.44-.6-2.92-.6-4.41,0-7.51,5.02-13.99,12.25-15.88V9.65ZM43.14,47.57c-2.44,0-4.43-1.99-4.43-4.43s1.99-4.43,4.43-4.43,4.43,1.99,4.43,4.43-1.99,4.43-4.43,4.43ZM43.14,39.51c-2,0-3.63,1.63-3.63,3.63s1.63,3.63,3.63,3.63,3.63-1.63,3.63-3.63-1.63-3.63-3.63-3.63Z"/>
      <g>
        <path class="cls-2" d="M104.51,87.61v-27.65h9.2c1.92,0,3.54.35,4.86,1.05,1.32.7,2.33,1.67,3.02,2.92.69,1.25,1.03,2.69,1.03,4.32s-.35,3.06-1.04,4.3c-.69,1.23-1.7,2.19-3.03,2.88-1.33.69-2.95,1.04-4.87,1.04h-7.72v-2.36h7.66c1.41,0,2.59-.24,3.53-.72.95-.48,1.66-1.16,2.14-2.03.48-.87.72-1.91.72-3.11s-.24-2.25-.72-3.14-1.2-1.58-2.15-2.08c-.95-.49-2.13-.74-3.54-.74h-6.49v25.31h-2.6ZM120.58,87.61l-6.72-12.49h2.95l6.77,12.49h-3.01Z"/>
        <path class="cls-2" d="M135.67,88.04c-1.92,0-3.58-.45-4.98-1.34-1.4-.9-2.49-2.14-3.25-3.73-.76-1.59-1.14-3.42-1.14-5.48s.38-3.92,1.14-5.52c.76-1.6,1.82-2.86,3.18-3.77,1.36-.91,2.92-1.36,4.69-1.36,1.19,0,2.31.21,3.37.64,1.06.43,2,1.07,2.82,1.93.82.86,1.47,1.93,1.94,3.21.47,1.28.71,2.77.71,4.48v1h-16.27v-2.15h14.92l-1.13.8c0-1.48-.26-2.8-.77-3.96-.51-1.16-1.24-2.07-2.19-2.73-.95-.66-2.08-.99-3.39-.99s-2.44.34-3.41,1.02c-.98.68-1.74,1.59-2.28,2.72-.54,1.13-.82,2.39-.82,3.78v1.21c0,1.61.28,3.01.83,4.21.56,1.2,1.35,2.13,2.38,2.8,1.03.67,2.25,1,3.65,1,.98,0,1.84-.15,2.59-.46.75-.31,1.38-.73,1.89-1.27.51-.54.89-1.13,1.14-1.79l2.39.59c-.31.94-.83,1.81-1.56,2.6-.73.79-1.64,1.42-2.74,1.88-1.1.46-2.34.7-3.72.7Z"/>
        <path class="cls-2" d="M155.56,88.04c-1.37,0-2.59-.21-3.66-.64-1.06-.43-1.93-1.05-2.61-1.88-.67-.83-1.12-1.84-1.33-3.04l2.39-.45c.26,1.26.83,2.21,1.72,2.85.88.64,2.03.96,3.44.96,1.56,0,2.8-.35,3.74-1.05.93-.7,1.4-1.57,1.4-2.62,0-.84-.29-1.53-.85-2.07-.57-.54-1.41-.94-2.52-1.2l-3.34-.8c-1.78-.43-3.12-1.1-4.01-2.01-.89-.91-1.34-2.06-1.34-3.46,0-1.14.31-2.14.93-3.02.62-.87,1.47-1.55,2.55-2.04,1.08-.49,2.32-.73,3.72-.73,1.31,0,2.45.21,3.41.63.96.42,1.75,1.02,2.37,1.79.61.77,1.04,1.69,1.29,2.75l-2.3.46c-.27-1.01-.79-1.85-1.55-2.5-.76-.66-1.83-.98-3.22-.98s-2.5.33-3.38.99c-.88.66-1.32,1.51-1.32,2.55,0,.87.3,1.57.9,2.12.6.54,1.52.96,2.76,1.26l3.21.76c1.76.42,3.07,1.08,3.94,1.97.87.89,1.31,2.02,1.31,3.4,0,1.19-.32,2.23-.97,3.14-.65.9-1.55,1.61-2.7,2.12s-2.48.76-3.99.76Z"/>
        <path class="cls-2" d="M175.36,67.12v2.17h-9.87v-2.17h9.87ZM168.64,62.1h2.49v20.73c0,.98.22,1.7.66,2.15.44.46,1.12.65,2.03.58.2-.01.43-.03.7-.07.27-.03.51-.06.73-.1l.41,2.15c-.27.07-.58.13-.91.17s-.66.06-.98.07c-1.62.09-2.88-.3-3.78-1.15-.9-.85-1.34-2.06-1.34-3.62v-20.91Z"/>
        <path class="cls-2" d="M185.23,88.04c-1.25,0-2.39-.24-3.42-.71-1.03-.47-1.86-1.17-2.47-2.09-.61-.92-.92-2.04-.92-3.37,0-1.03.2-1.89.58-2.58.39-.69.94-1.26,1.65-1.7.71-.44,1.55-.79,2.52-1.05.97-.26,2.04-.46,3.22-.61,1.16-.15,2.14-.28,2.93-.38.79-.11,1.39-.28,1.81-.52.42-.24.62-.62.62-1.12v-.45c0-.92-.19-1.7-.58-2.36-.38-.66-.94-1.16-1.66-1.52-.72-.36-1.61-.54-2.64-.54s-1.86.16-2.61.47c-.75.32-1.36.73-1.85,1.24-.48.51-.82,1.08-1.02,1.72l-2.43-.63c.37-1.15.95-2.09,1.74-2.83.79-.74,1.72-1.29,2.78-1.65,1.06-.36,2.18-.55,3.34-.55.87,0,1.74.12,2.62.35.88.24,1.68.62,2.39,1.14.72.53,1.3,1.22,1.73,2.1.44.87.66,1.95.66,3.22v13.97h-2.45v-3.27h-.17c-.29.63-.71,1.23-1.28,1.79-.57.56-1.28,1.02-2.12,1.37-.85.35-1.85.53-3,.53ZM185.6,85.81c1.27,0,2.37-.27,3.29-.82.92-.54,1.63-1.28,2.12-2.21.49-.93.74-1.95.74-3.06v-2.91c-.17.16-.46.31-.86.45-.4.14-.87.26-1.39.36-.53.11-1.06.2-1.6.27-.54.07-1.05.14-1.52.2-1.14.14-2.12.36-2.93.66-.82.3-1.44.71-1.87,1.23-.43.52-.65,1.19-.65,2s.2,1.49.61,2.06c.41.57.96,1,1.67,1.31.71.3,1.5.45,2.39.45Z"/>
        <path class="cls-2" d="M207.38,87.91c-1.39,0-2.62-.29-3.69-.88-1.08-.59-1.92-1.45-2.52-2.58-.61-1.13-.91-2.51-.91-4.13v-13.19h2.49v13.01c0,1.71.48,3.05,1.43,4.03.95.98,2.23,1.47,3.82,1.47,1.08,0,2.05-.23,2.91-.69.87-.46,1.55-1.12,2.05-1.99.5-.87.75-1.91.75-3.13v-12.69h2.49v20.48h-2.41v-4.79h.45c-.58,1.79-1.48,3.09-2.7,3.89-1.22.8-2.6,1.2-4.15,1.2Z"/>
        <path class="cls-2" d="M222.21,87.61v-20.48h2.39v3.23h.17c.41-1.05,1.11-1.9,2.12-2.54,1-.64,2.15-.96,3.45-.96.2,0,.41,0,.64.02.23.01.42.02.57.02v2.5c-.09-.02-.27-.05-.55-.08-.28-.03-.58-.05-.92-.05-1.03,0-1.95.22-2.76.67s-1.46,1.06-1.92,1.86c-.46.79-.7,1.71-.7,2.76v13.06h-2.49Z"/>
        <path class="cls-2" d="M240.8,88.04c-1.25,0-2.39-.24-3.42-.71-1.03-.47-1.86-1.17-2.47-2.09-.61-.92-.92-2.04-.92-3.37,0-1.03.2-1.89.58-2.58.39-.69.94-1.26,1.65-1.7.71-.44,1.55-.79,2.52-1.05.97-.26,2.04-.46,3.22-.61,1.16-.15,2.14-.28,2.93-.38.79-.11,1.39-.28,1.81-.52.42-.24.62-.62.62-1.12v-.45c0-.92-.19-1.7-.58-2.36-.38-.66-.94-1.16-1.66-1.52-.72-.36-1.61-.54-2.64-.54s-1.86.16-2.61.47c-.75.32-1.36.73-1.85,1.24-.48.51-.82,1.08-1.02,1.72l-2.43-.63c.37-1.15.95-2.09,1.74-2.83.79-.74,1.72-1.29,2.78-1.65,1.06-.36,2.18-.55,3.34-.55.87,0,1.74.12,2.62.35.88.24,1.68.62,2.39,1.14.72.53,1.3,1.22,1.73,2.1.44.87.66,1.95.66,3.22v13.97h-2.45v-3.27h-.17c-.29.63-.71,1.23-1.28,1.79-.57.56-1.28,1.02-2.12,1.37-.85.35-1.85.53-3,.53ZM241.17,85.81c1.27,0,2.37-.27,3.29-.82.92-.54,1.63-1.28,2.12-2.21.49-.93.74-1.95.74-3.06v-2.91c-.17.16-.46.31-.86.45-.4.14-.87.26-1.39.36-.53.11-1.06.2-1.6.27-.54.07-1.05.14-1.52.2-1.14.14-2.12.36-2.93.66-.82.3-1.44.71-1.87,1.23-.43.52-.65,1.19-.65,2s.2,1.49.61,2.06c.41.57.96,1,1.67,1.31.71.3,1.5.45,2.39.45Z"/>
        <path class="cls-2" d="M258.31,74.92v12.69h-2.49v-20.48h2.39l.02,4.79h-.45c.57-1.78,1.46-3.07,2.67-3.88,1.21-.8,2.6-1.21,4.17-1.21,1.4,0,2.63.29,3.7.88,1.07.59,1.91,1.44,2.51,2.56.61,1.12.91,2.5.91,4.15v13.19h-2.49v-13.01c0-1.71-.48-3.05-1.43-4.03-.95-.98-2.23-1.47-3.82-1.47-1.08,0-2.05.23-2.91.69-.87.46-1.55,1.12-2.05,1.99-.5.87-.75,1.91-.75,3.14Z"/>
        <path class="cls-2" d="M284.92,67.12v2.17h-9.87v-2.17h9.87ZM278.2,62.1h2.49v20.73c0,.98.22,1.7.66,2.15.44.46,1.12.65,2.03.58.2-.01.43-.03.7-.07.27-.03.51-.06.73-.1l.41,2.15c-.27.07-.58.13-.91.17s-.66.06-.98.07c-1.62.09-2.88-.3-3.78-1.15-.9-.85-1.34-2.06-1.34-3.62v-20.91Z"/>
      </g>
      <g>
        <path class="cls-2" d="M129.29,37.68c.21,2.88.8,5.25,1.78,7.16.98,1.92,2.02,3.49,3.13,4.7,1.3,1.45,2.72,2.65,4.25,3.57-11.05.63-22.01,1.44-32.85,2.45,1.6-.15,2.83-.84,3.69-2.16.85-1.31,1.26-2.88,1.24-4.63-.24-16.28-.47-32.55-.71-48.83-.02-1.13-.33-1.8-.94-1.95-.61-.15-1.33.25-2.18,1.19,3.98-4.39,8.22-8.41,12.66-12.05-.86.71-1.59,1.72-2.18,3.01-.59,1.29-.92,2.53-.97,3.72.49,17.48.99,34.97,1.48,52.45.06,1.97.52,3.54,1.41,4.79.89,1.24,2.14,1.82,3.76,1.68.88-.08,1.76-.15,2.64-.22-1.01-1.5-1.79-3.17-2.35-5.03-.56-1.86-.87-3.81-.94-5.87,0-.27-.02-.53-.03-.8.04-.07.07-.13.06-.19,0-.24-.02-.47-.02-.71.04-1.67.24-3.25.61-4.76.37-1.5.84-2.92,1.4-4.24.56-1.32,1.2-2.56,1.91-3.71.71-1.15,1.45-2.2,2.22-3.14,1.76-2.2,3.72-4.2,5.9-5.95-1,1.38-1.89,3.03-2.67,4.96-.65,1.63-1.23,3.58-1.73,5.86-.51,2.28-.7,4.85-.59,7.74.01.31.02.63.04.94Z"/>
        <path class="cls-2" d="M152.12,26.96c.08,2.18.4,4.17.98,6,.57,1.83,1.32,3.41,2.24,4.76.92,1.35,1.99,2.4,3.21,3.17,1.22.76,2.5,1.11,3.87,1.02-9.63.61-19.2,1.51-28.63,2.69,1.29-.16,2.26-.92,2.93-2.31.66-1.39.96-3,.89-4.81-.4-10-.79-20-1.19-30.01-.51.52-.94,1.07-1.3,1.64-.36.57-.65,1.06-.88,1.47-.27.5-.49,1.01-.66,1.54.08-.43.23-.91.44-1.46.22-.48.51-1.05.87-1.72.36-.67.86-1.42,1.5-2.27-.27-6.69-.53-13.38-.8-20.07-.05-1.14-.38-1.98-1-2.49-.62-.52-1.33-.55-2.12-.1,8.07-4.57,16.59-8.16,25.35-10.74-1.57.61-3.19,2.43-4.86,5.38-1.67,2.96-3.07,6.83-4.19,11.56-.12.04-.25.08-.37.12.04-.16.06-.28.06-.35,0-.07.02-.19.06-.35.11-.98.16-1.87.13-2.66,0-.07,0-.14,0-.22-.05-1.44-.27-2.65-.65-3.64-.38-.98-.89-1.74-1.5-2.26-.62-.52-1.3-.82-2.05-.9-.75-.08-1.51.05-2.28.4-.53.24-.78.74-.75,1.5.25,6.42.49,12.83.74,19.25,1.75-1.65,3.09-3.26,4.02-4.86.93-1.59,1.57-3.1,1.91-4.52.12-.04.25-.08.37-.12-.6,2.74-1.03,5.72-1.31,8.97-.28,3.25-.34,6.71-.21,10.4-.28-.79-.52-1.48-.74-2.06-.53-1.14-1.13-2.03-1.79-2.65-.66-.62-1.36-1.02-2.1-1.21.39,10.09.78,20.18,1.17,30.27.07,1.94.5,3.52,1.27,4.76.77,1.24,1.81,1.8,3.11,1.67.41-.04.82-.08,1.23-.12-.78-1.43-1.41-3.01-1.89-4.76-.48-1.75-.75-3.64-.83-5.69-.02-.53-.04-1.06-.06-1.59.07-3.2.64-5.99,1.7-8.39,1.06-2.4,2.2-4.39,3.43-5.95,1.46-1.83,3.12-3.42,4.96-4.74-.91,1.21-1.68,2.62-2.32,4.22-.55,1.36-1.03,3.06-1.45,5.11-.42,2.05-.58,4.41-.49,7.09Z"/>
        <path class="cls-2" d="M199.69,51.02c.19.63.5,1.48.93,2.54.43,1.06,1.02,2.15,1.78,3.25.76,1.1,1.7,2.1,2.82,3.01,1.12.9,2.47,1.55,4.04,1.94-2.35,0-4.35-.22-6.01-.65-1.65-.43-3.07-1.08-4.24-1.95-1.17-.87-2.16-1.95-2.95-3.25-.79-1.3-1.48-2.86-2.06-4.68-3.05-.87-5.45-3.09-7.21-6.65-1.75-3.56-2.67-7.73-2.71-12.52-.15-17.05-.29-34.09-.44-51.14-.02-2.67.25-5.22.84-7.66.58-2.43,1.44-4.58,2.59-6.4,1.15-1.83,2.54-3.28,4.17-4.33,1.63-1.05,3.49-1.55,5.55-1.48,2.06.07,3.92.7,5.57,1.85,1.65,1.16,3.03,2.69,4.13,4.58,1.1,1.89,1.93,4.06,2.5,6.51.56,2.45.82,5,.78,7.65-.26,16.9-.52,33.79-.79,50.69-.07,4.59-.93,8.57-2.56,11.97-1.63,3.4-3.88,5.64-6.75,6.73ZM191.75,43.07c0,1.81.44,3.39,1.32,4.73.88,1.34,2.01,2.01,3.42,2.02,1.41,0,2.56-.66,3.47-1.98.91-1.33,1.37-2.89,1.39-4.7.2-24.4.41-48.8.61-73.19.02-1.89-.46-3.53-1.42-4.93-.96-1.4-2.21-2.14-3.74-2.19-1.53-.05-2.77.61-3.72,1.95-.95,1.34-1.42,2.96-1.42,4.86.03,24.48.06,48.97.09,73.45Z"/>
        <path class="cls-2" d="M241.05-22.08c-.83-.35-1.55-.25-2.14.31-.6.56-.94,1.41-1.03,2.54-.57,15.92-1.14,31.84-1.72,47.75-.07,1.94-.37,3.75-.89,5.45-.52,1.7-1.23,3.16-2.13,4.38-.89,1.22-1.96,2.17-3.2,2.84-1.24.67-2.61.96-4.12.86-1.56-.11-2.93-.59-4.13-1.46-1.2-.87-2.21-2.02-3.03-3.45-.82-1.43-1.45-3.1-1.87-5.01-.42-1.91-.62-3.91-.57-5.98.15-6.68.29-13.36.44-20.04.03,0,.05,0,.08,0,.22-10.21.45-20.43.67-30.64.03-1.3-.27-2.5-.89-3.59-.63-1.08-1.38-1.71-2.26-1.86,4.28.74,8.52,1.71,12.71,2.91-.81-.23-1.53-.01-2.13.66-.61.68-.98,1.61-1.12,2.79-.53,19.61-1.05,39.22-1.58,58.83-.04,1.44.28,2.69.96,3.76.68,1.07,1.6,1.64,2.77,1.72,1.12.08,2.04-.35,2.78-1.29.74-.94,1.13-2.1,1.17-3.5.61-18.95,1.23-37.9,1.84-56.85.04-1.25-.22-2.43-.8-3.55-.57-1.11-1.29-1.81-2.15-2.07,4.17,1.26,8.29,2.74,12.32,4.45Z"/>
        <path class="cls-2" d="M263.21,40.24c.32,1.68.71,3.13,1.16,4.36.45,1.23,1.32,1.93,2.58,2.13-4.17-.67-8.37-1.28-12.6-1.84,1.28.17,2.18-.31,2.7-1.43.31-.64.48-1.43.52-2.37.02-.5,0-1.07-.08-1.71-.1-.58-.19-1.17-.29-1.76-.02-.13-.04-.26-.06-.39-.42-2.77-.83-5.57-1.24-8.4-.43-2.42-1.32-4.59-2.67-6.54-1.35-1.94-2.95-3.28-4.81-3.94-1.11,5.46-2.22,11.02-3.34,16.68-.12.63-.24,1.27-.36,1.9-.12.67-.2,1.31-.22,1.93-.04,1.03.09,1.97.4,2.83.42,1.43,1.31,2.2,2.65,2.36-3.35-.39-6.71-.74-10.09-1.05,1.06.1,1.91-.26,2.54-1.08.63-.81,1.15-1.89,1.54-3.24-1.11-1.4-1.98-3.14-2.6-5.22-.63-2.08-.9-4.27-.82-6.55.13-3.41.96-6.27,2.51-8.47,1.55-2.2,3.42-3.29,5.6-3.29,2.17-10.92,4.33-21.45,6.46-31.55.87.48,1.73.98,2.58,1.48,2.49,19,4.99,36.89,7.65,53.38.1.59.19,1.18.29,1.77ZM245.62,17.99c-1.8.28-3.35,1.4-4.61,3.35-1.27,1.95-1.96,4.42-2.06,7.32-.07,1.91.13,3.74.6,5.47.47,1.73,1.14,3.25,2.01,4.55.11-.33.19-.64.25-.91.06-.27.12-.58.18-.92,1.21-6.4,2.43-12.69,3.64-18.86ZM248.97,15.66c2.37,1.06,4.31,3.07,5.87,5.9-.95-6.79-1.88-13.74-2.82-20.85-1.01,4.89-2.02,9.88-3.04,14.95Z"/>
        <path class="cls-2" d="M276.37,43.31c-.02,1.37.31,2.64.99,3.76.68,1.12,1.65,1.78,2.89,2.02-4.51-.88-9.06-1.68-13.65-2.42,1.27.2,2.26-.19,2.99-1.14.73-.95,1.1-2.14,1.14-3.62.34-13.86.68-27.72,1.01-41.57.02-.93-.22-1.95-.73-3.07-.51-1.12-1.12-1.99-1.85-2.57,3.54,2.84,6.95,5.91,10.21,9.21-.67-.68-1.23-.96-1.7-.85-.47.11-.75.55-.84,1.29-.16,12.99-.31,25.98-.47,38.96Z"/>
      </g>
      <g>
        <path class="cls-2" d="M55.66,157.01c-.17,5.06-.96,8.99-2.35,11.65-1.39,2.66-3.08,4.35-5.06,5.08-1.99.73-4.12.66-6.39-.15-1.56-.53-3.06-1.3-4.5-2.28-.66-.44-1.29-.93-1.89-1.45-.82-.68-1.57-1.37-2.24-2.07-.67-.71-1.3-1.4-1.9-2.08-.04-.08-.09-.14-.13-.17-.04-.03-.09-.09-.13-.17-.26-.28-.45-.52-.58-.72-.13-.17-.26-.33-.39-.5-.04-.03-.06-.07-.06-.12-.21-.25-.4-.5-.55-.73-.15-.23-.31-.46-.48-.68-.47-.68-.92-1.42-1.35-2.21-.09-.16-.16-.31-.22-.45-.06-.14-.14-.29-.22-.45-.73-1.39-1.24-2.62-1.54-3.72-.3-1.1-.52-2.07-.65-2.92-.13-.66-.19-1.27-.19-1.85,0-.24.02-.49.07-.75,0,1.82.45,3.75,1.36,5.83.9,2.08,2.04,3.99,3.41,5.68.04.08.09.13.13.16.02.04.04.08.06.12.13.19.27.36.42.52.15.15.29.32.42.52.69.88,1.46,1.75,2.33,2.6,1.08,1.05,2.21,1.97,3.39,2.75.35.18.67.34.95.5.29.16.58.28.89.37.84.37,1.66.55,2.47.54.18,0,.35-.02.51-.03.16-.02.33-.03.51-.04.23-.04.44-.08.65-.13.2-.05.42-.13.65-.23,1.14-.56,2.15-1.62,3.02-3.2.87-1.58,1.53-3.8,1.98-6.63.16-.6.27-1.26.34-1.99.07-.73.11-1.52.14-2.36.4-13.37.8-26.75,1.2-40.12.05-1.74-.11-3.4-.49-4.96-.38-1.56-.89-2.96-1.53-4.2-.63-1.24-1.38-2.26-2.25-3.07-.87-.8-1.73-1.31-2.58-1.55-.41,0-.82,0-1.22-.01-.53,0-.85.36-.96,1.08-.39,17.61-.78,35.23-1.18,52.84.02.01.04.02.07.03-.01.67-.03,1.34-.04,2.01-.04,1.9.32,3.73,1.09,5.53.77,1.8,1.91,3.15,3.43,4-5.46-3.04-10.84-6.26-16.12-9.67,1.47.95,2.62,1.07,3.45.31.82-.75,1.25-2.04,1.28-3.82.09-6.57.18-13.13.27-19.7.02-1.1-.09-2.01-.31-2.73-.22-.72-.47-1.3-.74-1.75-.32-.51-.66-.92-1.02-1.23.37-.05.72-.23,1.04-.56.28-.29.54-.72.78-1.32.24-.59.37-1.44.38-2.54.09-6.57.18-13.13.27-19.7.02-1.15-.33-2.13-1.04-2.92-.71-.79-1.59-1.17-2.65-1.17,4.54,0,9.07,0,13.61,0,1.25,0,2.69.2,4.34.62,1.64.42,3.18,1.21,4.6,2.4,1.42,1.19,2.62,2.81,3.58,4.87.96,2.06,1.38,4.73,1.27,7.96l-1.4,41.09Z"/>
        <path class="cls-2" d="M77.77,157.27c-.08,2.15.09,4.23.51,6.26.42,2.03,1.03,3.89,1.83,5.58.8,1.69,1.76,3.17,2.9,4.4,1.13,1.23,2.36,2.08,3.7,2.51-9.45-3.05-18.76-6.52-27.9-10.41,1.25.53,2.24.3,2.98-.7.74-1,1.15-2.42,1.21-4.21.37-9.92.73-19.84,1.1-29.76-.53.24-1,.53-1.39.88-.39.35-.71.67-.96.95-.3.34-.55.71-.75,1.13.11-.37.29-.76.54-1.17.25-.34.57-.74.97-1.19.4-.45.94-.91,1.62-1.39.24-6.63.49-13.27.73-19.9.04-1.13-.22-2.12-.79-2.97-.57-.85-1.26-1.29-2.07-1.32,8.28.3,16.56.58,24.86.83-1.49.1-3.13,1.34-4.89,3.61-1.77,2.28-3.36,5.51-4.77,9.65-.12-.01-.24-.02-.36-.04.05-.14.08-.24.08-.31,0-.07.03-.18.08-.31.18-.91.28-1.76.31-2.54,0-.07,0-.14,0-.21.05-1.42-.06-2.69-.36-3.82-.29-1.12-.71-2.07-1.26-2.83-.54-.77-1.17-1.36-1.87-1.77-.7-.41-1.44-.63-2.2-.67-.53-.02-.8.35-.83,1.1-.24,6.35-.48,12.69-.73,19.04,1.8-.76,3.2-1.72,4.2-2.86,1-1.14,1.72-2.34,2.15-3.57.12.01.24.03.36.04-.77,2.41-1.4,5.14-1.9,8.17-.5,3.04-.82,6.37-.96,10.02-.21-.89-.39-1.67-.56-2.33-.43-1.35-.93-2.48-1.52-3.39-.59-.91-1.23-1.63-1.92-2.17-.38,9.98-.76,19.96-1.14,29.95-.07,1.92.22,3.66.87,5.22.65,1.57,1.61,2.6,2.88,3.07.4.15.8.29,1.2.44-.65-1.74-1.14-3.56-1.47-5.48-.33-1.92-.46-3.88-.38-5.91.02-.52.04-1.05.06-1.57.31-3.08,1.06-5.53,2.25-7.39,1.2-1.86,2.44-3.31,3.72-4.32,1.53-1.18,3.22-2.07,5.07-2.67-.95.85-1.78,1.93-2.5,3.24-.62,1.11-1.2,2.58-1.76,4.41-.55,1.83-.88,4.06-.98,6.72Z"/>
        <path class="cls-2" d="M106.74,143.96c1.28,2.2,2.29,4.58,3.03,7.15.74,2.56,1.24,5.14,1.49,7.73.14,1.67.18,3.28.13,4.83-.03.9-.08,1.71-.16,2.44-.28,2.33-.71,4.34-1.31,6.01-.98,2.91-2.46,5.14-4.42,6.68-1.76,1.34-3.68,1.71-5.76,1.13-1.35-.38-2.72-.96-4.1-1.76-1.38-.79-2.48-1.31-3.3-1.55-.36-.11-.72-.22-1.08-.32-.38-.12-.77-.16-1.16-.12-.15.03-.31.04-.47.03-.17-.01-.33,0-.47.02-.29.06-.51.15-.66.25-.1-.03-.15,0-.15.07-.93.32-1.92.83-2.96,1.54,0-.08.03-.1.08-.09.95-.89,1.76-2.05,2.42-3.49.66-1.43,1.17-3.02,1.53-4.76.22-.78.37-1.47.44-2.06.2-1.55.34-3.17.4-4.84.01-.38.03-.76.04-1.14-.02-.04-.05-.09-.07-.13,0-.23.02-.46.03-.68-.03-1.69-.14-3.21-.33-4.56-.23-1.58-.51-3.02-.85-4.31-.34-1.29-.69-2.44-1.06-3.47-.37-1.02-.71-1.97-1.01-2.86-.3-.89-.51-1.75-.62-2.6.16.78.36,1.42.58,1.91.31.81.79,1.75,1.44,2.83.66,1.08,1.56,2.03,2.71,2.84,1.15.81,2.59,1.4,4.32,1.74,1.68.33,3.75.15,6.2-.61-.25.12-.47.26-.67.42-.2.16-.43.34-.67.53-.1.14-.23.22-.37.23-.15.01-.27.09-.37.23-1.74,1.02-3.09,2.25-4.07,3.72-.98,1.47-1.51,3.54-1.62,6.23-.06,1.62.03,3.19.26,4.73.12.73.28,1.52.49,2.35.21.84.49,1.7.85,2.58.49,1.31,1.1,2.52,1.84,3.63.74,1.11,1.57,1.8,2.48,2.05,1.26.34,2.4.19,3.42-.47,1.03-.66,1.89-1.62,2.6-2.87.7-1.25,1.23-2.73,1.59-4.45.18-.94.29-1.89.32-2.86.03-.73,0-1.42-.07-2.09,0-.08-.02-.13-.07-.14-.08-1.89-.46-3.75-1.12-5.58-.67-1.83-1.83-4.06-3.48-6.68-.05-.09-.32-.54-.83-1.34-.51-.81-1.08-1.66-1.73-2.57-.05,0-.07-.05-.07-.13-.69-.99-1.39-1.98-2.11-2.96-.71-.98-1.39-2.03-2.02-3.15-1.7-2.46-3.01-4.99-3.95-7.62-.94-2.62-1.57-5.19-1.91-7.74-.35-2.16-.49-4.22-.41-6.18.01-.3.05-.64.11-1.01.13-2.26.5-4.31,1.1-6.17.55-1.71,1.25-3.21,2.12-4.52.87-1.3,1.86-2.29,3-2.95.93-.51,1.9-.77,2.91-.74.19,0,.38,0,.58.01,1.24.19,2.52.8,3.82,1.87,0,.08.02.12.07.12.02.04.05.08.07.12.05,0,.08.02.11.06.02.04.06.06.11.06.02.04.05.08.07.12.02,0,.05,0,.07,0,.04.08.09.12.14.12.02.04.05.08.07.12.02.04.05.08.07.12.05,0,.08.02.11.06.02.04.06.06.11.06,0,.08.02.12.07.12.02.04.05.08.07.12.09.08.15.15.17.19.02.04.08.1.17.19.05,0,.12.08.21.25.69.82,1.3,1.29,1.83,1.38.19,0,.48-.06.87-.21.1-.16.2-.24.3-.23.4-.39.74-.8,1.02-1.24.28-.44.47-.77.58-1.01-1.77,3.79-3.54,7.53-5.31,11.2-1.93,3.98-3.86,7.88-5.79,11.69.21-.6.56-1.44,1.04-2.54.47-1.09.96-2.33,1.44-3.7.48-1.38.92-2.86,1.32-4.46.39-1.59.62-3.19.68-4.77.06-1.66-.07-3.02-.39-4.06-.32-1.04-.74-1.81-1.25-2.3,0-.08-.02-.12-.07-.12-.7-.65-1.38-.99-2.05-1.01-.39-.01-.75.09-1.09.32-1.08.51-2,1.44-2.77,2.8-.87,1.5-1.36,3.51-1.46,6.03.02.62.04,1.17.04,1.67,0,.5.04,1.06.12,1.68.34,2.49,1.15,5.03,2.42,7.66,1.28,2.63,3.13,5.51,5.58,8.69,1.76,2.29,3.23,4.46,4.42,6.49Z"/>
        <path class="cls-2" d="M180.2,209.77c1.44,4.42,3.18,7.62,5.21,9.58,1.47,1.49,3.02,2.24,4.65,2.25.61,0,1.22-.09,1.83-.27-1.83,1.64-3.69,2.44-5.58,2.41-.08,0-.15,0-.23,0-3.01-.06-5.83-1.9-8.45-5.49-2.62-3.59-4.71-8.35-6.26-14.25-.54-2.21-.99-4.53-1.37-6.95-.38-2.42-.65-4.95-.82-7.59-.02-.36-.04-.73-.06-1.09,0-.05,0-.09,0-.14-.82-17.01-1.62-33.99-2.39-50.93-.57,2.51-1.22,4.94-1.96,7.3-.74,2.36-1.55,4.69-2.41,6.98-1.12,2.91-2.32,5.63-3.59,8.14.38.74.74,1.48,1.08,2.22.33.74.69,1.48,1.08,2.22.96,1.68,1.81,3.44,2.53,5.29.72,1.85,1.26,4,1.63,6.46.07.41.14.82.21,1.23-.74-.68-1.55-1.27-2.44-1.79-.79-.51-1.69-.97-2.7-1.41-1.01-.43-2.11-.7-3.3-.8-1.19-.1-2.3-.01-3.32.25-1.02.26-1.93.58-2.73.94-.9.36-1.73.8-2.48,1.34.08-.39.16-.78.25-1.17.44-2.35,1.07-4.37,1.86-6.07.8-1.7,1.71-3.31,2.72-4.83.36-.68.72-1.37,1.07-2.06.36-.68.74-1.37,1.15-2.06-.52-1.29-1.06-2.64-1.63-4.06-.57-1.42-1.1-2.9-1.62-4.45-1.78-4.83-3.1-9.65-3.97-14.47-1.32,16.9-2.66,33.72-4.03,50.45-.1,1.04-.19,2.09-.29,3.13-.06.61-.1,1.17-.11,1.7-.05,2.28.23,4.31.84,6.08.75,2.23,1.98,3.48,3.68,3.72-6.11-.86-12.19-1.91-18.23-3.14,1.69.34,3.08-.42,4.17-2.31,1.1-1.88,1.75-4.3,1.98-7.22.1-1.03.2-2.06.3-3.09,2.18-25.48,4.31-51.18,6.4-77.09.06-.66.13-1.31.19-1.97,0-.22.01-.44.02-.66.04-1.57-.2-2.97-.7-4.2-.64-1.31-1.47-1.97-2.47-1.97h16.34c-.1,0-.17.02-.22.07-.05.05-.12.07-.22.07-.39.18-.7.31-.94.4-.54.36-1.11,1-1.73,1.93-.62.93-1.18,2.24-1.7,3.92-.51,1.68-.94,3.76-1.28,6.23-.28,1.85-.44,4.02-.49,6.49-.02.8-.03,1.59-.05,2.39.02,1.51.27,2.71.77,3.61.49.9.93,1.36,1.32,1.38.73.03,1.34-.42,1.85-1.34.5-.92.76-2,.79-3.25.03-1.51-.27-2.72-.88-3.63,1.33,1.19,1.98,3.17,1.93,5.93-.03,1.87-.42,3.46-1.18,4.77-.75,1.31-1.67,1.94-2.74,1.89-.24-.01-.47-.06-.69-.16-.22-.1-.45-.24-.69-.43.57,5.52,1.5,10.36,2.8,14.52,1.29,4.17,2.7,7.96,4.22,11.37,1.63-3.2,3.16-6.84,4.59-10.91,1.43-4.07,2.55-8.89,3.35-14.45-.25.17-.49.3-.74.38-.24.08-.49.12-.73.11-1.07-.03-1.96-.73-2.67-2.1-.71-1.37-1.05-2.99-1.02-4.87.02-1.25.23-2.41.64-3.48.4-1.07.9-1.86,1.49-2.39-.64.89-.98,2.09-1,3.61-.02,1.26.22,2.36.72,3.32.5.96,1.08,1.44,1.77,1.46.39,0,.84-.43,1.37-1.32.52-.89.82-2.1.88-3.63,0-.5.01-.99.02-1.49.04-2.97-.05-5.54-.27-7.71-.26-2.52-.62-4.62-1.08-6.29-.46-1.67-.98-2.97-1.57-3.92-.59-.94-1.14-1.59-1.66-1.95-.14-.09-.3-.16-.47-.2-.17-.04-.32-.11-.46-.2-.1,0-.17-.02-.21-.07-.05-.04-.1-.07-.14-.07h16.27c-1.01,0-1.83.68-2.47,2.04-.59,1.27-.89,2.71-.9,4.35,0,.23,0,.45,0,.68.04.68.08,1.36.13,2.04,1.23,26.45,2.51,52.98,3.85,79.56.23,3.28.51,6.24.84,8.89.14,1.28.31,2.49.5,3.63.19,1.14.41,2.22.66,3.23.25,1.01.48,1.95.7,2.82.22.87.46,1.72.71,2.55ZM156.9,169.81c.99.08,1.49-.33,1.51-1.23.01-.89-.26-2.17-.83-3.82-.1-.18-.19-.42-.29-.69-.1-.28-.19-.51-.29-.69-.1.17-.2.39-.31.65-.1.26-.21.48-.31.65-.62,1.56-.94,2.79-.95,3.68-.02.89.47,1.38,1.46,1.46Z"/>
        <path class="cls-2" d="M204.19,183.14c.41,2.44.89,4.54,1.43,6.29.54,1.75,1.49,2.6,2.84,2.53-4.46.22-8.93.34-13.4.39,1.36-.01,2.28-.9,2.78-2.63.3-1.01.45-2.19.44-3.56,0-.73-.06-1.55-.16-2.46-.13-.82-.25-1.63-.38-2.45-.03-.18-.05-.36-.08-.55-.56-3.86-1.12-7.73-1.67-11.59-.55-3.27-1.57-5.97-3.06-8.11-1.48-2.14-3.19-3.3-5.11-3.5-.93,7.74-1.87,15.47-2.81,23.19-.1.86-.21,1.73-.31,2.59-.1.91-.16,1.77-.16,2.59,0,1.36.17,2.6.51,3.7.49,1.83,1.45,2.76,2.85,2.77-3.51-.04-7.03-.13-10.54-.27,1.1.05,1.97-.49,2.61-1.61.63-1.11,1.13-2.58,1.49-4.39-1.19-1.67-2.14-3.79-2.85-6.36-.71-2.57-1.05-5.3-1.03-8.21.03-4.36.8-8.15,2.3-11.39,1.5-3.24,3.36-5.25,5.58-6.05,1.82-15.23,3.6-30.49,5.34-45.75.89,0,1.78,0,2.68,0,3.32,24.14,6.77,48.26,10.32,72.24.13.86.26,1.72.39,2.58ZM184.93,158.02c-1.83.98-3.36,2.88-4.59,5.72-1.23,2.84-1.86,6.11-1.88,9.83-.02,2.45.24,4.76.78,6.91.54,2.15,1.27,4.02,2.22,5.59.1-.45.18-.86.23-1.22.05-.36.1-.77.16-1.22,1.04-8.53,2.07-17.06,3.08-25.61ZM188.27,153.68c2.46.47,4.56,2.33,6.29,5.61-1.27-9.1-2.53-18.21-3.77-27.33-.83,7.24-1.67,14.48-2.52,21.72Z"/>
        <path class="cls-2" d="M218.66,144.14c.76-2.1,1.44-4.24,2.04-6.42.51-1.82,1.03-3.83,1.56-6.05.53-2.22.9-4.35,1.11-6.42.17-1.44.25-2.87.22-4.31,0-.4-.01-.81-.02-1.21-.12-1.79-.36-3.37-.69-4.76-.34-1.38-.79-2.54-1.36-3.48-.57-.94-1.21-1.49-1.94-1.66-.14,0-.29,0-.43,0-.97,0-1.84,1.05-2.64,3.13-.8,2.08-1.49,4.94-2.08,8.56-.59,3.62-1.04,7.88-1.36,12.77-.32,4.89-.45,10.1-.39,15.62.03,2.71.13,5.83.32,9.35.18,3.52.57,7.03,1.15,10.53.58,3.5,1.41,6.73,2.5,9.68,1.08,2.96,2.53,5.13,4.35,6.52,1.87,1.29,3.97,1.82,6.32,1.58.95-.09,1.84-.32,2.68-.68-2.2,2.47-4.61,3.83-7.21,4.07-1.95.18-3.88-.61-5.78-2.37-1.9-1.76-3.61-4.39-5.14-7.89-1.53-3.5-2.77-7.82-3.73-12.96-.96-5.14-1.46-11.03-1.5-17.65-.04-5.36.23-10.45.81-15.27.57-4.82,1.38-9.07,2.41-12.76,1.03-3.68,2.25-6.73,3.65-9.14,1.4-2.41,2.94-3.89,4.62-4.44.19-.09.36-.14.5-.14.14,0,.31-.05.5-.14.14,0,.29,0,.43,0,1.3-.01,2.39.36,3.27,1.12.88.75,1.66,1.57,2.35,2.46.1,0,.19.09.29.26.44.53.86.97,1.25,1.32.39.35.81.57,1.24.65.34,0,.7-.14,1.08-.42.09-.09.15-.16.18-.2.02-.05.08-.11.18-.2.47-.45.87-1.02,1.2-1.69.32-.67.53-1.18.62-1.54-1.97,5.4-3.96,10.83-5.96,16.31-2.19,5.92-4.39,11.89-6.62,17.87Z"/>
        <path class="cls-2" d="M259.41,177.27c.07,2.28.49,4.18,1.28,5.67.79,1.5,1.84,2.1,3.17,1.82-4.81,1.03-9.64,1.95-14.49,2.77,1.34-.23,2.35-1.25,3.05-3.05.69-1.8,1.01-3.85.94-6.17-.25-9.16-.5-18.32-.76-27.48-.85-.59-1.67-1.39-2.45-2.39-.79-1-1.59-2.01-2.43-3.02-.83-1.01-1.68-1.94-2.53-2.79-.85-.85-1.77-1.41-2.75-1.69.31,12.96.61,25.92.92,38.88.06,2.36.47,4.33,1.26,5.92.78,1.59,1.85,2.27,3.18,2.05-4.85.8-9.72,1.49-14.61,2.08,1.35-.16,2.37-1.16,3.08-2.97.71-1.81,1.04-3.91.99-6.29-.25-11.98-.5-23.97-.76-35.95-.89,2-1.31,4.33-1.25,6.98.02.97.09,1.98.21,3.04-.67-1.54-1.12-3.1-1.35-4.68-.12-.87-.18-1.71-.2-2.51-.01-.71.02-1.37.11-2,.12-1.42.39-2.75.8-3.97.42-1.22.93-2.2,1.55-2.94-.18-8.33-.35-16.65-.53-24.98-.03-1.5-.36-2.79-.99-3.89-.63-1.09-1.35-1.64-2.17-1.63,4-.05,7.99-.1,11.99-.16-.82.01-1.49.5-2.02,1.47-.53.97-.83,2.15-.89,3.55.19,8.07.38,16.14.57,24.22.84.38,1.59.9,2.27,1.55.67.65,1.32,1.43,1.92,2.33.08.12.15.25.23.37,1.26,1.72,2.33,3.27,3.2,4.66.87,1.39,1.73,2.46,2.58,3.23-.33-12.03-.66-24.06-.99-36.09-.04-1.45-.38-2.71-1.01-3.77-.63-1.06-1.36-1.59-2.17-1.57,3.97-.06,7.94-.13,11.91-.21-.77.01-1.42.49-1.94,1.43-.53.94-.82,2.09-.87,3.44.35,11.74.7,23.48,1.05,35.22.07-.13.14-.27.21-.4.6-1.34.92-2.68.98-4.04.04-.34.05-.68.04-1.02-.01-.34-.04-.67-.1-1,.18,1.08.28,2.04.31,2.88.06,1.85-.17,3.35-.67,4.51-.18.53-.41.98-.69,1.35.27,9.08.54,18.16.81,27.24Z"/>
        <path class="cls-2" d="M275.6,173.96c.08,2.18.51,3.98,1.29,5.37.78,1.39,1.83,1.91,3.14,1.56-4.75,1.26-9.53,2.42-14.33,3.48,1.32-.29,2.32-1.33,3-3.11.68-1.77.98-3.76.91-5.99-.69-20.86-1.38-41.72-2.07-62.58-.05-1.4-.39-2.6-1.02-3.62-.64-1.02-1.36-1.52-2.18-1.5,3.99-.08,7.98-.17,11.97-.27-.82.02-1.49.48-2.01,1.38-.52.9-.81,2.01-.86,3.3.72,20.66,1.44,41.32,2.16,61.97Z"/>
        <path class="cls-2" d="M304.67,106.51c-.82.03-1.5.5-2.07,1.42-.56.93-.82,2.01-.77,3.24.81,20.76,1.62,41.52,2.43,62.28-5.94-12.65-11.97-26.55-18.01-41.46.49,13.04.98,26.07,1.47,39.11.08,2.1.51,3.78,1.28,5.04.78,1.26,1.81,1.69,3.11,1.29-3.62,1.11-7.26,2.16-10.91,3.14,1.31-.35,2.29-1.41,2.96-3.14.67-1.73.96-3.65.88-5.76-.73-19.86-1.47-39.73-2.2-59.59-.05-1.33-.39-2.47-1.03-3.44-.64-.96-1.36-1.44-2.18-1.42,3.22-.08,6.44-.16,9.65-.25-.43.01-.87.27-1.3.79-.44.51-.76,1.24-.96,2.17-.16.78-.22,1.71-.18,2.79.01.31.05.62.11.92.1,1.46.53,3.1,1.27,4.9.08.19.16.37.24.56,4.07,10.1,8.13,19.74,12.16,28.84-.48-12.21-.95-24.43-1.43-36.64-.05-1.25-.39-2.31-1.03-3.21-.64-.9-1.36-1.34-2.18-1.32,2.9-.09,5.8-.17,8.7-.27Z"/>
        <path class="cls-2" d="M326.68,150.73c.07,1.91.37,3.61.91,5.07.54,1.46,1.25,2.63,2.11,3.5.87.87,1.87,1.41,3.01,1.6,1.14.2,2.34-.02,3.61-.62-8.98,4.27-18.15,8.11-27.47,11.52,1.27-.47,2.23-1.52,2.88-3.14.65-1.62.94-3.35.87-5.23-.4-10.37-.8-20.74-1.19-31.11-.51.44-.95.92-1.31,1.44-.36.52-.66.98-.88,1.37-.27.47-.49.98-.66,1.5.08-.44.23-.93.45-1.46.22-.46.51-1.01.87-1.64.36-.63.86-1.31,1.5-2.05-.27-6.93-.53-13.87-.8-20.8-.05-1.18-.38-2.18-1.02-3.03-.63-.85-1.36-1.26-2.17-1.24,8.29-.27,16.57-.57,24.83-.9-1.48.18-3.02,1.29-4.62,3.43-1.6,2.14-2.95,5.19-4.05,9.2-.12.01-.24.03-.36.04.04-.13.06-.23.06-.3,0-.06.02-.16.06-.3.11-.85.16-1.63.13-2.34,0-.06,0-.13,0-.19-.05-1.29-.25-2.41-.62-3.39-.37-.98-.85-1.79-1.45-2.44-.6-.65-1.26-1.14-1.99-1.47-.73-.33-1.48-.48-2.24-.45-.53.02-.78.4-.75,1.14.23,6.21.46,12.42.7,18.63,1.72-1.28,3.03-2.58,3.93-3.89.9-1.32,1.53-2.57,1.87-3.78.12-.01.24-.03.36-.04-.59,2.34-1.01,4.99-1.29,7.92-.28,2.93-.35,6.12-.23,9.52-.26-.73-.5-1.37-.71-1.92-.51-1.08-1.09-1.95-1.73-2.59-.64-.64-1.33-1.11-2.05-1.38.36,9.77.73,19.54,1.09,29.3.07,1.88.48,3.33,1.22,4.33.74,1,1.74,1.23,2.99.72.39-.16.79-.32,1.18-.49-.74-1.08-1.34-2.38-1.8-3.91-.46-1.53-.72-3.25-.79-5.17-.02-.49-.04-.99-.05-1.48.08-3.03.63-5.72,1.66-8.03,1.03-2.31,2.13-4.19,3.31-5.66,1.4-1.73,2.98-3.21,4.73-4.47-.86,1.09-1.59,2.35-2.21,3.78-.52,1.22-.99,2.75-1.4,4.6-.41,1.85-.57,3.96-.49,6.31Z"/>
        <path class="cls-2" d="M353.48,127.72c1.29.9,2.33,1.94,3.1,3.15.78,1.21,1.32,2.48,1.63,3.85.18.89.27,1.79.27,2.7,0,.53-.02,1.02-.07,1.47-.18,1.47-.51,2.86-.99,4.17-.79,2.24-2.04,4.45-3.75,6.63-1.54,1.94-3.25,3.46-5.16,4.47-1.24.66-2.52,1.19-3.82,1.57-1.31.38-2.34.75-3.11,1.13-.34.17-.68.33-1.01.49-.36.18-.72.41-1.08.7-.13.12-.28.24-.44.34-.16.11-.3.22-.44.34-.27.25-.47.46-.6.64-.09.04-.14.1-.13.15-.85.88-1.73,1.97-2.66,3.28,0-.06.02-.1.07-.12.83-1.38,1.51-2.83,2.04-4.37.53-1.53.91-3.05,1.15-4.57.16-.72.26-1.32.3-1.81.1-1.28.14-2.56.1-3.84,0-.29-.02-.58-.02-.87-.02-.02-.05-.04-.07-.06,0-.17,0-.35-.01-.52-.13-1.24-.32-2.32-.57-3.23-.31-1.07-.66-2.02-1.05-2.84-.4-.82-.8-1.55-1.22-2.17-.41-.63-.79-1.22-1.14-1.79-.34-.57-.6-1.17-.76-1.79.2.55.43.98.67,1.27.34.51.86,1.04,1.55,1.58.69.55,1.61.86,2.75.94,1.14.08,2.54-.16,4.19-.71,1.6-.53,3.54-1.61,5.81-3.17-.23.18-.43.37-.61.57-.18.2-.38.41-.61.65-.09.14-.2.24-.34.32-.14.07-.25.18-.34.32-1.58,1.46-2.79,2.96-3.63,4.47-.84,1.51-1.24,3.28-1.19,5.25.03,1.19.19,2.26.49,3.21.15.45.34.9.58,1.36.24.46.54.88.92,1.27.51.6,1.13,1.04,1.86,1.31.73.27,1.51.18,2.36-.26,1.16-.6,2.18-1.45,3.08-2.52.9-1.07,1.65-2.2,2.24-3.39.59-1.19,1.02-2.39,1.28-3.62.13-.66.19-1.29.19-1.89,0-.45-.05-.85-.14-1.21,0-.05-.02-.06-.07-.05-.14-1.09-.55-2.01-1.24-2.8-.68-.79-1.85-1.62-3.51-2.57-.05-.04-.32-.2-.83-.51-.51-.31-1.09-.62-1.74-.96-.05.01-.07,0-.07-.06-.7-.37-1.41-.75-2.13-1.15-.73-.39-1.42-.86-2.08-1.41-1.74-1.1-3.15-2.49-4.2-4.15-1.05-1.65-1.82-3.44-2.29-5.3-.47-1.57-.73-3.14-.77-4.67,0-.23,0-.5.05-.81,0-1.77.23-3.43.72-4.94.44-1.39,1.05-2.61,1.83-3.67.78-1.06,1.72-1.86,2.8-2.41.9-.43,1.85-.66,2.85-.7.19,0,.38-.01.57-.02,1.24.06,2.54.42,3.88,1.04,0,.05.03.08.07.08.02.03.05.05.07.08.05,0,.08,0,.11.03.02.03.06.04.11.03.02.03.05.05.07.08.02,0,.05,0,.07,0,.05.05.1.07.14.07.02.02.05.05.07.07.02.02.05.05.07.07.05,0,.08,0,.11.03.02.03.06.04.11.03,0,.05.02.08.07.07.02.02.05.05.07.07.1.05.16.08.18.11.02.03.08.06.18.11.05,0,.12.04.22.14.72.48,1.34.71,1.86.73.19-.01.47-.08.85-.21.09-.11.19-.17.28-.17.38-.28.69-.56.96-.85.26-.29.44-.51.53-.67-1.6,2.45-3.19,5.02-4.75,7.7-1.71,2.91-3.39,5.94-5.06,9.1.18-.47.47-1.15.88-2.01.41-.86.81-1.82,1.22-2.85.4-1.03.76-2.11,1.08-3.25.31-1.13.46-2.22.44-3.28-.02-1.11-.21-1.99-.57-2.66-.37-.66-.82-1.14-1.34-1.43,0-.05-.03-.08-.07-.08-.72-.39-1.42-.57-2.08-.54-.38.02-.74.12-1.07.31-1.04.44-1.91,1.19-2.59,2.26-.78,1.19-1.15,2.74-1.1,4.63.06.45.1.86.14,1.23.03.37.1.78.21,1.22.47,1.77,1.4,3.46,2.77,5.01,1.37,1.55,3.31,3.04,5.8,4.36,1.78.96,3.27,1.82,4.47,2.65Z"/>
      </g>
    </g>
  </g>
</svg>